<svg width="121" height="71" viewBox="0 0 121 71" fill="none" xmlns="http://www.w3.org/2000/svg">
<path d="M3.696 17.72H20.256V22.376H9.024V32.36H17.76V37.064H9.024V53H3.696V17.72ZM31.5742 17.72H36.9502V53H31.5742V17.72ZM66.0836 53.48C62.8836 53.48 59.9236 52.744 57.2036 51.272C54.5156 49.768 52.3716 47.64 50.7716 44.888C49.1716 42.136 48.3716 38.936 48.3716 35.288C48.3716 31.608 49.1716 28.408 50.7716 25.688C52.3716 22.936 54.5156 20.824 57.2036 19.352C59.9236 17.88 62.8836 17.144 66.0836 17.144C69.2836 17.144 72.2276 17.88 74.9156 19.352C77.6356 20.824 79.7956 22.936 81.3956 25.688C82.9956 28.408 83.7956 31.608 83.7956 35.288C83.7956 38.936 82.9956 42.136 81.3956 44.888C79.7956 47.64 77.6356 49.768 74.9156 51.272C72.2276 52.744 69.2836 53.48 66.0836 53.48ZM66.0836 48.632C68.2916 48.632 70.3076 48.12 72.1316 47.096C73.9556 46.04 75.3956 44.52 76.4516 42.536C77.5396 40.52 78.0836 38.12 78.0836 35.336C78.0836 32.52 77.5396 30.12 76.4516 28.136C75.3956 26.12 73.9556 24.6 72.1316 23.576C70.3396 22.552 68.3236 22.04 66.0836 22.04C63.8436 22.04 61.8116 22.552 59.9876 23.576C58.1636 24.6 56.7236 26.12 55.6676 28.136C54.6116 30.12 54.0836 32.52 54.0836 35.336C54.0836 38.12 54.6276 40.52 55.7156 42.536C56.8036 44.52 58.2596 46.04 60.0836 47.096C61.9396 48.12 63.9396 48.632 66.0836 48.632ZM112.213 53L105.109 39.656C103.637 39.72 102.325 39.752 101.173 39.752H99.8291V53H94.5971V17.72H102.613C106.677 17.72 110.021 18.568 112.645 20.264C115.269 21.928 116.581 24.648 116.581 28.424C116.581 30.792 116.021 32.84 114.901 34.568C113.813 36.264 112.181 37.576 110.005 38.504L118.405 53H112.213ZM103.237 35.384C106.373 35.384 108.517 34.712 109.669 33.368C110.853 31.992 111.445 30.36 111.445 28.472C111.445 24.28 108.645 22.184 103.045 22.184H99.8291V35.384H103.237Z" fill="#2B2B2B"/>
<path d="M33.539 63.855H35.793V64.541H34.316V65.962H35.506V66.662H34.316V68.307H36.024V69H33.539V63.855ZM38.2556 63.855H39.1446L40.6846 67.39L42.2316 63.855H43.1136L40.7406 69H40.6356L38.2556 63.855ZM45.6413 63.855H47.8953V64.541H46.4183V65.962H47.6083V66.662H46.4183V68.307H48.1263V69H45.6413V63.855ZM51.7789 65.668L51.7999 66.228V69H51.0159V63.848H51.1139L54.1379 67.222L54.1099 66.634V63.855H54.8939V69H54.7889L51.7789 65.668ZM59.0656 64.541H57.7496V63.855H61.1726V64.541H59.8426V69H59.0656V64.541ZM69.0263 69.07C68.7463 69.07 68.4686 69.021 68.1933 68.923C67.9179 68.825 67.7196 68.7153 67.5983 68.594L67.9693 67.929C68.0673 68.0177 68.2189 68.111 68.4243 68.209C68.6343 68.3023 68.8349 68.349 69.0263 68.349C69.2736 68.349 69.4743 68.2907 69.6283 68.174C69.7869 68.0573 69.8663 67.8963 69.8663 67.691C69.8663 67.5323 69.8243 67.3947 69.7403 67.278C69.6563 67.1613 69.5536 67.0657 69.4323 66.991C69.3109 66.9117 69.1383 66.816 68.9143 66.704C68.6483 66.5733 68.4663 66.4753 68.3683 66.41C67.9156 66.1067 67.6893 65.6867 67.6893 65.15C67.6893 64.7067 67.8363 64.3683 68.1303 64.135C68.4243 63.897 68.7953 63.778 69.2433 63.778C69.7239 63.778 70.1323 63.9157 70.4683 64.191L70.0973 64.828C70.0086 64.7347 69.8826 64.6553 69.7193 64.59C69.5606 64.52 69.3903 64.485 69.2083 64.485C68.9749 64.485 68.7906 64.5387 68.6553 64.646C68.5246 64.7487 68.4593 64.9027 68.4593 65.108C68.4593 65.2527 68.5013 65.3833 68.5853 65.5C68.6693 65.612 68.7743 65.71 68.9003 65.794C69.0309 65.878 69.2059 65.9807 69.4253 66.102C69.6353 66.2187 69.7963 66.312 69.9083 66.382C70.0203 66.4473 70.1253 66.5267 70.2233 66.62C70.3586 66.7413 70.4683 66.886 70.5523 67.054C70.6363 67.222 70.6783 67.4063 70.6783 67.607C70.6783 67.9197 70.6059 68.1857 70.4613 68.405C70.3213 68.6243 70.1253 68.79 69.8733 68.902C69.6259 69.014 69.3436 69.07 69.0263 69.07ZM73.621 63.855H74.755C75.3943 63.855 75.861 63.9927 76.155 64.268C76.4537 64.5387 76.603 64.912 76.603 65.388C76.603 65.9387 76.442 66.361 76.12 66.655C75.798 66.949 75.3197 67.096 74.685 67.096H74.412V69H73.621V63.855ZM74.706 66.403C75.1167 66.403 75.4037 66.312 75.567 66.13C75.7303 65.948 75.812 65.7287 75.812 65.472C75.812 65.1967 75.7327 64.9727 75.574 64.8C75.4153 64.6273 75.1493 64.541 74.776 64.541H74.412V66.403H74.706ZM79.4259 63.855H81.6799V64.541H80.2029V65.962H81.3929V66.662H80.2029V68.307H81.9109V69H79.4259V63.855ZM87.1385 69.049C86.6065 69.049 86.1445 68.93 85.7525 68.692C85.3652 68.454 85.0688 68.1367 84.8635 67.74C84.6582 67.3387 84.5555 66.8977 84.5555 66.417C84.5555 65.9083 84.6652 65.4533 84.8845 65.052C85.1085 64.6507 85.4212 64.338 85.8225 64.114C86.2238 63.8853 86.6788 63.771 87.1875 63.771C87.4162 63.771 87.6285 63.7967 87.8245 63.848C88.0252 63.8947 88.1908 63.9507 88.3215 64.016C88.4522 64.0767 88.5385 64.128 88.5805 64.17L88.2375 64.87C87.9528 64.618 87.5818 64.492 87.1245 64.492C86.8025 64.492 86.5108 64.5713 86.2495 64.73C85.9882 64.8887 85.7828 65.115 85.6335 65.409C85.4842 65.703 85.4095 66.0437 85.4095 66.431C85.4095 66.7857 85.4748 67.1077 85.6055 67.397C85.7408 67.6863 85.9368 67.915 86.1935 68.083C86.4502 68.251 86.7558 68.335 87.1105 68.335C87.5212 68.335 87.9178 68.2183 88.3005 67.985L88.5315 68.65C88.4288 68.7433 88.2398 68.8343 87.9645 68.923C87.6938 69.007 87.4185 69.049 87.1385 69.049ZM91.5374 63.855H92.3214V69H91.5374V63.855ZM97.487 63.848L99.965 69H99.062L98.621 67.992H96.262L95.821 69H94.946L97.41 63.848H97.487ZM97.137 66.039L96.577 67.285H98.313L97.76 66.046L97.459 65.339H97.445L97.137 66.039ZM102.496 63.855H103.287V68.3H104.764V69H102.496V63.855ZM107.708 63.855H108.492V69H107.708V63.855ZM112.958 69.07C112.678 69.07 112.4 69.021 112.125 68.923C111.85 68.825 111.651 68.7153 111.53 68.594L111.901 67.929C111.999 68.0177 112.151 68.111 112.356 68.209C112.566 68.3023 112.767 68.349 112.958 68.349C113.205 68.349 113.406 68.2907 113.56 68.174C113.719 68.0573 113.798 67.8963 113.798 67.691C113.798 67.5323 113.756 67.3947 113.672 67.278C113.588 67.1613 113.485 67.0657 113.364 66.991C113.243 66.9117 113.07 66.816 112.846 66.704C112.58 66.5733 112.398 66.4753 112.3 66.41C111.847 66.1067 111.621 65.6867 111.621 65.15C111.621 64.7067 111.768 64.3683 112.062 64.135C112.356 63.897 112.727 63.778 113.175 63.778C113.656 63.778 114.064 63.9157 114.4 64.191L114.029 64.828C113.94 64.7347 113.814 64.6553 113.651 64.59C113.492 64.52 113.322 64.485 113.14 64.485C112.907 64.485 112.722 64.5387 112.587 64.646C112.456 64.7487 112.391 64.9027 112.391 65.108C112.391 65.2527 112.433 65.3833 112.517 65.5C112.601 65.612 112.706 65.71 112.832 65.794C112.963 65.878 113.138 65.9807 113.357 66.102C113.567 66.2187 113.728 66.312 113.84 66.382C113.952 66.4473 114.057 66.5267 114.155 66.62C114.29 66.7413 114.4 66.886 114.484 67.054C114.568 67.222 114.61 67.4063 114.61 67.607C114.61 67.9197 114.538 68.1857 114.393 68.405C114.253 68.6243 114.057 68.79 113.805 68.902C113.558 69.014 113.275 69.07 112.958 69.07ZM118.321 64.541H117.005V63.855H120.428V64.541H119.098V69H118.321V64.541Z" fill="#2B2B2B"/>
</svg>
