<svg width="20" height="20" viewBox="0 0 20 20" fill="none" xmlns="http://www.w3.org/2000/svg">
<g clip-path="url(#clip0_364_1193)">
<path d="M5.08333 5.66699C4.92862 5.66699 4.78025 5.72845 4.67085 5.83785C4.56146 5.94724 4.5 6.09562 4.5 6.25033C4.5 6.40504 4.56146 6.55341 4.67085 6.6628C4.78025 6.7722 4.92862 6.83366 5.08333 6.83366H13.25C13.4047 6.83366 13.5531 6.7722 13.6625 6.6628C13.7719 6.55341 13.8333 6.40504 13.8333 6.25033C13.8333 6.09562 13.7719 5.94724 13.6625 5.83785C13.5531 5.72845 13.4047 5.66699 13.25 5.66699H5.08333ZM6.25 12.667C6.71413 12.667 7.15925 12.4826 7.48744 12.1544C7.81563 11.8262 8 11.3811 8 10.917C8 10.4529 7.81563 10.0077 7.48744 9.67956C7.15925 9.35137 6.71413 9.16699 6.25 9.16699C5.78587 9.16699 5.34075 9.35137 5.01256 9.67956C4.68437 10.0077 4.5 10.4529 4.5 10.917C4.5 11.3811 4.68437 11.8262 5.01256 12.1544C5.34075 12.4826 5.78587 12.667 6.25 12.667ZM6.25 11.5003C6.09529 11.5003 5.94692 11.4389 5.83752 11.3295C5.72812 11.2201 5.66667 11.0717 5.66667 10.917C5.66667 10.7623 5.72812 10.6139 5.83752 10.5045C5.94692 10.3951 6.09529 10.3337 6.25 10.3337C6.40471 10.3337 6.55308 10.3951 6.66248 10.5045C6.77188 10.6139 6.83333 10.7623 6.83333 10.917C6.83333 11.0717 6.77188 11.2201 6.66248 11.3295C6.55308 11.4389 6.40471 11.5003 6.25 11.5003ZM9.75 10.3337C9.59529 10.3337 9.44692 10.3951 9.33752 10.5045C9.22812 10.6139 9.16667 10.7623 9.16667 10.917C9.16667 11.0717 9.22812 11.2201 9.33752 11.3295C9.44692 11.4389 9.59529 11.5003 9.75 11.5003H13.25C13.4047 11.5003 13.5531 11.4389 13.6625 11.3295C13.7719 11.2201 13.8333 11.0717 13.8333 10.917C13.8333 10.7623 13.7719 10.6139 13.6625 10.5045C13.5531 10.3951 13.4047 10.3337 13.25 10.3337H9.75Z" fill="#2B2B2B"/>
<path d="M2.16699 5.66699C2.16699 4.73873 2.53574 3.8485 3.19212 3.19212C3.8485 2.53574 4.73873 2.16699 5.66699 2.16699H12.667C13.5953 2.16699 14.4855 2.53574 15.1419 3.19212C15.7982 3.8485 16.167 4.73873 16.167 5.66699V12.667C16.167 13.5953 15.7982 14.4855 15.1419 15.1419C14.4855 15.7982 13.5953 16.167 12.667 16.167H5.66699C4.73873 16.167 3.8485 15.7982 3.19212 15.1419C2.53574 14.4855 2.16699 13.5953 2.16699 12.667V5.66699ZM5.66699 3.33366C5.04815 3.33366 4.45466 3.57949 4.01708 4.01708C3.57949 4.45466 3.33366 5.04815 3.33366 5.66699V12.667C3.33243 13.0732 3.43781 13.4726 3.63926 13.8254C3.8407 14.1781 4.13118 14.4718 4.48166 14.6772C4.82933 14.8837 5.23416 15.0003 5.66699 15.0003H12.667C13.0732 15.0016 13.4726 14.8962 13.8254 14.6947C14.1781 14.4933 14.4718 14.2028 14.6772 13.8523C14.8837 13.5047 15.0003 13.0998 15.0003 12.667V5.66699C15.0003 5.04815 14.7545 4.45466 14.3169 4.01708C13.8793 3.57949 13.2858 3.33366 12.667 3.33366H5.66699Z" fill="#2B2B2B"/>
<path d="M8.00027 18.5003C7.50784 18.5003 7.02096 18.3963 6.57144 18.1953C6.12192 17.9943 5.71989 17.7006 5.3916 17.3336H13.2503C14.3332 17.3336 15.3718 16.9034 16.1376 16.1376C16.9034 15.3718 17.3336 14.3332 17.3336 13.2503V5.3916C18.0499 6.03327 18.5003 6.96427 18.5003 8.00027V13.2503C18.5003 14.6427 17.9471 15.978 16.9626 16.9626C15.978 17.9471 14.6427 18.5003 13.2503 18.5003H8.00027Z" fill="#2B2B2B"/>
</g>
<defs>
<clipPath id="clip0_364_1193">
<rect width="20" height="20" fill="white"/>
</clipPath>
</defs>
</svg>
