<svg width="24" height="23" viewBox="0 0 24 23" fill="none" xmlns="http://www.w3.org/2000/svg">
<path d="M11.9998 0C5.7886 0 0.753906 5.03565 0.753906 11.2459C0.753906 17.4571 5.7886 22.4918 11.9998 22.4918C18.2101 22.4918 23.2457 17.4562 23.2457 11.2459C23.2457 5.03565 18.2101 0 11.9998 0ZM9.24478 14.2658C9.24478 14.8735 8.75226 15.3651 8.14543 15.3651C7.53765 15.3651 7.04609 14.8735 7.04609 14.2658V9.57878C7.04609 8.971 7.53765 8.47849 8.14543 8.47849C8.75226 8.47849 9.24478 8.971 9.24478 9.57878V14.2658ZM17.0107 14.1867C17.0107 15.046 16.5086 15.3537 15.6494 15.3537H11.6959C10.8366 15.3537 10.1403 14.6573 10.1403 13.798V9.90935C10.1403 9.90935 10.0631 9.26251 10.7795 8.65472C11.1843 8.31082 11.7855 7.65445 12.2056 6.85805C13.0401 5.27571 13.5393 4.81464 13.9194 4.93848C15.3274 5.39479 14.6234 7.48203 14.169 8.35369H15.455C16.3134 8.35369 17.0107 9.05007 17.0107 9.90935V14.1867Z" fill="white"/>
</svg>
