<svg width="200" height="358" viewBox="0 0 200 358" fill="none" xmlns="http://www.w3.org/2000/svg">
<path d="M163.879 187.532C149.613 268.439 79.8054 325.893 0.542626 327.65L0.998045 325.067C78.8525 323.096 147.327 266.592 161.346 187.086C170.745 133.78 153.612 81.8244 119.451 44.7865C97.3454 17.8784 58.3162 -3.10328e-05 58.3162 -3.10328e-05C132.198 28.7606 178.147 106.616 163.879 187.532Z" fill="#D1C7BE"/>
<path d="M8.16316 323.457C23.2951 323.889 40.5246 313.179 48.9126 300.895C54.1193 293.264 56.5629 284.064 58.7223 275.192C60.8096 266.521 62.3931 257.736 63.465 248.881C63.6329 247.51 65.7405 247.887 65.5734 249.253C64.3387 259.492 62.4122 269.635 59.8068 279.614C57.5992 288.005 54.8637 296.49 49.6511 303.541C40.7235 315.538 23.6314 326.027 8.38245 325.588C7.02185 325.55 6.79781 323.417 8.18226 323.46L8.16316 323.457Z" fill="#D1C7BE"/>
<path d="M6.61208 323.355C8.92488 305.189 14.7307 286.991 26.0391 272.343C35.5326 260.038 48.868 251.663 63.7907 247.592C65.1127 247.235 65.8658 249.24 64.5326 249.605C49.9127 253.576 36.9692 261.682 27.6732 273.732C16.5945 288.081 10.9868 305.936 8.7205 323.726C8.54781 325.096 6.43546 324.719 6.61208 323.355Z" fill="#D1C7BE"/>
<path d="M8.7252 322.863C34.1991 313.626 52.8153 291.23 60.8953 265.797C61.1831 264.89 62.6709 265.128 62.374 266.058C54.1301 292.002 35.2598 314.835 9.24415 324.271C9.05723 324.34 8.85065 324.331 8.66982 324.248C8.48899 324.164 8.34871 324.013 8.27991 323.826C8.21109 323.639 8.21935 323.433 8.30286 323.252C8.38636 323.071 8.53828 322.931 8.7252 322.863Z" fill="#D1C7BE"/>
<path d="M7.66264 322.027L37.4732 289.228C42.289 283.925 47.1729 278.654 51.9174 273.309C57.2009 267.362 62.2744 260.709 62.2112 252.365C62.2075 251.381 63.6994 251.261 63.7112 252.226C63.8166 266.273 50.6606 276.95 42.0002 286.483L8.8091 323C8.16229 323.712 7.01409 322.748 7.66736 322.028L7.66264 322.027Z" fill="#D1C7BE"/>
<path d="M8.63972 321.088C9.07279 302.705 20.6711 285.297 33.604 272.984C38.4387 268.382 43.8489 264.339 48.991 260.087C53.8235 256.084 58.6035 251.542 63.9741 248.253C64.7949 247.754 65.6612 248.978 64.8339 249.486C60.0376 252.419 55.7394 256.432 51.4357 260.002C46.7607 263.865 41.9189 267.586 37.3589 271.577C23.4983 283.712 10.5852 301.91 10.1349 320.949C10.1142 321.904 8.61729 322.052 8.63494 321.088L8.63972 321.088Z" fill="#D1C7BE"/>
<path d="M7.44305 320.372C13.0115 306.505 21.6441 293.252 32.6074 283.043C43.5707 272.835 57.5912 264.09 63.4086 249.564C63.7722 248.645 65.1254 249.312 64.7707 250.207C59.3865 263.615 47.0583 272.276 36.5643 281.496C24.3562 292.33 14.8504 305.864 8.80438 321.02C8.44496 321.914 7.08839 321.267 7.44221 320.376L7.44305 320.372Z" fill="#D1C7BE"/>
<path d="M19.7796 327.313C34.4413 336.837 50.1478 344.65 66.5909 350.598C75.2985 353.74 84.3559 356.266 93.6169 354.149C101.786 352.283 109.007 347.763 116.025 343.36C117.191 342.632 118.427 344.383 117.255 345.115C110.243 349.509 103.021 354.009 94.9062 356.042C86.5086 358.144 78.2527 356.708 70.1678 354.078C51.8988 348.145 34.5075 339.354 18.4181 328.925C17.2663 328.177 18.6606 326.546 19.8085 327.289L19.7796 327.313Z" fill="#D1C7BE"/>
<path d="M116.404 344.64C99.8144 338.305 83.6705 330.417 66.5428 325.599C51.9733 321.501 33.7313 320.073 21.1217 330.05C20.0356 330.91 18.8206 329.153 19.8916 328.296C31.9982 318.716 49.431 319.127 63.6809 322.637C82.2071 327.196 99.5465 335.919 117.307 342.701C118.592 343.193 117.671 345.129 116.385 344.637L116.404 344.64Z" fill="#D1C7BE"/>
<path d="M22.8771 328.213C49.3768 339.351 76.848 343.67 105.321 338.819C106.274 338.658 106.409 340.151 105.46 340.317C76.743 345.214 48.9525 340.81 22.2339 329.573C21.3454 329.2 21.9878 327.844 22.8771 328.213Z" fill="#D1C7BE"/>
<path d="M21.1379 328.368C39.333 335.753 57.4262 343.911 76.6207 348.445C82.9371 349.984 89.5006 350.222 95.9111 349.144C102.237 348.166 109.293 346.919 114.928 343.697C115.759 343.22 116.63 344.449 115.788 344.925C110.69 347.839 104.564 349.112 98.8393 350.167C92.3071 351.368 85.945 351.996 79.4166 350.609C58.9781 346.268 39.7744 337.546 20.5003 329.725C19.5816 329.356 20.2526 328.006 21.1483 328.365L21.1379 328.368Z" fill="#D1C7BE"/>
<path d="M24.0845 328.003C49.3555 328.175 75.3241 329.019 99.7244 336.221C100.66 336.494 100.399 337.971 99.4639 337.698C75.1899 330.534 49.3633 329.665 24.2245 329.497C23.2427 329.486 23.121 328 24.0854 327.999L24.0845 328.003Z" fill="#D1C7BE"/>
<path d="M75.6272 309.03C97.5693 315.695 128.821 319.161 147.185 302.102C148.18 301.171 149.827 302.568 148.819 303.486C129.826 321.132 98.0841 318.076 75.2532 311.151C73.9509 310.754 74.3041 308.64 75.6255 309.04L75.6272 309.03Z" fill="#D1C7BE"/>
<path d="M146.89 303.686C135.281 299.665 122.947 298.17 110.714 299.299C98.4816 300.428 86.6325 304.157 75.9609 310.234C74.7689 310.913 73.5332 309.162 74.7308 308.479C85.7211 302.203 97.9313 298.355 110.538 297.195C123.145 296.034 135.855 297.587 147.812 301.75C149.114 302.206 148.187 304.141 146.89 303.686Z" fill="#D1C7BE"/>
<path d="M79.0478 308.041C101.371 311.82 124.993 314.231 145.255 301.914C146.081 301.415 146.947 302.639 146.116 303.141C125.5 315.677 101.521 313.365 78.7873 309.519C78.5912 309.484 78.4169 309.373 78.3026 309.21C78.1884 309.047 78.1436 308.845 78.1781 308.65C78.2127 308.454 78.3237 308.28 78.4868 308.166C78.6499 308.051 78.8517 308.007 79.0478 308.041Z" fill="#D1C7BE"/>
<path d="M80.3329 307.28C97.5326 305.905 114.571 302.974 131.24 298.523C132.169 298.274 132.694 299.679 131.76 299.927C114.971 304.42 97.8087 307.38 80.4832 308.771C79.5197 308.851 79.375 307.357 80.3394 307.271L80.3329 307.28Z" fill="#D1C7BE"/>
<path d="M80.4732 307.349C90.1018 308.811 100.007 308.646 109.705 308.013C119.533 307.372 130.967 306.848 139.047 300.608C139.815 300.016 140.67 301.248 139.908 301.835C131.934 308.001 120.854 308.72 111.143 309.426C100.91 310.166 90.402 310.372 80.2327 308.825C79.2744 308.681 79.5307 307.227 80.4923 307.352L80.4732 307.349Z" fill="#D1C7BE"/>
<path d="M64.5197 309.484C78.2143 302.818 89.4754 292.036 96.7235 278.65C100.42 271.799 102.711 264.528 104.264 256.92C105.846 249.175 107.188 241.452 111.168 234.503C111.867 233.324 113.799 234.225 113.105 235.424C108.274 243.83 107.477 253.398 105.184 262.635C103.402 269.815 100.533 276.681 96.6755 282.995C89.149 295.304 78.2428 305.194 65.2529 311.49C64.0107 312.092 63.2783 310.081 64.5054 309.482L64.5197 309.484Z" fill="#D1C7BE"/>
<path d="M64.3663 309.015C66.3016 293.185 68.4193 276.489 77.2305 262.781C85.3137 250.218 97.296 240.479 110.842 234.338C112.1 233.763 112.836 235.78 111.585 236.346C98.1075 242.46 85.9137 252.421 78.2411 265.195C70.2685 278.471 68.3219 294.308 66.4748 309.386C66.3068 310.757 64.1992 310.381 64.3663 309.015Z" fill="#D1C7BE"/>
<path d="M65.1728 307.398C81.2854 286.369 98.5174 263.65 105.682 237.771C105.941 236.834 107.42 237.095 107.161 238.032C99.9171 264.192 82.598 287.126 66.3154 308.366C65.7278 309.132 64.5852 308.164 65.1728 307.398Z" fill="#D1C7BE"/>
<path d="M65.6781 309.163C74.9304 303.497 81.6154 292.81 87.5123 283.915C93.7151 274.567 99.2902 264.819 104.643 254.963C105.102 254.12 106.46 254.757 106.005 255.61C100.588 265.578 94.9351 275.431 88.6597 284.883C82.6773 293.901 75.9608 304.627 66.5427 310.396C65.7266 310.896 64.8604 309.672 65.6829 309.164L65.6781 309.163Z" fill="#D1C7BE"/>
<path d="M65.7266 305.039C73.8565 281.61 91.3043 262.604 101.003 239.845C101.381 238.958 102.738 239.601 102.365 240.488C92.6656 263.252 75.2179 282.257 67.0887 305.682C66.7728 306.609 65.4196 305.943 65.7266 305.039Z" fill="#D1C7BE"/>
<path d="M68.409 289.435C76.2538 276.215 82.8413 262.287 89.6827 248.536C90.1104 247.673 91.4686 248.311 91.0449 249.179C84.1931 262.933 77.616 276.858 69.7712 290.078C69.2819 290.901 67.927 290.244 68.409 289.435Z" fill="#D1C7BE"/>
<path d="M114.76 280.405C126.771 284.12 139.897 285.078 152.368 283.641C164.918 282.198 174.343 273.016 182.618 264.245C183.562 263.247 185.202 264.627 184.252 265.634C176.249 274.119 167.087 283.175 155.156 285.4C142.07 287.844 127.028 286.425 114.388 282.516C113.087 282.11 113.445 279.996 114.76 280.405Z" fill="#D1C7BE"/>
<path d="M113.738 280.235C119.967 275.928 124.841 269.958 131.3 265.962C135.736 263.247 140.602 261.306 145.69 260.225C158.477 257.443 171.692 259.714 183.929 263.729C185.236 264.156 184.31 266.091 183.012 265.666C170.886 261.69 157.592 259.478 144.998 262.56C139.84 263.796 134.955 265.971 130.587 268.976C124.984 272.857 120.551 278.109 114.949 281.986C113.827 282.771 112.581 281.018 113.719 280.231L113.738 280.235Z" fill="#D1C7BE"/>
<path d="M142.298 242.144C155.913 238.064 170.512 233.685 180.817 223.356C191.803 212.351 195.309 196.597 197.47 181.746C197.667 180.38 199.78 180.753 199.583 182.119C197.37 197.319 193.675 213.477 182.457 224.741C171.862 235.373 157.051 239.955 143.045 244.153C141.726 244.549 140.974 242.54 142.298 242.144Z" fill="#D1C7BE"/>
<path d="M141.657 242.233C153.182 216.513 172.688 194.117 197.774 180.915C198.982 180.283 200.224 182.03 199.009 182.671C174.211 195.717 154.984 217.73 143.584 243.162C143.023 244.419 141.065 243.499 141.646 242.241L141.657 242.233Z" fill="#D1C7BE"/>
<path d="M124.655 265.292C134.793 252.093 140.649 232.243 136.778 215.788C135.381 209.763 132.415 204.268 130.177 198.522C127.351 191.095 125.84 183.233 125.711 175.289C125.682 173.918 127.816 173.695 127.847 175.086C128.037 183.831 129.887 192.46 133.298 200.517C135.854 206.633 138.69 212.562 139.575 219.2C141.752 235.449 136.211 253.763 126.285 266.68C125.443 267.77 123.808 266.386 124.646 265.29L124.655 265.292Z" fill="#D1C7BE"/>
<path d="M123.37 267.311C120.39 263.96 119.369 258.562 118.395 254.351C116.506 245.92 115.386 237.335 115.048 228.702C114.218 210.704 115.478 190.476 125.166 174.751C125.863 173.587 127.828 174.493 127.104 175.673C117.61 191.073 116.372 210.873 117.184 228.499C117.503 236.441 118.47 244.345 120.075 252.131C121.012 256.552 121.985 262.556 125.117 266.076C126.032 267.107 124.268 268.324 123.361 267.304L123.37 267.311Z" fill="#D1C7BE"/>
<path d="M161.504 191.044C190.43 173.636 195.021 137.643 192.269 106.944C192.148 105.567 194.283 105.368 194.405 106.741C197.221 138.193 192.299 175.007 162.734 192.799C161.556 193.51 160.32 191.76 161.504 191.044Z" fill="#D1C7BE"/>
<path d="M161.301 191.667C162.681 173.435 166.024 155.368 169.965 137.534C172.856 124.433 179.202 110.816 192.581 105.623C193.869 105.123 194.612 107.131 193.324 107.631C178.444 113.409 173.836 129.17 170.958 143.256C167.657 159.41 164.662 175.558 163.413 192.044C163.308 193.421 161.197 193.039 161.3 191.671L161.301 191.667Z" fill="#D1C7BE"/>
<path d="M155.251 208.014C131.885 194.529 132.582 164.969 135.477 141.633C135.645 140.263 137.757 140.64 137.585 142.005C134.833 164.226 133.756 193.124 156.174 206.069C157.354 206.768 156.454 208.693 155.253 208L155.251 208.014Z" fill="#D1C7BE"/>
<path d="M155.106 206.883C156.365 191.627 155.944 175.407 148.482 161.63C144.745 154.736 138.9 149.023 135.903 141.723C135.382 140.442 137.39 139.706 137.913 140.982C141.106 148.817 147.587 154.932 151.332 162.511C158.151 176.307 158.446 192.21 157.217 207.24C157.103 208.611 154.996 208.229 155.109 206.868L155.106 206.883Z" fill="#D1C7BE"/>
<path d="M161.032 124.903C165.077 117.583 169.259 110.046 170.907 101.762C172.027 96.1322 171.408 91.4436 170.104 86.0101C167.851 76.6064 164.809 67.3877 162.931 57.873C162.677 56.5213 164.801 56.3308 165.067 57.6699C167.107 67.9697 170.555 77.9528 172.795 88.2092C175.764 101.803 169.4 114.183 162.97 125.825C162.311 127.025 160.366 126.117 161.032 124.903Z" fill="#D1C7BE"/>
<path d="M160.286 124.757C154.224 102.691 155.055 79.3041 162.666 57.7279C163.126 56.4331 165.063 57.3593 164.604 58.6493C157.202 79.6948 156.397 102.496 162.296 124.015C162.658 125.337 160.651 126.089 160.286 124.757Z" fill="#D1C7BE"/>
<path d="M162.292 142.112C147.658 135.031 124.083 126.471 124.565 106.469C124.599 105.104 126.733 104.886 126.701 106.266C126.238 125.382 149.183 133.388 163.214 140.176C164.45 140.777 163.538 142.715 162.292 142.112Z" fill="#D1C7BE"/>
<path d="M162.004 141.152C156.072 125.306 142.215 112.009 125.796 107.497C124.477 107.137 124.835 105.023 126.168 105.386C143.332 110.108 157.797 123.807 164.013 140.411C164.498 141.705 162.489 142.446 162.004 141.152Z" fill="#D1C7BE"/>
<path d="M150.344 95.3356C135.549 92.6895 121.903 85.627 111.203 75.079C110.227 74.1157 111.604 72.4717 112.593 73.4422C123.002 83.7421 136.298 90.6394 150.717 93.2198C152.077 93.4595 151.704 95.5753 150.345 95.3309L150.344 95.3356Z" fill="#D1C7BE"/>
<path d="M149.435 93.4357C143.137 78.7195 127.677 71.0506 112.1 74.5686C110.753 74.8716 110.568 72.7361 111.896 72.4345C119.817 70.6035 128.133 71.6311 135.371 75.3354C142.61 79.0396 148.304 85.1818 151.448 92.6753C151.99 93.9502 149.977 94.686 149.437 93.4215L149.435 93.4357Z" fill="#D1C7BE"/>
<path d="M141.173 70.1332C146.009 56.9379 144.663 41.39 137.331 29.3562C136.613 28.183 138.366 26.949 139.087 28.1278C146.846 40.861 148.243 57.0962 143.111 71.0548C142.637 72.347 140.7 71.4207 141.173 70.1332Z" fill="#D1C7BE"/>
<path d="M140.233 70.4737C136.806 64.1183 134.754 57.1144 134.212 49.9166C133.669 42.7189 134.648 35.4881 137.084 28.6937C137.543 27.3989 139.48 28.3251 139.022 29.6151C136.725 36.0619 135.803 42.9174 136.314 49.742C136.825 56.5667 138.758 63.2099 141.989 69.2455C142.633 70.4497 140.88 71.6884 140.233 70.4737Z" fill="#D1C7BE"/>
<path d="M125.253 52.8606C113.346 51.8814 101.291 47.4956 93.7877 37.8047C92.9425 36.7122 94.6848 35.5062 95.5437 36.5764C102.699 45.8177 114.314 49.8214 125.625 50.7496C126.997 50.8638 126.62 52.974 125.253 52.8606Z" fill="#D1C7BE"/>
<path d="M124.672 52.1638C118.017 43.1285 106.832 37.1615 95.4782 38.2305C94.1025 38.3614 93.9032 36.2281 95.2733 36.1012C107.394 34.9512 119.319 41.2944 126.429 50.9306C127.249 52.0578 125.496 53.2671 124.673 52.159L124.672 52.1638Z" fill="#D1C7BE"/>
<path d="M116.383 280.298C138.195 276.092 159.769 270.735 181.014 264.252C181.934 263.972 182.458 265.376 181.534 265.656C160.164 272.167 138.465 277.545 116.527 281.768C115.58 281.95 115.445 280.457 116.388 280.27L116.383 280.298Z" fill="#D1C7BE"/>
<path d="M115.778 280.713C126.483 280.06 137.236 279.637 147.908 278.585C157.844 277.605 171.22 276.504 178.28 268.571C178.9 267.845 180.071 268.818 179.427 269.54C172.975 276.789 161.756 278.378 152.626 279.554C140.48 281.127 128.136 281.452 115.919 282.202C114.954 282.262 114.809 280.768 115.78 280.703L115.778 280.713Z" fill="#D1C7BE"/>
<path d="M120.447 280.622C135.814 284.466 151.614 280.688 166.933 278.5C167.892 278.364 168.031 279.858 167.077 279.999C151.612 282.211 135.688 285.987 120.186 282.104C119.244 281.869 119.504 280.392 120.446 280.631L120.447 280.622Z" fill="#D1C7BE"/>
<path d="M116.851 279.093C135.894 270.728 155.941 264.859 176.493 261.632C177.445 261.48 177.584 262.979 176.632 263.13C156.216 266.347 136.303 272.189 117.388 280.51C116.503 280.899 115.984 279.491 116.869 279.101L116.851 279.093Z" fill="#D1C7BE"/>
<path d="M120.609 276.356C131.99 268.41 144.785 262.706 158.307 259.551C159.236 259.336 159.765 260.741 158.826 260.959C145.426 264.076 132.745 269.72 121.464 277.588C121.383 277.644 121.292 277.684 121.196 277.705C121.099 277.726 120.999 277.728 120.902 277.711C120.805 277.694 120.712 277.657 120.629 277.604C120.546 277.551 120.474 277.482 120.418 277.401C120.361 277.32 120.321 277.229 120.3 277.132C120.279 277.036 120.277 276.936 120.294 276.839C120.312 276.742 120.348 276.65 120.401 276.566C120.454 276.483 120.523 276.412 120.604 276.355L120.609 276.356Z" fill="#D1C7BE"/>
<path d="M143.225 239.925C152.932 231.627 162.68 223.372 172.339 215.012C181.544 207.044 193.122 198.29 197.008 186.264C197.305 185.334 198.658 186 198.369 186.912C194.686 198.32 184.304 206.543 175.591 214.165C165.195 223.28 154.596 232.171 144.094 241.159C143.359 241.786 142.505 240.55 143.23 239.926L143.225 239.925Z" fill="#D1C7BE"/>
<path d="M147.717 235.759C155.19 229.558 163.269 224.126 171.834 219.547C180.699 214.825 190.575 209.973 194.087 199.792C194.403 198.865 195.756 199.531 195.448 200.44C192.322 209.494 184.039 214.795 175.978 219.059C166.215 224.216 157.079 229.976 148.583 236.988C147.84 237.604 146.98 236.371 147.722 235.76L147.717 235.759Z" fill="#D1C7BE"/>
<path d="M144.678 239.046L168.571 227.983C175.791 224.637 183.278 221.422 188.014 214.705C188.567 213.913 189.713 214.886 189.157 215.673C184.932 221.669 178.519 224.985 172.022 228.021C163.097 232.191 154.144 236.302 145.204 240.446C144.326 240.851 143.812 239.443 144.68 239.036L144.678 239.046Z" fill="#D1C7BE"/>
<path d="M146.427 235.6C161.645 216.241 179.701 199.451 197.747 182.773C198.446 182.125 199.598 183.099 198.888 183.745C180.847 200.425 162.802 217.212 147.574 236.574C146.977 237.333 145.831 236.36 146.427 235.6Z" fill="#D1C7BE"/>
<path d="M123.416 265.294C126.438 252.978 126.135 240.134 124.147 227.672C122.325 216.334 119.038 205.323 118.379 193.803C118.322 192.84 119.818 192.696 119.879 193.664C120.568 205.652 124.107 217.106 125.867 228.934C127.659 241.091 127.858 253.572 124.918 265.559C124.688 266.501 123.209 266.24 123.439 265.298L123.416 265.294Z" fill="#D1C7BE"/>
<path d="M124.348 265.252C128.614 249.873 128.363 233.584 126.811 217.808C125.489 204.274 122.873 190.488 125.651 176.964C125.848 176.016 127.327 176.277 127.13 177.225C124.187 191.574 127.399 206.159 128.566 220.521C129.79 235.531 129.87 250.895 125.817 265.511C125.558 266.448 124.079 266.187 124.338 265.25L124.348 265.252Z" fill="#D1C7BE"/>
<path d="M126.01 263.132C131.927 242.851 131.653 221.871 131.321 200.934C131.308 199.974 132.805 199.825 132.822 200.791C133.156 221.851 133.449 242.982 127.494 263.394C127.225 264.329 125.747 264.069 126.015 263.133L126.01 263.132Z" fill="#D1C7BE"/>
<path d="M130.122 258.001C133.222 242.146 135.604 226.213 135.102 210.008C135.069 209.049 136.566 208.901 136.602 209.87C137.106 226.203 134.73 242.274 131.605 258.262C131.437 259.215 129.944 258.952 130.127 258.001L130.122 258.001Z" fill="#D1C7BE"/>
<path d="M122.754 264.725C122.534 248.398 121.302 232.595 116.465 216.903C116.179 215.983 117.585 215.459 117.87 216.379C122.741 232.185 124.027 248.131 124.25 264.581C124.262 265.541 122.77 265.691 122.749 264.724L122.754 264.725Z" fill="#D1C7BE"/>
<path d="M154.378 205.403C146.238 187.971 141.416 169.179 140.157 149.986C140.096 149.022 141.586 148.882 141.657 149.848C142.909 168.91 147.701 187.573 155.788 204.885C156.198 205.764 154.785 206.276 154.383 205.404L154.378 205.403Z" fill="#D1C7BE"/>
<path d="M154.241 205.566C151.016 191.35 149.2 176.851 148.82 162.28C148.788 161.316 150.284 161.172 150.321 162.136C150.691 176.58 152.478 190.953 155.656 205.049C155.871 205.976 154.464 206.504 154.251 205.568L154.241 205.566Z" fill="#D1C7BE"/>
<path d="M155.239 204.258C152.328 193.21 152.134 181.363 152.253 170.005C152.265 169.048 153.757 168.899 153.754 169.861C153.637 181.073 153.776 192.836 156.634 203.737C156.879 204.665 155.474 205.189 155.225 204.255L155.239 204.258Z" fill="#D1C7BE"/>
<path d="M153.591 206.439C144.619 191.099 137.944 174.307 134.803 156.781C134.631 155.832 136.13 155.698 136.303 156.643C139.413 173.898 146.014 190.465 154.843 205.584C155.327 206.411 154.102 207.276 153.614 206.443L153.591 206.439Z" fill="#D1C7BE"/>
<path d="M162.04 188.815C168.697 175.69 176.375 163.025 181.904 149.353C187.289 136.028 189.856 121.804 191.992 107.652C192.16 106.699 193.591 106.951 193.466 107.912C191.394 121.673 188.917 135.524 183.844 148.535C178.286 162.787 170.294 175.868 163.402 189.458C162.965 190.319 161.607 189.682 162.04 188.815Z" fill="#D1C7BE"/>
<path d="M163.216 187.307C168.541 177.412 175.827 168.786 181.473 159.08C187.403 148.93 191.235 137.695 192.744 126.038C192.864 125.077 194.343 125.337 194.223 126.299C192.759 137.578 189.148 148.473 183.586 158.396C177.845 168.636 170.155 177.603 164.603 187.945C164.149 188.789 162.786 188.155 163.241 187.302L163.216 187.307Z" fill="#D1C7BE"/>
<path d="M161.971 189.707C167.808 183.696 173.24 177.305 178.231 170.576C183.589 163.423 188.548 155.974 190.717 147.187C190.951 146.246 192.43 146.507 192.195 147.448C190.191 155.551 185.931 162.558 181.066 169.253C175.612 176.822 169.612 183.984 163.113 190.679C162.442 191.362 161.289 190.397 161.966 189.706L161.971 189.707Z" fill="#D1C7BE"/>
<path d="M175.773 162.899C182.043 145.069 186.602 126.682 189.39 107.989C189.558 107.036 190.989 107.288 190.868 108.249C188.043 127.074 183.436 145.589 177.11 163.543C176.789 164.469 175.436 163.803 175.749 162.895L175.773 162.899Z" fill="#D1C7BE"/>
<path d="M168.831 175.797C171.093 163.328 173.865 150.957 176.913 138.661C179.436 128.482 181.575 117.804 187.611 109.012C188.154 108.218 189.296 109.191 188.753 109.984C182.319 119.355 180.277 131.161 177.631 142.01C174.885 153.289 172.383 164.631 170.309 176.058C170.275 176.254 170.164 176.428 170.001 176.542C169.838 176.656 169.636 176.701 169.44 176.666C169.244 176.632 169.069 176.521 168.955 176.358C168.841 176.195 168.796 175.993 168.831 175.797Z" fill="#D1C7BE"/>
<path d="M164.27 183.282C168.788 159.83 171.399 135.57 181.662 113.712C181.704 113.622 181.764 113.542 181.837 113.476C181.91 113.409 181.996 113.358 182.089 113.325C182.182 113.291 182.281 113.277 182.38 113.281C182.478 113.286 182.575 113.31 182.665 113.353C182.754 113.395 182.834 113.454 182.901 113.528C182.967 113.601 183.019 113.686 183.052 113.779C183.085 113.872 183.1 113.971 183.095 114.07C183.091 114.168 183.066 114.265 183.024 114.355C172.798 136.087 170.248 160.225 165.754 183.539C165.586 184.492 164.093 184.229 164.275 183.278L164.27 183.282Z" fill="#D1C7BE"/>
<path d="M160.972 122.848C163.993 104.095 165.56 85.3317 165.037 66.3173C165.015 65.3306 166.506 65.2103 166.538 66.1741C167.064 85.3118 165.495 104.223 162.455 123.11C162.287 124.063 160.823 123.805 160.976 122.849L160.972 122.848Z" fill="#D1C7BE"/>
<path d="M161.842 121.12C167.614 107.353 168.113 93.0047 168.229 78.2845C168.245 77.3045 169.733 77.1787 169.729 78.1461C169.611 93.1264 169.078 107.753 163.199 121.762C162.826 122.654 161.474 122.008 161.837 121.119L161.842 121.12Z" fill="#D1C7BE"/>
<path d="M161.033 121.41C159.155 100.933 159.668 80.2538 163.675 60.0384C163.843 59.0853 165.341 59.3495 165.154 60.2992C161.169 80.3907 160.665 100.904 162.531 121.256C162.55 121.455 162.488 121.653 162.361 121.806C162.233 121.96 162.05 122.056 161.851 122.075C161.652 122.093 161.454 122.032 161.3 121.904C161.146 121.777 161.05 121.593 161.031 121.395L161.033 121.41Z" fill="#D1C7BE"/>
<path d="M163.144 117.168C167.208 108.706 170.277 99.3662 170.845 89.9489C170.908 88.9773 172.387 89.238 172.324 90.2096C171.747 99.7287 168.606 109.257 164.504 117.821C164.462 117.91 164.402 117.99 164.329 118.056C164.255 118.122 164.169 118.174 164.076 118.207C163.887 118.273 163.68 118.263 163.5 118.177C163.319 118.091 163.18 117.937 163.113 117.749C163.046 117.56 163.057 117.353 163.143 117.173L163.144 117.168Z" fill="#D1C7BE"/>
<path d="M160.493 139.564C157.168 133.317 150.544 127.928 145.548 122.984C140.72 118.202 134.996 110.972 128.489 108.596C127.564 108.261 128.231 106.909 129.132 107.235C135.906 109.712 141.518 116.883 146.518 121.833C151.648 126.909 158.279 132.26 161.743 138.698C162.194 139.544 160.95 140.406 160.513 139.562L160.493 139.564Z" fill="#D1C7BE"/>
<path d="M160.305 139.658C148.133 130.249 130.417 123.578 126.138 107.036C125.898 106.109 127.303 105.586 127.542 106.517C131.759 122.773 149.284 129.243 161.28 138.508C162.041 139.099 161.072 140.245 160.306 139.653L160.305 139.658Z" fill="#D1C7BE"/>
<path d="M159.519 137.417C153.609 133.028 147.816 128.474 142.345 123.52C137.145 118.78 133.013 113.487 128.878 107.839C128.303 107.055 129.536 106.201 130.107 106.98C134.473 112.904 138.856 118.394 144.36 123.305C149.516 127.899 154.962 132.161 160.508 136.274C161.281 136.853 160.308 137.993 159.534 137.419L159.519 137.417Z" fill="#D1C7BE"/>
<path d="M141.311 69.1308C138.473 57.3292 136.356 45.6251 136.296 33.4142C136.293 32.4554 137.789 32.3114 137.796 33.2757C137.831 45.3496 139.886 56.9051 142.696 68.6085C142.921 69.5375 141.515 70.0659 141.292 69.1274L141.311 69.1308Z" fill="#D1C7BE"/>
<path d="M141.103 67.045C140.98 54.7868 139.924 42.5555 137.944 30.4568C137.787 29.5054 139.286 29.3717 139.444 30.3183C141.422 42.4173 142.478 54.6486 142.603 66.9067C142.616 67.867 141.12 68.011 141.103 67.045Z" fill="#D1C7BE"/>
<path d="M148.661 92.9996C138.036 85.7297 126.818 79.3648 115.126 73.9723C114.253 73.5725 114.895 72.2166 115.774 72.6125C127.578 78.0645 138.902 84.499 149.626 91.8481C150.421 92.3911 149.447 93.5313 148.653 92.9883L148.661 92.9996Z" fill="#D1C7BE"/>
<path d="M147.39 91.0015C140.6 83.6476 132.424 79.0269 123.634 74.4846C122.778 74.0388 123.416 72.6821 124.277 73.1239C133.207 77.74 141.46 82.3742 148.379 89.8542C149.027 90.5581 148.052 91.7079 147.41 91.0001L147.39 91.0015Z" fill="#D1C7BE"/>
<path d="M147.944 92.7946C136.276 87.8676 122.771 83.1721 112.721 75.1992C111.971 74.5755 112.936 73.4534 113.695 74.0542C117.697 77.2166 122.478 79.563 127.088 81.7861C134.167 85.211 141.368 88.3872 148.611 91.443C149.527 91.8257 148.857 93.1717 147.967 92.8036L147.944 92.7946Z" fill="#D1C7BE"/>
<path d="M122.451 51.8753C113.849 46.7373 104.789 42.4716 95.8048 38.0523C94.9407 37.6248 95.5832 36.269 96.4528 36.6926C105.432 41.111 114.497 45.3775 123.094 50.5147C123.917 51.0086 123.259 52.3668 122.451 51.8753Z" fill="#D1C7BE"/>
<path d="M123.416 51.1169C116.746 46.4031 109.347 42.8431 102.678 38.1245C101.891 37.568 102.864 36.4277 103.651 36.9841C110.321 41.6979 117.72 45.258 124.389 49.9766C125.176 50.533 124.202 51.6781 123.415 51.1217L123.416 51.1169Z" fill="#D1C7BE"/>
<path d="M113.772 49.9911C109.103 46.3473 104.118 43.3752 98.2694 42.2063C97.3196 42.0142 97.5801 40.5369 98.5299 40.729C104.633 41.9623 109.882 45.0501 114.741 48.8499C115.501 49.4459 114.533 50.587 113.772 49.9911Z" fill="#D1C7BE"/>
</svg>
