<svg width="217" height="243" viewBox="0 0 217 243" fill="none" xmlns="http://www.w3.org/2000/svg">
<path d="M215.091 235.84C214.25 235.988 214.038 236.034 213.51 236.128C132.004 250.499 53.9679 195.701 39.5573 113.974C34.3561 84.711 37.9645 54.566 49.9225 27.383C52.3518 21.8602 57.3997 7.80788 57.3997 7.80788C37.8289 39.6198 30.6204 77.5481 37.1472 114.369C51.7912 197.419 131.099 253.115 213.935 238.509C214.461 238.416 214.987 238.32 215.511 238.222C217.819 237.791 216.275 235.181 215.091 235.84Z" fill="#D1C7BE"/>
<path d="M124.631 177.729C121.43 177.085 118.073 177.147 115.641 179.532C113.535 181.581 112.466 184.439 112.042 187.295C111.049 193.956 113.469 200.306 116.906 205.907C121.766 213.805 136.977 225.276 137.215 225.203C137.647 227.114 136.861 228.8 137.452 230.678C137.71 231.502 140.307 231.478 140.049 230.655C138.131 224.661 137.089 218.422 136.956 212.13C136.853 206.259 138.078 200.444 137.843 194.587C137.493 186.459 132.926 179.388 124.631 177.729ZM131.745 182.873C131.717 182.883 131.691 182.899 131.67 182.921C131.649 182.942 131.633 182.968 131.623 182.997C131.613 183.025 131.61 183.056 131.614 183.086C131.618 183.115 131.629 183.144 131.646 183.169C136.203 189.347 135.063 196.672 134.166 203.755C134.082 202.248 133.944 200.751 133.731 199.25C132.737 192.386 130.426 185.779 126.928 179.793C127.361 179.965 127.798 180.153 128.221 180.365C129.514 181.012 130.701 181.852 131.743 182.857L131.745 182.873ZM128.927 215.593C129.164 215.841 129.407 216.088 129.656 216.334C129.428 216.175 129.208 216.009 128.984 215.844C128.997 215.82 129.004 215.793 129.004 215.766C129.004 215.739 128.996 215.712 128.983 215.688L128.927 215.593ZM134.277 220.392C134.169 220.124 134.074 219.851 133.994 219.573C134.228 220.014 134.457 220.452 134.698 220.883C134.577 220.718 134.423 220.554 134.277 220.392ZM133.513 219.253C133.513 219.253 133.509 219.232 133.507 219.22L133.513 219.253ZM133.091 219.145C132.969 219.019 132.838 218.894 132.714 218.777L133.029 218.965C133.044 219.006 133.069 219.071 133.089 219.133L133.091 219.145ZM133.41 218.741L133.323 218.691C133.195 218.31 133.068 217.932 132.948 217.549C133.083 217.821 133.214 218.098 133.345 218.349C133.364 218.484 133.386 218.606 133.407 218.729L133.41 218.741ZM132.831 218.409C132.349 218.133 131.895 217.848 131.436 217.555L131.357 217.477C130.131 216.318 128.986 215.077 127.928 213.761C122.353 203.143 119.245 191.4 118.836 179.412C118.99 179.35 119.141 179.297 119.301 179.243C121.325 187.166 123.812 194.963 126.748 202.594C128.372 206.889 130.011 211.268 131.973 215.487C132.216 216.448 132.505 217.423 132.827 218.388L132.831 218.409ZM131.173 217.832C131.935 218.567 132.689 219.277 133.41 220.045C133.494 220.274 133.565 220.505 133.652 220.733C133.667 220.765 133.692 220.793 133.722 220.812C133.752 220.831 133.788 220.841 133.823 220.84C133.859 220.839 133.894 220.828 133.923 220.808C133.953 220.787 133.976 220.759 133.989 220.726C134.101 220.986 134.228 221.239 134.37 221.484C129.287 217.243 123.861 213.218 119.885 207.955C123.135 211.788 126.938 215.112 131.17 217.815L131.173 217.832ZM134.555 219.804L134.641 219.85C134.654 219.922 134.666 219.989 134.678 220.061C134.63 219.961 134.585 219.873 134.54 219.79L134.555 219.804ZM134.226 219.189C134.056 218.866 133.882 218.545 133.72 218.217C133.552 216.73 133.563 215.228 133.751 213.743C133.875 215.631 134.133 217.507 134.524 219.358L134.226 219.189ZM126.44 179.632C126.436 179.649 126.435 179.668 126.438 179.686C126.441 179.704 126.448 179.722 126.458 179.737C130.689 186.889 133.198 194.93 133.786 203.222C133.87 204.459 133.873 205.684 133.841 206.903C133.732 208.104 133.661 209.299 133.648 210.479C133.53 212.074 133.391 213.668 133.289 215.281C133.246 215.942 133.239 216.605 133.267 217.267C132.943 216.611 132.622 215.946 132.315 215.261C130.769 209.492 130.045 203.543 128.781 197.68C127.351 191.116 124.762 184.913 122.107 178.783C123.583 178.812 125.043 179.094 126.424 179.617L126.44 179.632ZM121.682 178.832C124.717 185.865 127.485 192.883 128.919 200.455C129.732 204.745 130.401 209.057 131.408 213.287C129.972 210.063 128.721 206.728 127.477 203.461C124.379 195.519 121.768 187.396 119.659 179.136C120.314 178.955 120.988 178.848 121.666 178.817L121.682 178.832ZM118.464 179.564C118.875 190.915 121.697 202.049 126.742 212.223C125.903 211.106 125.106 209.951 124.311 208.74C119.274 201.143 114.701 193.008 114.435 183.683C115.221 181.857 116.65 180.386 118.449 179.55L118.464 179.564ZM114.095 184.508C114.511 192.128 117.705 198.959 121.683 205.413C123.566 208.449 125.51 211.558 127.794 214.333C127.995 214.715 128.206 215.095 128.429 215.473C123.987 212.159 120.127 208.125 117.008 203.537C113.762 197.763 111.733 190.732 114.079 184.493L114.095 184.508ZM135.426 221.372C135.318 220.956 135.214 220.54 135.123 220.121C135.533 220.332 135.942 220.542 136.36 220.747C136.53 221.712 136.512 221.876 136.707 222.859C136.208 222.42 135.772 221.915 135.41 221.358L135.426 221.372ZM136.547 196.436C136.504 202.36 135.428 208.183 135.696 214.13C135.79 216.185 135.988 218.233 136.289 220.268C135.862 220.061 135.439 219.848 135.017 219.623C133.604 212.713 134.473 206.135 135.196 198.9C135.74 193.432 135.44 187.99 132.249 183.371C135.402 186.745 136.569 191.469 136.532 196.422L136.547 196.436Z" fill="#D1C7BE"/>
<path d="M139.184 230.298C135.52 230.81 131.871 231.505 128.237 232.285C128.165 232.199 128.07 232.136 127.963 232.103C118.282 229.029 109.241 223.607 99.1537 221.865C91.7284 220.566 81.0415 221.372 77.3936 229.179C73.7458 236.986 80.5631 242.065 87.6719 242.724C97.2348 243.607 106.223 239.018 115.267 236.715C123.203 234.69 133.584 234.872 141.716 233.738C142.56 233.607 140.026 230.18 139.184 230.298ZM104.301 237.262C105.819 237.401 107.344 237.435 108.867 237.366C105.356 238.528 101.827 239.707 98.2622 240.509C100.237 239.439 102.251 238.323 104.299 237.25L104.301 237.262ZM117.411 234.807C117.243 234.837 117.079 234.892 116.917 234.933C113.995 235.423 111.026 235.585 108.067 235.416C109.471 234.773 110.885 234.184 112.323 233.683C114.176 234.207 116.08 234.535 118.001 234.664L117.411 234.807ZM114.2 235.678C112.869 236.069 111.534 236.491 110.202 236.926C108.707 237.088 107.201 237.124 105.7 237.033C105.424 237.016 105.146 236.991 104.868 236.966C105.688 236.548 106.517 236.137 107.35 235.747C109.632 235.876 111.921 235.852 114.2 235.678ZM120.005 234.18C120.005 234.18 119.976 234.185 119.959 234.188C119.841 234.209 119.728 234.229 119.621 234.287L119.205 234.386C117.027 234.376 114.859 234.095 112.75 233.551C113.04 233.452 113.327 233.358 113.619 233.268C116.378 233.78 119.191 233.933 121.988 233.722L120.005 234.18ZM112.115 233.368C111.585 233.213 111.057 233.046 110.53 232.86C110.224 232.745 109.92 232.62 109.599 232.498C110.674 232.717 111.748 232.932 112.822 233.125C112.589 233.201 112.343 233.284 112.098 233.37L112.115 233.368ZM125.546 232.682C121.826 233.711 118.084 233.563 114.362 233.032C117.375 232.113 120.531 231.76 123.673 231.99C124.283 232.231 124.909 232.463 125.533 232.684L125.546 232.682ZM125.832 232.779L125.901 232.802L125.838 232.813C125.835 232.8 125.828 232.789 125.819 232.781L125.832 232.779ZM119.228 230.192C116.013 229.659 112.775 229.317 109.558 228.702C104.403 227.712 99.4048 224.985 94.6016 222.724C95.1388 222.747 95.6676 222.771 96.1818 222.81C104.238 223.459 111.717 227.026 119.216 230.194L119.228 230.192ZM93.6321 222.708C98.3509 224.884 103.206 227.54 108.249 228.824C112.368 229.837 116.657 230.115 120.855 230.887L122.535 231.565C119.469 231.501 116.414 231.957 113.501 232.915C111.746 232.628 109.988 232.269 108.237 231.904C105.398 230.553 102.705 228.828 99.703 227.758C93.6439 225.627 87.1009 226.037 80.7944 226.658C84.0557 223.592 89.1148 222.683 93.6405 222.707L93.6321 222.708ZM79.0407 228.858C79.4191 228.225 79.8645 227.635 80.3691 227.098C89.2784 226.266 97.0462 226.483 105.225 230.801C105.77 231.087 106.311 231.353 106.855 231.613C104.795 231.189 102.735 230.792 100.682 230.554C93.0762 229.699 85.3846 230.063 77.8958 231.634C78.1394 230.655 78.5282 229.719 79.0491 228.857L79.0407 228.858ZM77.7945 232.043C86.2051 230.259 94.8688 230.007 103.371 231.301C104.972 231.554 106.572 231.876 108.167 232.194C109.326 232.698 110.513 233.133 111.722 233.498C110.211 234.051 108.723 234.683 107.249 235.373C104.072 235.229 100.879 234.944 97.6938 234.95C91.4717 234.991 85.28 235.813 79.2629 237.395C78.6213 236.678 78.1553 235.82 77.9019 234.891C77.6485 233.961 77.6146 232.986 77.8029 232.041L77.7945 232.043ZM79.5554 237.726C86.8615 235.847 94.4093 235.082 101.945 235.456C103.493 235.531 105.011 235.637 106.559 235.712C105.76 236.096 104.963 236.493 104.168 236.903C102.48 236.654 100.778 236.519 99.0722 236.498C94.4454 236.614 90.4788 238.778 86.5546 241.035C86.5309 241.048 86.5102 241.066 86.4938 241.087C86.4775 241.109 86.4658 241.134 86.4597 241.16C83.8054 240.637 81.2318 239.465 79.5638 237.725L79.5554 237.726ZM86.966 241.253C92.4805 238.108 97.1543 236.562 103.593 237.205C101.334 238.385 99.1204 239.623 96.9487 240.78C94.3625 241.317 91.7224 241.55 89.0818 241.476C88.3754 241.445 87.6716 241.37 86.9744 241.252L86.966 241.253Z" fill="#D1C7BE"/>
<path d="M93.9339 154.549C90.331 150.563 86.2904 149.898 82.535 154.12C77.0786 160.25 79.8531 169.372 81.8583 176.343C84.7699 186.488 90.2234 195.215 96.4384 203.639C96.5139 203.756 96.6309 203.84 96.7656 203.873C96.9004 203.907 97.0427 203.888 97.1638 203.82C97.5202 206.8 96.2073 208.77 98.0902 211.802C98.5332 212.52 101.997 213.013 101.548 212.284C95.191 201.999 100.06 192.512 100.921 181.684C101.632 172.687 100.24 161.522 93.9339 154.549ZM99.6785 175.548C98.6282 183.621 97.686 191.71 96.8522 199.815C93.3727 192.965 95.2314 185.091 96.505 177.759C97.7268 170.724 97.1043 164.809 95.1193 158.099C96.5636 160.817 97.6561 163.708 98.3702 166.702C99.0905 169.602 99.5287 172.564 99.6785 175.548ZM96.6134 201.657C96.5012 201.242 96.3848 200.827 96.2811 200.411C96.3002 200.401 96.3171 200.388 96.3308 200.371C96.3445 200.355 96.3547 200.336 96.3608 200.315C96.3669 200.294 96.3688 200.273 96.3663 200.251C96.3638 200.23 96.357 200.21 96.3463 200.191C96.2626 200.036 96.1881 199.884 96.1045 199.729C96.0208 199.575 96.0651 199.506 96.045 199.392C96.2714 199.717 96.5013 200.038 96.7354 200.357C96.7435 200.403 96.7811 200.445 96.8061 200.488C96.7652 200.895 96.7194 201.299 96.6777 201.702C96.6579 201.684 96.6363 201.669 96.6134 201.657ZM95.7206 198.167C95.7407 198.281 95.7986 198.388 95.8438 198.497C95.8379 198.464 95.8018 198.431 95.779 198.4C95.7563 198.369 95.7387 198.22 95.7169 198.146L95.7206 198.167ZM94.4665 157.028C94.4521 157.048 94.443 157.072 94.4398 157.097C94.4367 157.122 94.4395 157.147 94.4482 157.17C95.7971 161.501 97.0688 165.837 96.9748 170.417C96.8869 174.688 95.8645 178.872 95.1644 183.064C94.6078 186.349 94.2707 189.698 94.5693 192.941C92.0246 180.261 91.2722 167.287 92.3341 154.4C93.1465 155.179 93.8613 156.055 94.4628 157.007L94.4665 157.028ZM91.9821 154.075C90.7484 168.617 91.8227 183.265 95.1649 197.474C95.0758 197.337 94.9832 197.206 94.8971 197.086C93.8459 193.977 92.6664 190.877 91.5183 187.758C90.4499 183.55 89.9101 179.225 89.9114 174.884C89.9001 167.444 91.1356 160.093 89.7217 152.714C90.5466 153.024 91.3105 153.478 91.9783 154.054L91.9821 154.075ZM89.1034 152.501C89.1625 152.517 89.2147 152.542 89.2738 152.558C90.9304 160.92 89.1516 169.271 89.5557 177.685C89.6722 180.123 89.9653 182.55 90.4328 184.946C86.6478 174.642 83.489 164.201 86.1584 153.181C86.1646 153.151 86.1638 153.12 86.1561 153.09C86.1484 153.06 86.1339 153.032 86.1139 153.009C86.0939 152.986 86.0688 152.967 86.0405 152.955C86.0123 152.943 85.9817 152.938 85.951 152.939C86.907 152.382 88.0409 152.217 89.1165 152.477L89.1034 152.501ZM85.8553 152.987C85.8553 152.987 85.8128 153.016 85.8061 153.052C82.8957 165.041 86.8309 176.344 91.0147 187.508C91.608 189.897 92.3635 192.243 93.2758 194.529C86.7432 183.797 82.6524 171.754 81.2953 159.259C81.2933 159.234 81.2855 159.209 81.2727 159.187C81.2598 159.166 81.2422 159.147 81.2211 159.133C81.229 159.111 81.2352 159.088 81.2394 159.065C81.9016 157.018 83.6356 154.191 85.8684 152.963L85.8553 152.987ZM81.0143 159.952C82.534 173.07 87.0568 185.661 94.2297 196.743C94.4243 197.183 94.6265 197.617 94.8371 198.049C95.055 198.719 95.2693 199.394 95.4746 200.066C90.0063 192.337 85.371 184.291 82.8561 175.019C81.5902 170.348 79.8467 164.787 81.0064 159.932L81.0143 159.952ZM97.0003 202.179L97.0173 201.981L97.0345 202.226L97.0003 202.179ZM98.291 190.15C98.7377 186.127 99.2226 182.108 99.7456 178.092C99.7378 180.634 99.5226 183.171 99.1021 185.678C98.8374 187.176 98.5537 188.665 98.2831 190.13L98.291 190.15Z" fill="#D1C7BE"/>
<path d="M103.184 212.321C100.228 211.718 97.2179 211.42 94.2014 211.432C94.1378 211.292 94.0274 211.179 93.8894 211.113C89.3152 208.857 85.073 205.979 81.2833 202.56C78.6309 200.228 76.0246 198.084 72.8068 196.578C66.001 193.384 55.3975 191.541 48.9965 196.764C43.3309 201.389 45.521 211.474 51.7419 214.498C58.2789 217.692 66.8399 215.4 73.6768 214.542C83.2046 213.358 94.5266 213.67 104.046 215.708C104.896 215.884 104.017 212.492 103.184 212.321ZM84.1808 207.118C83.8711 207.033 83.5676 206.934 83.2656 206.844C80.9821 205.752 78.5692 204.956 76.0853 204.476C69.6395 202.057 63.4873 198.913 57.7468 195.104C61.2527 194.742 64.7961 195.105 68.1574 196.172C68.1662 196.208 68.1855 196.241 68.213 196.267C71.372 199.132 74.7959 201.69 78.4382 203.905C81.1829 205.555 84.1525 206.81 86.831 208.576L87.4061 208.961C87.7171 209.176 88.0169 209.401 88.3141 209.636C88.1063 209.564 87.8992 209.496 87.6845 209.434C86.5949 208.674 85.4596 207.983 84.285 207.364C84.3007 207.343 84.3109 207.318 84.3146 207.292C84.3184 207.266 84.3156 207.24 84.3065 207.215C84.2974 207.19 84.2823 207.168 84.2625 207.151C84.2428 207.133 84.2191 207.121 84.1935 207.115L84.1808 207.118ZM89.6829 211.572C86.9971 210.698 84.2982 209.774 81.577 208.946C83.5676 208.962 85.5478 209.239 87.4667 209.772C88.291 210.321 89.0868 210.912 89.8511 211.543L89.6829 211.572ZM90.3541 211.519C90.3497 211.494 90.346 211.473 90.3422 211.452C89.8296 211.003 89.292 210.585 88.7468 210.172L89.1604 210.33C89.4011 210.54 89.6648 210.732 89.8699 210.961C89.8976 210.989 89.9328 211.007 89.9711 211.015C90.0093 211.022 90.049 211.018 90.0849 211.003C90.1208 210.988 90.1514 210.962 90.1727 210.93C90.1941 210.897 90.2053 210.859 90.2048 210.819C90.3141 210.874 90.4262 210.92 90.5313 210.975C90.5674 210.991 90.6076 210.996 90.6466 210.99C90.6856 210.983 90.7216 210.964 90.7499 210.936C91.0619 211.107 91.3666 211.262 91.706 211.442L90.3541 211.519ZM81.5613 204.554C82.3188 205.212 83.0879 205.837 83.8717 206.446C82.4992 205.719 81.1053 205.017 79.7457 204.239C75.912 202.015 72.3132 199.406 69.0046 196.453C69.761 196.711 70.5102 197.002 71.2523 197.326C75.272 199.078 78.2995 201.717 81.5739 204.552L81.5613 204.554ZM57.3598 195.146C57.3434 195.182 57.3407 195.222 57.3521 195.259C57.3634 195.296 57.3881 195.328 57.4214 195.348C62.6951 198.861 68.3183 201.814 74.2003 204.161C70.6024 203.696 67.0055 203.752 63.501 202.635C59.5564 201.383 55.527 198.79 52.0542 196.551C52.9828 196.124 53.9536 195.795 54.9507 195.571C55.7673 195.384 56.5703 195.242 57.3724 195.144L57.3598 195.146ZM51.6756 196.74C51.6756 196.74 51.6756 196.74 51.6808 196.769C57.1549 200.303 62.9531 203.536 69.5356 204.136C72.191 204.359 74.8266 204.777 77.4209 205.388C78.9939 205.95 80.5874 206.456 82.1974 206.933C83.7005 207.547 85.1492 208.288 86.5284 209.146C84.5823 208.757 82.5984 208.592 80.6153 208.655C77.4963 207.688 74.3044 206.975 71.0711 206.525C62.8811 205.487 55.1212 205.291 47.2278 202.566C47.6832 199.765 49.41 197.904 51.6882 196.737L51.6756 196.74ZM47.1607 203.095C47.1517 203.045 47.1772 202.993 47.1809 202.94C54.1045 205.327 60.9273 206.036 68.2053 206.622C71.9167 206.968 75.5879 207.662 79.1704 208.696C77.0493 208.788 74.9201 208.981 72.8334 209.071C64.3968 209.437 55.9795 209.2 47.6524 207.703C47.1944 206.212 47.0331 204.645 47.1775 203.092L47.1607 203.095ZM47.8155 208.087C54.9159 209.294 62.1185 209.783 69.315 209.547C72.7348 209.47 76.4179 208.969 80.0386 208.9C82.7085 209.659 85.3535 210.523 87.9928 211.379C76.367 209.221 64.9393 215.292 53.2905 213.716C52.5462 213.431 51.8359 213.063 51.1725 212.62C49.6 211.507 48.4237 209.918 47.8155 208.087ZM65.2771 214.232C62.0174 214.603 58.3748 215.015 55.0724 214.258C65.9458 215.001 76.6606 209.804 87.5297 211.678C84.3958 211.926 81.28 212.302 78.2545 212.648C73.9145 213.162 69.5978 213.758 65.2674 214.252L65.2771 214.232Z" fill="#D1C7BE"/>
<path d="M67.3427 179.307C65.6523 178.153 64.4254 179.16 62.3815 178.608C62.334 178.531 62.2721 178.463 62.1992 178.41C52.6754 171.578 45.5371 159.613 33.439 156.965C25.2423 155.176 14.3019 159.905 15.2905 169.789C16.3537 180.417 29.1355 181.927 37.3616 180.564C46.6268 179.021 58.8531 176.422 67.2825 182.186C67.9908 182.687 68.048 179.791 67.3427 179.307ZM55.0005 177.536C49.0576 175.793 43.3819 173.108 37.2162 172.339C30.7989 171.545 24.3298 172.473 17.9781 173.427C16.8956 171.548 16.4859 169.355 16.8171 167.212C24.0196 165.305 31.6101 165.436 38.7462 167.592L39.4229 167.816C40.3358 168.42 41.2501 169.033 42.1602 169.646C46.9691 172.906 52.1264 175.617 57.5358 177.728C56.6918 177.638 55.8447 177.578 55.0005 177.536ZM59.141 177.932C52.5476 175.573 46.7691 172.132 40.9796 168.359C47.4505 170.76 53.455 174.622 59.4455 177.987L59.1551 177.938L59.141 177.932ZM36.8037 159.428C43.6659 162.278 48.7432 167.863 54.056 173.064C49.7557 171.219 45.7793 168.691 42.2796 165.578C39.3932 163.001 36.594 160.377 33.3422 158.334C34.5226 158.598 35.678 158.965 36.7953 159.429L36.8037 159.428ZM32.2373 158.116C36.2456 160.417 39.476 163.642 42.9557 166.658C46.5373 169.761 50.3059 171.883 54.6073 173.732C54.6277 173.742 54.6498 173.747 54.6723 173.748C54.6948 173.748 54.7171 173.744 54.7379 173.735C55.7854 174.759 56.8629 175.756 57.9589 176.71C52.0708 173.336 46.0968 169.647 39.6711 167.503L38.8432 166.962C33.6516 163.53 28.2578 160.526 22.0283 159.764C25.0392 157.933 28.701 157.557 32.2205 158.119L32.2373 158.116ZM19.7304 161.582C20.2765 161.023 20.876 160.52 21.5203 160.08C27.8089 160.709 33.1322 163.683 38.2981 167.067L37.6841 166.879C30.8813 165.049 23.7225 165.022 16.9093 166.8C17.3164 164.824 18.2912 163.011 19.7135 161.585L19.7304 161.582ZM18.2132 173.777C24.4801 172.833 30.8666 171.928 37.1953 172.712C42.8817 173.418 48.137 175.76 53.5603 177.481C52.9383 177.469 52.3261 177.464 51.7197 177.467C47.1975 175.526 42.3123 174.584 37.3965 174.705C32.4806 174.826 27.6495 176.008 23.2317 178.169C22.4643 177.783 21.7318 177.33 21.0424 176.816C19.9132 175.991 18.948 174.961 18.1964 173.78L18.2132 173.777ZM29.6552 179.81C33.8055 178.793 38.0658 178.296 42.3389 178.33C38.0848 179.084 33.7674 180.045 29.6384 179.813L29.6552 179.81ZM44.2499 178.006C38.9467 177.765 33.6387 178.34 28.5108 179.712C26.8389 179.533 25.206 179.087 23.6741 178.391C27.8834 176.376 32.4635 175.256 37.1269 175.1C41.7903 174.944 46.4364 175.757 50.7736 177.486C50.1385 177.498 49.5083 177.513 48.8964 177.534C47.3383 177.601 45.7854 177.758 44.2457 178.007L44.2499 178.006Z" fill="#D1C7BE"/>
<path d="M70.3254 117.182C61.4483 113.009 54.2731 122.742 53.5008 130.581C52.2992 142.746 57.5856 154.903 61.501 166.118C61.536 166.226 61.6025 166.32 61.6918 166.389C61.825 169.799 61.0906 170.355 62.4682 173.546C62.8017 174.33 65.4661 176.608 65.1327 175.823C62.4554 169.612 62.2732 162.607 64.6241 156.27C66.7172 150.684 70.7992 146.052 73.6389 140.866C77.5936 133.57 79.6742 121.571 70.3254 117.182ZM75.5537 126.353C75.6147 126.699 75.6749 127.04 75.7336 127.373C75.7336 127.373 75.7336 127.373 75.7129 127.403C73.567 134.245 70.5095 140.764 66.6234 146.784C67.3758 144.561 68.1656 142.352 69.0111 140.165C70.9122 135.261 73.0728 130.477 75.4259 125.776C75.4678 125.964 75.5104 126.156 75.553 126.349L75.5537 126.353ZM63.6661 155.065C63.5509 155.346 63.4449 155.63 63.3347 155.914C63.1645 154.949 62.9875 153.946 62.8084 152.93C63.1945 152.366 63.5775 151.833 63.9166 151.348C64.4368 150.61 64.9522 149.87 65.463 149.128C64.8327 151.093 64.2335 153.071 63.6653 155.061L63.6661 155.065ZM61.3585 155.254C61.5828 156.719 61.8808 158.171 62.2513 159.605C62.1708 159.984 62.0987 160.362 62.0189 160.745C61.8158 158.929 61.5916 157.117 61.3086 155.315L61.3585 155.254ZM61.6594 154.723C61.9335 154.262 62.219 153.816 62.5068 153.383C62.679 154.483 62.8896 155.554 63.0732 156.595C62.8207 157.327 62.6097 158.072 62.4254 158.822C62.1151 157.455 61.8532 156.093 61.6586 154.719L61.6594 154.723ZM65.6378 148.275C64.914 149.333 63.7952 150.708 62.7144 152.225C61.8965 146.283 61.9479 139.715 65.1532 134.955C67.9843 130.752 72.235 127.864 74.4419 123.219C74.7773 123.869 75.0537 124.548 75.2677 125.247C71.5709 132.581 68.4189 140.179 65.8371 147.979C65.7706 148.069 65.7063 148.172 65.6371 148.271L65.6378 148.275ZM74.219 122.815C71.655 128.484 65.6444 131.717 63.3379 137.518C61.5341 142.04 61.6469 147.597 62.3995 152.676C62.1095 153.096 61.8286 153.52 61.5619 153.949C60.9553 149.139 61.2107 144.26 62.3161 139.541C64.0151 132.361 67.7493 125.977 71.4768 119.704C71.4939 119.67 71.4991 119.631 71.4918 119.593C72.5985 120.48 73.5243 121.573 74.2182 122.811L74.219 122.815ZM71.267 119.424C71.2464 119.428 71.227 119.437 71.2098 119.449C71.1925 119.461 71.1778 119.476 71.1666 119.494C67.424 125.804 63.6342 132.241 61.9285 139.458C60.7774 144.383 60.546 149.48 61.2458 154.492L61.2065 154.564C61.0578 153.721 60.9091 152.878 60.731 152.04C59.7867 147.668 58.4057 143.278 58.6048 138.753C59.0154 136.311 59.5691 133.871 60.1884 131.458C62.0485 126.591 65.2552 122.183 68.3121 118.032C68.3121 118.032 68.3069 118.003 68.304 117.986C69.3689 118.277 70.3723 118.76 71.2647 119.411L71.267 119.424ZM59.7113 149.281C60.1681 151.257 60.5412 153.225 60.8596 155.203C60.4423 155.972 60.1131 156.785 59.8783 157.628C59.3401 156.076 58.8145 154.521 58.3134 152.957C57.6979 148.981 57.683 144.935 58.2692 140.955C58.5197 143.757 59.0006 146.533 59.7069 149.256L59.7113 149.281ZM67.9436 117.884C65.4048 121.335 62.759 124.967 60.8687 128.899C61.8976 125.171 63.0369 121.527 64.0138 118.069C64.0199 118.032 64.0134 117.995 63.9952 117.963C65.2815 117.608 66.6352 117.572 67.9391 117.859L67.9436 117.884ZM63.641 118.069C62.4577 122.225 61.0587 126.657 59.8861 131.194C59.0941 133.182 58.5725 135.268 58.3353 137.396C58.2919 137.838 58.2654 138.278 58.2514 138.715C57.5198 142.694 57.3201 146.754 57.6575 150.786C57.3208 149.664 57.005 148.537 56.7103 147.406C56.7431 147.399 56.7724 147.38 56.793 147.354C56.8136 147.327 56.8243 147.294 56.8234 147.26C57.0969 138.166 57.4633 129.082 59.8643 120.252C59.8643 120.252 59.8576 120.214 59.8546 120.197C60.5801 119.583 61.377 119.059 62.228 118.636C62.6758 118.406 63.1395 118.21 63.6155 118.047L63.641 118.069ZM54.7192 133.852C54.6558 129.043 55.8727 123.873 59.3826 120.593C57.164 129.057 56.7468 137.754 56.4793 146.465C55.399 142.342 54.7994 138.108 54.6925 133.848L54.7192 133.852ZM60.1743 158.397C60.3489 157.563 60.6305 156.755 61.012 155.994C61.3357 158.075 61.6047 160.166 61.8508 162.275C61.8256 162.501 61.8074 162.717 61.7921 162.95C61.2338 161.423 60.6847 159.898 60.1447 158.377L60.1743 158.397ZM64.7724 152.783C64.8749 152.357 64.9698 152.01 65.0063 151.873C65.3829 150.615 65.7819 149.363 66.1901 148.113C67.199 146.631 68.174 145.129 69.0782 143.57C71.8648 138.715 74.1342 133.58 75.8489 128.248C76.5617 137.429 68.7989 145.01 64.7427 152.763L64.7724 152.783Z" fill="#D1C7BE"/>
<path d="M47.5249 144.114C45.5171 142.882 44.8498 144.26 42.7391 143.55C42.7927 143.464 42.8221 143.365 42.824 143.263C42.826 143.162 42.8005 143.062 42.7503 142.974C38.6556 134.946 31.6877 128.767 23.056 126.06C17.461 124.299 4.99118 122.321 1.31762 128.654C-3.48734 136.93 9.81476 142.031 15.5798 142.814C26.9531 144.351 37.6799 141.09 48.1527 147.503C48.881 147.97 48.2514 144.547 47.5249 144.114ZM40.7622 142.959C40.259 142.416 39.7438 141.896 39.2166 141.397L39.5946 141.574C40.0193 141.795 40.452 142.036 40.8842 142.299C41.0356 142.568 41.1787 142.838 41.3224 143.113L40.7622 142.959ZM35.0347 141.922C34.1355 141.346 33.2765 140.728 32.4344 140.107C34.3416 139.908 36.269 140.172 38.054 140.877L38.1146 140.901C38.7873 141.495 39.4399 142.123 40.0711 142.777C38.4131 142.379 36.7306 142.094 35.0347 141.922ZM31.8419 139.672C31.093 139.113 30.3464 138.567 29.5783 138.046C31.3425 138.401 33.0755 138.898 34.7606 139.532C34.416 139.506 34.0703 139.499 33.725 139.51C33.1013 139.537 32.4743 139.596 31.8503 139.671L31.8419 139.672ZM23.5838 127.627C27.7894 129.107 31.6339 131.467 34.8619 134.55C26.6582 130.902 17.5911 128.749 9.08719 126.054C10.2518 125.922 11.4279 125.88 12.4637 125.854C16.2459 125.772 20.0125 126.372 23.5838 127.627ZM5.4329 126.99C6.41695 126.557 7.45933 126.272 8.52649 126.144C8.51592 126.185 8.52179 126.228 8.54279 126.264C8.5638 126.3 8.59826 126.327 8.63862 126.337C17.5628 129.154 27.105 131.371 35.643 135.316C37.0342 136.732 38.2938 138.272 39.4063 139.917C30.013 130.062 15.5909 128.789 2.49994 129.754C3.12684 128.518 4.164 127.541 5.4329 126.99ZM2.35141 130.141C15.9296 129.112 31.0155 130.438 40.3336 141.487C39.6098 141.056 38.8575 140.674 38.0818 140.346C33.3463 136.251 27.5364 133.608 21.3461 132.733C15.1557 131.858 8.84657 132.788 3.17252 135.412C1.98131 133.697 1.72248 131.786 2.35141 130.141ZM3.68993 136.134C3.57562 136.002 3.47742 135.863 3.37572 135.729C8.81648 133.226 14.8476 132.296 20.7898 133.045C26.7321 133.793 32.3494 136.19 37.009 139.965C36.9259 139.937 36.8366 139.922 36.7542 139.897C34.1977 138.785 31.5169 137.987 28.7701 137.519C26.951 136.298 24.8959 135.476 22.7391 135.105C16.9062 134.208 11.1561 136.091 5.71446 138.003C4.97768 137.451 4.29928 136.825 3.68993 136.134ZM6.06996 138.322C12.051 136.225 18.5891 134.163 24.9184 136.007C26.0716 136.35 27.1772 136.837 28.2086 137.457C27.9647 137.426 27.7263 137.377 27.4797 137.355C22.0441 136.818 16.8955 138.548 12.0527 140.832C12.0324 140.841 12.0143 140.855 11.9994 140.872C11.9845 140.889 11.9731 140.908 11.966 140.93C9.85234 140.433 7.85074 139.542 6.06625 138.301L6.06996 138.322ZM12.4767 141.048C17.5769 138.675 22.9997 136.976 28.6888 137.894L28.9982 137.953C29.8502 138.507 30.6733 139.118 31.481 139.74C28.1966 140.167 24.8466 141.132 21.6961 141.9C18.5991 141.959 15.505 141.666 12.473 141.027L12.4767 141.048ZM23.4568 141.855C26.1545 141.223 28.8727 140.609 31.6029 140.21C31.7542 140.183 31.8932 140.185 32.0293 140.17C32.791 140.753 33.5359 141.339 34.3344 141.884C32.3336 141.718 30.3253 141.663 28.3186 141.719C26.7948 141.732 25.1508 141.8 23.4531 141.834L23.4568 141.855Z" fill="#D1C7BE"/>
<path d="M40.1156 120.509C38.8888 118.886 38.027 120.121 36.5539 118.724C36.5551 118.634 36.5392 118.544 36.5071 118.459C34.4258 113.278 31.919 108.28 29.0124 103.514C27.0639 100.381 24.7892 97.3389 21.4457 95.6116C16.7384 93.1815 7.30977 92.8879 4.74039 98.7224C1.85418 105.317 9.39663 109.468 14.6389 110.409C20.5885 111.477 25.9512 113.1 30.6629 115.973C31.5911 116.979 32.7247 117.772 33.9862 118.299C36.094 119.996 37.9845 121.948 39.6147 124.109C40.1204 124.79 40.6298 121.188 40.1156 120.509ZM25.542 107.386C25.3888 107.083 25.251 106.768 25.1054 106.459C26.2382 107.397 27.3119 108.404 28.3205 109.474L28.4088 109.606C27.6242 109.114 26.814 108.675 26.0041 108.261C25.8264 107.967 25.6866 107.665 25.542 107.386ZM21.1439 96.9732C21.2638 97.039 21.3804 97.1097 21.4969 97.1805C21.486 97.2078 21.4829 97.2377 21.488 97.2668C21.4931 97.2958 21.5062 97.3229 21.5259 97.3448C25.5295 101.538 27.9675 106.833 31.1423 111.611C30.6937 111.255 30.2274 110.872 29.7588 110.551C29.3875 110.116 29.0134 109.691 28.6239 109.277C27.1377 107.007 25.4244 104.894 23.5107 102.972C22.6867 100.978 21.909 98.9769 21.1439 96.9732ZM22.8051 102.24C19.9215 99.4902 16.6471 97.1847 13.089 95.3985C15.6787 95.1033 18.2991 95.5601 20.6387 96.7145C21.3454 98.559 22.0529 100.408 22.8051 102.24ZM31.6859 114.866C31.1163 113.59 30.4814 112.344 29.7835 111.133C31.0037 112.604 32.1023 114.172 33.0683 115.822C32.6159 115.494 32.1522 115.175 31.6859 114.866ZM27.1115 107.731C26.3406 106.998 25.5603 106.31 24.7255 105.657C24.4545 105.079 24.187 104.496 23.9313 103.906C25.0699 105.113 26.132 106.391 27.1115 107.731ZM28.879 110.38C29.7006 111.708 30.444 113.084 31.1053 114.499C30.618 114.194 30.1314 113.893 29.6478 113.609C28.9599 112.756 28.2374 111.88 27.4635 111.055C27.0322 110.306 26.636 109.558 26.261 108.833C27.1645 109.297 28.0401 109.813 28.8832 110.379L28.879 110.38ZM33.8457 116.42C32.9613 114.82 31.9567 113.289 30.8406 111.842C31.2555 112.204 31.6619 112.567 32.06 112.931C32.5042 113.557 32.9645 114.176 33.4469 114.773C33.759 115.461 34.0704 116.146 34.3699 116.836L33.8457 116.42ZM29.839 107.563C30.8101 109.309 31.7169 111.084 32.5762 112.884L32.336 112.652C28.8812 107.81 26.4414 102.259 22.4624 97.7883L22.5359 97.8362C25.8356 100.249 27.9119 104.108 29.842 107.58L29.839 107.563ZM12.4222 95.4769C16.4117 97.4128 20.051 100.003 23.1895 103.141C23.4777 103.817 23.7685 104.482 24.0699 105.16C19.0867 101.408 13.2084 99.0337 7.02433 98.2761C6.9991 98.2806 6.98232 98.2835 6.9613 98.2873C7.91943 97.1416 9.19829 96.3105 10.6329 95.9011C11.2207 95.7259 11.8194 95.5899 12.4252 95.4938L12.4222 95.4769ZM6.83177 98.4623C6.83023 98.5068 6.84563 98.5503 6.8749 98.5839C6.90418 98.6175 6.94509 98.6387 6.98934 98.6431C13.3339 99.4161 19.3495 101.91 24.3878 105.856C24.7212 106.566 25.0706 107.27 25.4277 107.967C19.6692 105.279 13.0229 104.465 6.5203 104.416C5.97338 103.508 5.71094 102.457 5.76701 101.398C5.82307 100.34 6.19506 99.3226 6.83473 98.4791L6.83177 98.4623ZM27.792 112.623C25.3582 111.502 22.8083 110.654 20.1889 110.095C16.213 109.157 11.4972 109.211 8.24042 106.451C7.67141 105.972 7.17315 105.415 6.76059 104.795C13.302 104.867 19.9825 105.728 25.7289 108.545C26.0143 109.081 26.308 109.616 26.6107 110.128C25.7164 109.206 24.6885 108.424 23.5618 107.809C20.5733 106.276 16.5335 107.558 13.5748 108.479C13.3445 108.55 13.4095 108.943 13.6409 108.855C17.5115 107.646 21.531 106.594 24.9706 109.382C25.974 110.215 26.9135 111.121 27.7812 112.095C27.9388 112.35 28.1056 112.607 28.2746 112.877C28.1161 112.814 27.9649 112.719 27.795 112.64L27.792 112.623Z" fill="#D1C7BE"/>
<path d="M63.0982 84.0116C60.7097 81.8247 57.4114 81.263 54.348 82.1074C49.9699 83.3141 47.4602 86.4386 45.4437 90.3195C40.2584 100.249 42.8556 111.684 43.7971 122.285C43.7997 122.314 43.8047 122.342 43.812 122.37C42.8501 124.487 41.7859 124.131 40.869 126.257C40.5307 127.043 41.9122 129.986 42.2563 129.208C47.1379 117.875 52.3084 107.37 61.358 98.8021C65.6234 94.7681 68.3139 88.7602 63.0982 84.0116ZM54.2163 83.4999C50.4697 88.8291 49.2379 95.3405 47.6417 101.555C46.7282 105.103 44.9745 109.441 44.8576 113.474C44.6787 114.392 44.5528 115.32 44.4805 116.253C44.4272 115.828 44.3783 115.428 44.3307 115.01C44.4227 111.23 45.472 107.419 45.8937 103.689C46.3857 99.3252 46.6002 94.9362 46.8105 90.5479C48.4706 87.3993 50.847 84.5765 54.2178 83.5084L54.2163 83.4999ZM46.375 91.3724C46.1551 95.9276 45.91 100.487 45.3416 105.008C45.0016 107.702 44.3795 110.394 44.0897 113.053C43.3617 106.466 43.0046 99.7693 45.3864 93.6332C45.6787 92.8818 46.0089 92.1238 46.375 91.3724ZM44.7139 118.364C44.7554 117.37 44.8278 116.379 44.9502 115.401C44.974 115.536 44.9985 115.675 45.0245 115.822C44.8574 116.594 44.8899 117.397 45.119 118.153C45.1294 118.212 45.1391 118.267 45.1487 118.322C45.1539 118.354 45.1689 118.385 45.1917 118.409C45.2145 118.433 45.2441 118.449 45.2764 118.456C45.2987 118.499 45.3235 118.541 45.3506 118.582C45.3312 118.815 45.3159 119.049 45.2999 119.277C45.1795 119.529 45.055 119.781 44.9354 120.037C44.8407 119.476 44.7777 118.922 44.7139 118.364ZM45.7324 118.214L45.7287 118.193C45.7287 118.201 45.7299 118.208 45.7324 118.214ZM45.7855 117.336C45.8659 116.365 45.96 115.375 46.0695 114.373C46.4037 113.652 46.8102 112.968 47.2828 112.329C47.3165 113.149 47.3941 113.967 47.5153 114.779C46.9809 115.78 46.4641 116.791 45.965 117.813C45.9011 117.672 45.8427 117.513 45.7878 117.348L45.7855 117.336ZM47.6479 111.843C48.8044 110.437 50.0998 109.151 51.5145 108.006C50.185 110.005 48.9636 112.076 47.8367 114.192C47.7329 113.417 47.6706 112.637 47.6502 111.856L47.6479 111.843ZM53.202 105.578C52.8833 106.008 52.5928 106.451 52.2882 106.887C50.5957 108.187 49.0377 109.655 47.6373 111.267C47.6357 110.086 47.7293 108.906 47.9172 107.74C48.135 107.476 48.3684 107.226 48.6171 106.965C51.1242 104.44 54.2002 102.438 57.3825 100.768C55.8715 102.269 54.4749 103.881 53.2042 105.591L53.202 105.578ZM47.267 111.723C46.8723 112.227 46.5139 112.758 46.1946 113.312C46.2304 113.023 46.2661 112.735 46.3024 112.424C46.6479 110.72 46.9929 109.259 47.053 109.084C47.113 108.908 47.1357 108.865 47.1733 108.758C47.2109 108.651 47.3503 108.483 47.4445 108.354C47.3007 109.475 47.2422 110.606 47.2692 111.736L47.267 111.723ZM46.1308 110.959C45.9929 111.505 45.8608 112.058 45.7504 112.613C45.64 113.167 45.4312 113.851 45.2306 114.582C45.2145 114.294 45.2025 114.004 45.2039 113.717C45.4121 112.648 45.7353 111.604 46.168 110.605C46.1678 110.726 46.1508 110.851 46.133 110.972L46.1308 110.959ZM60.5014 97.7795C59.7579 98.48 59.0159 99.189 58.2761 99.9106C54.5779 101.728 50.7672 104.038 48.0381 107.049C48.0715 106.87 48.1132 106.688 48.1515 106.512C49.1599 104.568 50.4532 102.787 51.9884 101.228C55.704 97.3953 60.177 94.1941 64.5669 91.1857C64.7677 91.046 64.522 90.7589 64.3247 90.8937C58.7276 94.7017 52.1653 99.0103 48.5529 104.929C50.7666 97.4704 56.6964 91.4433 63.4543 87.0394C63.6566 86.9081 63.4094 86.6126 63.2128 86.7516C55.9327 91.5128 49.6607 98.0827 47.8039 106.287C47.4816 106.939 47.193 107.608 46.9391 108.291C48.7067 98.6465 52.4991 88.9798 60.8283 84.3901C61.0419 84.2742 60.8843 83.9456 60.6684 84.0488C51.9203 88.8689 48.1093 99.143 46.3924 109.222C45.959 109.981 45.6051 110.784 45.3363 111.616C45.861 107.216 47.7681 102.494 48.6848 98.9155C50.0842 93.4525 51.3574 88.0118 54.7199 83.3807C54.7199 83.3807 54.7147 83.3512 54.7117 83.3344C55.1948 83.2099 55.6868 83.1232 56.1832 83.0749C57.9901 82.8786 59.8085 83.3308 61.3154 84.3511C62.8224 85.3714 63.9203 86.8938 64.4142 88.648C65.4872 92.6187 63.1708 95.2658 60.5037 97.7922L60.5014 97.7795Z" fill="#D1C7BE"/>
<path d="M35.9112 94.7215C32.8053 87.2362 28.8632 80.0244 24.9511 72.9333C22.1967 67.9333 15.6911 60.2216 9.90658 66.4577C5.13771 71.6194 8.95102 79.2321 14.2281 82.2137C19.7982 85.3828 26.751 86.0912 32.0327 89.7632C32.104 89.8099 32.1834 89.8431 32.2667 89.861C33.1196 91.6493 34.5628 97.2283 35.3227 99.0547C35.6668 99.8504 36.237 95.5117 35.9112 94.7215ZM26.8185 79.1721C27.7834 81.0059 28.7667 82.8451 29.7121 84.691C29.1909 84.1626 28.5848 83.7258 27.9192 83.3988C27.7915 83.1909 27.6639 82.983 27.532 82.7759C26.5098 80.5065 25.2865 78.3334 23.877 76.2828C23.01 74.1928 22.2631 72.0467 21.5197 69.8957C21.9102 70.3789 22.2703 70.8859 22.598 71.4139C24.1108 73.9204 25.4341 76.5821 26.8185 79.1721ZM29.3388 86.7781L29.056 86.6497C29.0055 86.5108 28.9585 86.367 28.9102 86.2407C28.9332 86.2198 28.9499 86.1929 28.9584 86.163C28.9669 86.1331 28.9669 86.1014 28.9584 86.0714C28.9794 86.1019 29.002 86.1313 29.026 86.1595C29.117 86.3564 29.2195 86.5688 29.3261 86.7803L29.3388 86.7781ZM15.029 80.8554C17.794 80.433 21.5031 80.0051 23.9844 81.6367C24.4338 81.9401 24.8565 82.2815 25.2481 82.657C23.5666 82.4996 21.8725 82.7521 20.3101 83.3929C18.4883 82.6823 16.7229 81.834 15.029 80.8554ZM26.386 83.2344C26.6255 83.2983 26.8617 83.3742 27.0937 83.4618C27.2483 83.6996 27.3996 83.9425 27.5619 84.1747C27.7708 84.5725 27.968 84.9289 28.1612 85.3122C28.2355 85.5121 28.3155 85.7197 28.3868 85.9027C27.805 85.0307 27.1739 84.1928 26.4964 83.3932C26.455 83.3309 26.4201 83.2806 26.3845 83.226L26.386 83.2344ZM25.5732 80.0263C25.3198 79.5233 25.074 79.0146 24.8317 78.501C25.2783 79.2307 25.6983 79.9738 26.0918 80.7304C25.9231 80.4863 25.7546 80.2682 25.5717 80.0179L25.5732 80.0263ZM20.8553 69.1522C21.5198 71.1258 22.2004 73.0924 22.9529 75.0244C20.2818 71.4622 17.0593 68.3513 13.4078 65.8099C15.9252 65.1878 18.7743 66.8893 20.8538 69.1438L20.8553 69.1522ZM12.9466 65.9478C17.0883 68.7882 20.6788 72.3623 23.5415 76.4942C23.8529 77.2521 24.1853 78.0064 24.533 78.7492C20.6374 74.2067 15.6855 70.6963 10.1157 68.5291C10.7281 67.3609 11.729 66.4447 12.9451 65.9393L12.9466 65.9478ZM9.87004 68.9549L9.92661 68.858C15.2792 70.9349 20.0596 74.2652 23.8686 78.5708C23.2168 77.9329 22.5176 77.3456 21.7771 76.8139C18.0264 74.1543 13.3138 72.751 9.06265 71.0881C9.24335 70.3439 9.51402 69.6248 9.86855 68.9465L9.87004 68.9549ZM8.96953 71.4696C12.8655 72.9865 17.0832 74.312 20.6314 76.5118C22.8076 77.8977 24.6774 79.7161 26.1254 81.8547C26.334 82.2265 26.551 82.5968 26.7547 82.9651C26.519 82.8938 26.2799 82.8344 26.0383 82.7872C24.6599 80.9438 23.0304 79.275 21.0687 78.2299C17.7819 76.4796 13.3086 76.3598 9.67961 75.9391C8.92226 74.5759 8.67585 72.9867 8.98488 71.4583L8.96953 71.4696ZM9.94535 76.34C13.3339 76.7249 17.3064 76.9546 20.3799 78.3557C21.9606 79.1233 23.3686 80.2063 24.5176 81.5383C24.1938 81.3007 23.8509 81.0908 23.4922 80.9106C20.9727 79.677 17.58 80.0796 14.9131 80.4933C14.8891 80.4955 14.8659 80.503 14.8451 80.5152C14.8242 80.5273 14.8063 80.5439 14.7924 80.5637C14.7786 80.5835 14.7693 80.606 14.765 80.6298C14.7607 80.6536 14.7616 80.6781 14.7677 80.7015C12.8018 79.5094 11.0159 78.0595 9.94387 76.3315L9.94535 76.34ZM20.8365 83.6001C22.3832 83.0243 24.0497 82.847 25.6833 83.0845C25.8542 83.2673 26.0309 83.4579 26.2137 83.6343C26.7933 84.4624 27.3364 85.3055 27.8261 86.1406C25.6261 85.268 23.3356 84.5461 21.2204 83.7367L20.8365 83.6001ZM30.5633 87.3794C30.1343 86.9131 29.7217 86.4338 29.3257 85.9414C29 85.299 28.6674 84.6665 28.29 84.0506C29.5149 84.8208 30.4409 85.9872 30.9147 87.3565C30.9266 87.3933 30.9522 87.424 30.9861 87.4423C31.02 87.4606 31.0597 87.4651 31.0968 87.4548L31.2371 87.7344C31.014 87.5998 30.7862 87.4879 30.5618 87.371L30.5633 87.3794Z" fill="#D1C7BE"/>
<path d="M58.8351 53.6138C51.8866 52.8308 46.4368 59.7121 43.9811 65.257C39.4058 75.5486 37.1233 77.2812 35.9358 81.807C35.7206 82.6274 36.9484 86.3448 37.1725 85.5011C37.9012 82.8814 38.7629 80.3007 39.7541 77.7693C39.8759 77.7507 39.9887 77.6943 40.0768 77.608C46.5719 71.3204 57.3515 72.4408 63.259 65.5005C67.238 60.8258 65.2264 54.3343 58.8351 53.6138ZM55.1345 64.9813C53.7761 65.4123 52.4491 65.9368 51.1628 66.551C50.1428 67.0351 49.1744 67.5666 48.1783 68.1378C48.643 67.2822 49.0822 66.4049 49.4784 65.5048L49.676 65.2483C53.1068 60.8573 57.1255 55.867 63.348 57.1301C63.5899 57.4775 63.7798 57.8585 63.9116 58.2609C60.122 59.0682 58.0001 62.2287 55.3137 64.7932L55.1345 64.9813ZM43.0401 73.7863L43.2064 73.5744C43.7393 73.3182 44.2526 73.0581 44.7466 72.7942C44.6966 72.8552 44.6566 72.9231 44.6109 72.9833C44.0785 73.2337 43.5574 73.4994 43.0401 73.7863ZM41.7813 72.8433C42.4282 72.3815 43.0793 71.9189 43.7361 71.4641C42.8512 72.5677 41.9134 73.6416 40.9729 74.7246C41.2349 74.0959 41.5044 73.4688 41.7813 72.8433ZM41.363 74.847C42.2865 73.8148 43.2267 72.7797 44.1074 71.6768L42.0757 74.3649C41.8343 74.5205 41.5987 74.6838 41.363 74.847ZM43.7548 72.8735L46.0839 69.8807C46.3873 69.6838 46.6866 69.4876 46.9935 69.2857C46.4604 70.2442 45.8794 71.175 45.2527 72.0747C44.7606 72.3571 44.2605 72.6191 43.7548 72.8735ZM46.7564 69.0232L47.9377 67.5109C47.7449 67.8926 47.5571 68.2779 47.3551 68.6569L46.7564 69.0232ZM47.8372 68.7849C49.6951 67.6416 51.6548 66.6732 53.6911 65.8922C53.9233 65.8078 54.157 65.7318 54.3914 65.66C51.832 67.954 49.0322 69.9634 46.041 71.6532C46.6833 70.7227 47.282 69.7666 47.8372 68.7849ZM62.99 56.6977C58.5719 55.9814 54.9906 58.4125 52.0828 61.6637C51.4281 62.4008 50.7856 63.1574 50.1487 63.9218C51.4827 60.5959 52.743 57.1223 55.9043 55.3825C58.5021 54.7984 61.4046 55.0082 62.99 56.6977ZM54.6934 55.7438C53.0491 56.99 51.909 58.7603 50.998 60.7727C50.2842 62.3547 49.6213 63.9061 48.9273 65.4281C47.7678 66.8671 46.6352 68.336 45.5168 69.8112C46.028 69.08 46.4853 68.3122 46.8848 67.5139C48.486 64.3018 49.1014 60.7854 51.1612 57.8141C51.4814 57.5403 51.8101 57.265 52.153 57.022C52.9312 56.4709 53.7875 56.04 54.6934 55.7438ZM50.0817 58.8217C48.864 60.9881 48.172 63.3574 47.246 65.7028C46.5417 67.4191 45.6119 69.0332 44.4812 70.5024C43.6716 71.0494 42.8727 71.6076 42.0787 72.1692L42.4385 71.3581C44.4026 67.0084 46.6234 62.27 50.0817 58.8217ZM50.4217 70.7808C51.6874 69.6568 53.0778 68.6823 54.5655 67.8767C56.4736 66.8969 58.5343 66.5118 60.6333 66.246C59.1283 67.3388 57.4898 68.2339 55.7578 68.9096C53.9916 69.6123 52.1954 70.1942 50.4217 70.7808ZM61.1862 65.792C56.4062 66.3915 53.1153 68.0845 49.5163 71.0795C48.0842 71.5624 46.6565 72.0706 45.3048 72.6653C45.3755 72.5746 45.4412 72.4805 45.507 72.3863C48.0571 71.0115 50.4758 69.405 52.7327 67.5869C53.5166 66.9356 54.2623 66.2395 54.9662 65.5022C57.671 64.8122 60.7943 64.7745 63.2106 63.5051C62.6607 64.37 61.9774 65.1419 61.1862 65.792ZM64.1524 60.4875C64.1115 61.3102 63.904 62.1159 63.5426 62.8554C61.4874 64.1567 58.907 64.0031 56.6122 64.5599C56.2634 64.6475 55.9212 64.747 55.5789 64.8464C58.0872 62.2307 60.6786 59.3483 63.9933 58.6508C64.1433 59.2496 64.204 59.8673 64.1735 60.4838L64.1524 60.4875Z" fill="#D1C7BE"/>
<path d="M65.8451 33.2082C62.2859 29.0282 56.5283 32.369 53.4168 35.178C48.5972 39.5357 45.6916 44.9382 42.9669 50.7522C42.9212 50.8515 42.9032 50.9613 42.9146 51.0701C41.3506 52.3543 39.9843 53.8993 39.3644 55.8169C39.1042 56.6278 39.6948 59.5099 39.9542 58.6948C41.1417 55.0297 45.8855 50.3897 48.9848 48.6913C52.7676 46.616 56.7812 45.5301 60.7085 43.8813C64.5302 42.2728 69.5 37.4887 65.8451 33.2082ZM61.3542 42.1591L60.5542 42.5392C58.2583 43.0393 55.9903 43.6598 53.7594 44.398C54.7411 43.6468 55.7227 42.8956 56.691 42.1424L57.5468 41.4394C59.8011 40.7064 62.1099 40.1539 64.4517 39.7872C64.4673 39.7847 64.4823 39.7791 64.4957 39.7708C64.5091 39.7625 64.5207 39.7515 64.5299 39.7387C63.652 40.7579 62.5694 41.5797 61.3527 42.1507L61.3542 42.1591ZM47.2439 48.1855L47.2365 48.1433C47.6288 47.7133 48.0254 47.2826 48.4079 46.8457C49.4256 46.4054 50.455 45.9906 51.4962 45.6013C50.8572 46.0834 50.2118 46.5536 49.5798 47.0259C48.8087 47.3734 48.0366 47.7559 47.2634 48.1733L47.2439 48.1855ZM46.226 47.0348C46.2548 47.0362 46.2835 47.0312 46.3101 47.0199C46.6964 46.7519 47.0863 46.5049 47.5 46.2451C47.4385 46.4124 47.3826 46.5874 47.3211 46.7548L47.0551 47.0407C46.6896 47.2051 46.3298 47.3773 45.9657 47.5502L46.226 47.0348ZM64.2047 33.567C61.4034 34.1171 58.6981 35.0759 56.175 36.413C57.8223 34.4707 59.8188 33.058 62.9389 32.9774C63.3951 33.1003 63.8289 33.2953 64.2242 33.5549L64.2047 33.567ZM64.5946 33.8851C65.171 34.4239 65.5324 35.1543 65.6115 35.9401C60.6887 36.2213 56.089 38.8754 52.0823 42.2378C52.3703 41.8306 52.6682 41.4303 52.9498 41.0112C53.8499 39.6745 54.6805 38.337 55.5967 37.1409C58.4008 35.5575 61.4468 34.4491 64.6119 33.8603L64.5946 33.8851ZM49.9897 44.0891L49.4207 44.6241C49.0263 44.8457 48.6599 45.0538 48.288 45.2802C49.3096 42.8136 50.6927 40.5528 52.9181 38.8651C53.3773 38.519 53.8689 38.1845 54.3796 37.8597C52.8841 39.9013 51.4799 42.018 50.0092 44.0769L49.9897 44.0891ZM47.9607 46.6202L48.4228 46.1432L48.0648 46.5715L47.9607 46.6202ZM48.3627 45.68L47.998 46.0703C48.0213 46.0053 48.0495 45.9439 48.0769 45.8782C48.1758 45.7999 48.2755 45.7258 48.3815 45.6636L48.3627 45.68ZM45.6931 48.0937L46.3737 47.7738C45.9778 48.2087 45.5896 48.638 45.2183 49.0642L45.6931 48.0937ZM47.0278 47.6237L46.927 47.937C46.7569 48.1279 46.5917 48.3221 46.4174 48.5137C46.3962 48.5359 46.3808 48.5629 46.3724 48.5924C46.364 48.6219 46.3629 48.653 46.3692 48.683C46.141 48.8146 45.9185 48.9538 45.6959 49.093C46.1403 48.5974 46.5905 48.1021 47.0466 47.6073L47.0278 47.6237ZM52.8057 45.1357C54.7455 44.4589 56.7128 43.8642 58.7148 43.3678C56.2095 44.4268 53.6672 45.3011 51.1672 46.3417C51.7352 45.9243 52.2851 45.5274 52.8244 45.1193L52.8057 45.1357ZM52.4939 44.8429C51.3103 45.2602 50.1374 45.7134 48.9751 46.2023C49.4414 45.6507 49.9027 45.0955 50.3534 44.5292C52.2626 43.4922 54.2475 42.6017 56.291 41.8652C55.0463 42.8454 53.7827 43.8419 52.5127 44.8265L52.4939 44.8429ZM50.9045 43.8191L51.0424 43.6426C55.3007 39.8142 60.3149 36.6089 65.6482 36.3205C65.669 36.4385 65.6417 36.5781 65.6345 36.7098C63.3198 36.8093 61.4416 37.836 59.5307 39.3161C58.7686 39.9113 58.008 40.5148 57.2474 41.1184C55.0736 41.845 52.9604 42.7423 50.9275 43.802L50.9045 43.8191ZM52.1969 38.1924C54.1304 36.1519 56.459 33.82 59.1992 33.0108C59.9461 32.7941 60.7233 32.7011 61.5003 32.7355C59.253 33.0593 57.2155 34.2337 55.8061 36.0173C55.5218 36.3717 55.2466 36.7288 54.9714 37.086C54.1821 37.5465 53.4167 38.0471 52.6782 38.5857C50.2383 40.3852 48.7982 42.9125 47.7355 45.6384C47.3463 45.8896 46.9578 46.1451 46.5708 46.4089C48.0683 43.4187 49.9676 40.6486 52.2158 38.1761L52.1969 38.1924ZM65.4492 37.9205C65.2738 38.5429 64.977 39.1241 64.5759 39.6306C64.5883 39.6002 64.5924 39.5671 64.5878 39.5346C64.5831 39.5021 64.5699 39.4714 64.5495 39.4458C64.529 39.4201 64.5021 39.4004 64.4715 39.3887C64.4409 39.377 64.4077 39.3736 64.3754 39.379C62.3141 39.7094 60.2785 40.1845 58.2839 40.8009C60.4694 38.9854 62.7134 37.2553 65.6124 37.1005C65.5793 37.3709 65.531 37.6392 65.4679 37.9041L65.4492 37.9205Z" fill="#D1C7BE"/>
<path d="M34.5306 57.2429C33.7828 53.7147 33.3607 49.6249 31.7429 46.3501C30.2607 43.3774 25.3306 38.0612 21.5252 40.3275C17.3787 42.8234 18.4065 50.0535 21.3022 53.003C25.1537 56.9229 30.6651 58.8982 34.3354 63.1673C34.3354 63.1673 34.37 63.1917 34.3856 63.2063C34.7867 65.309 35.1755 67.4399 35.5073 69.5679C35.656 70.411 37.4548 68.7376 37.3146 67.893C36.6888 63.8521 35.3872 61.2649 34.5306 57.2429ZM33.3402 60.1044C32.9607 59.5917 32.5884 59.0619 32.2232 58.5148C32.1206 57.933 32.018 57.3512 31.9154 56.7695C32.3246 57.2075 32.6975 57.6782 33.0306 58.1768C33.1571 58.8124 33.2603 59.4549 33.3402 60.1044ZM32.4213 59.4666L32.3902 59.4373L32.3857 59.412C32.3857 59.412 32.4099 59.4512 32.4213 59.4666ZM32.5613 56.2774C32.6571 56.5996 32.7361 56.9247 32.8151 57.2499C32.4948 56.8426 32.1487 56.4564 31.7789 56.0937C31.6786 55.5246 31.5782 54.9554 31.4437 54.4141C31.8614 55.0069 32.2349 55.6297 32.5613 56.2774ZM31.2533 53.5305C31.1374 53.0206 31.0165 52.5073 30.8887 52.0039C31.3031 52.8308 31.6714 53.68 31.9919 54.5478C31.7563 54.1952 31.5101 53.8561 31.2533 53.5305ZM31.3114 55.6545C30.7397 55.1433 30.1362 54.6689 29.5046 54.2344C28.5808 52.7324 27.6494 51.2362 26.6574 49.7897C28.2603 50.8734 29.6925 52.1915 30.9061 53.7004C31.05 54.3444 31.187 54.9984 31.3114 55.6545ZM31.4214 56.2785C31.5061 56.7591 31.5909 57.2397 31.6756 57.7203C31.0879 56.8459 30.5449 55.9549 29.9929 55.0611C30.5037 55.4341 30.9906 55.839 31.4508 56.2733L31.4214 56.2785ZM28.8522 44.4126C31.0342 46.9532 31.5977 50.1488 32.3083 53.3184C32.5263 54.2841 32.7358 55.2512 32.9454 56.2184C32.9435 56.197 32.9397 56.1759 32.9342 56.1551C32.3518 54.1251 31.5118 52.1783 30.4346 50.3625C29.4992 47.3195 28.1401 44.4555 25.8909 42.0006C27.0238 42.6087 28.0315 43.4266 28.8606 44.4111L28.8522 44.4126ZM25.1923 41.7022C25.1811 41.7287 25.1779 41.758 25.1829 41.7864C25.1879 41.8148 25.201 41.8412 25.2205 41.8624C27.168 43.917 28.6489 46.3696 29.5618 49.0516C27.5869 46.155 25.0268 43.7066 22.0478 41.8654C22.5242 41.5942 23.0572 41.4381 23.6045 41.4095C24.1518 41.3809 24.6983 41.4806 25.2007 41.7007L25.1923 41.7022ZM21.1611 42.6389C21.3323 42.4419 21.5229 42.2627 21.73 42.104C25.1586 44.1943 28.0248 47.0948 30.0777 50.5515C30.312 51.3144 30.5182 52.0909 30.7084 52.8746C29.3561 51.3541 27.7936 50.0356 26.0687 48.9589C24.5945 46.835 22.8354 44.9248 20.841 43.2823C20.8098 43.2588 20.7706 43.2486 20.7319 43.2537C20.8574 43.0345 21.004 42.8281 21.1695 42.6375L21.1611 42.6389ZM20.5893 43.5266C20.5938 43.5519 20.5975 43.573 20.6271 43.5938C22.36 45.0068 23.9094 46.6321 25.2387 48.4316C23.5696 47.4611 21.8274 46.6231 20.0281 45.925C20.0414 45.0929 20.2358 44.2738 20.5977 43.5251L20.5893 43.5266ZM20.0379 46.3493C22.0493 47.1338 23.9847 48.1022 25.8195 49.242C26.86 50.6929 27.8211 52.21 28.7803 53.7405C26.3376 52.1803 23.5656 50.9652 21.1983 49.7091C21.1682 49.6931 21.1346 49.6849 21.1006 49.6852C21.0666 49.6854 21.0331 49.6942 21.0033 49.7106C20.9735 49.7271 20.9483 49.7508 20.9299 49.7795C20.9116 49.8082 20.9006 49.841 20.898 49.875C20.392 48.7644 20.1028 47.5671 20.0463 46.3478L20.0379 46.3493ZM26.4798 55.0764C25.2188 54.1946 23.7284 53.3881 22.5854 52.3638C21.8849 51.691 21.3245 50.8856 20.9364 49.9943L20.9416 50.0238C23.5101 51.3879 26.6165 52.705 29.2047 54.5003C30.0629 55.9008 30.9253 57.3005 31.8372 58.6611L31.9115 59.0827C30.1916 57.6385 28.3117 56.3443 26.4714 55.0778L26.4798 55.0764ZM33.7905 60.7162C33.7456 60.2894 33.6923 59.8641 33.6263 59.4411C33.7074 59.9006 33.8186 60.3591 33.9122 60.8164L33.7905 60.7162Z" fill="#D1C7BE"/>
<path d="M41.1312 42.1605C42.0988 36.9041 41.2506 31.1594 39.6749 26.108C38.6836 22.9444 36.718 17.501 33.002 16.5131C27.9637 15.1803 26.584 21.6395 27.9137 25.0999C29.1836 28.3926 31.9496 30.9998 34.1574 33.662C35.7775 35.5375 37.2162 37.5632 38.4538 39.7116C38.4805 39.8633 38.4779 40.0203 38.4829 40.1716C38.4879 40.3228 38.6481 40.3467 38.7577 40.2796C39.6637 42.0498 39.3763 46.5169 39.6733 48.5945C39.7925 49.4428 42.0539 46.6316 41.9354 45.7874C41.7649 44.5995 41.4762 43.4316 41.0736 42.3011C41.0982 42.2567 41.1175 42.2095 41.1312 42.1605ZM31.2797 18.2513C34.9044 23.691 37.2479 29.8852 38.1324 36.3647C36.7271 33.2707 34.9251 30.3736 32.7719 27.7468C31.5908 24.856 30.6986 21.8551 30.1085 18.7881C30.4515 18.541 30.8409 18.3659 31.2532 18.2733L31.2797 18.2513ZM38.7786 37.62L38.6452 37.4044C38.5991 37.143 38.5825 36.8765 38.5455 36.6178C38.6164 36.9705 38.6927 37.3048 38.7689 37.639L38.7786 37.62ZM31.6841 18.1843C32.202 18.1419 32.7231 18.2085 33.2141 18.3797C34.0071 20.648 34.7541 22.9259 35.4552 25.2133C34.4065 22.7682 33.1412 20.4221 31.6744 18.2034L31.6841 18.1843ZM37.2518 35.4028C36.836 34.8473 36.4075 34.294 35.9664 33.7429C35.8385 33.5829 35.7029 33.4286 35.57 33.2651C34.9415 32.1588 34.2869 31.0528 33.7315 29.8945C33.6083 29.638 33.4934 29.38 33.3751 29.1271C34.8612 31.0971 36.1561 33.205 37.2422 35.4219L37.2518 35.4028ZM39.9783 39.7035C40.002 39.6854 40.0201 39.661 40.0305 39.633C40.0409 39.605 40.0432 39.5746 40.0371 39.5454C38.7574 33.3203 37.4763 27.0955 36.1938 20.8709C37.3639 22.5903 38.127 24.8769 38.6701 26.998C38.9575 30.815 39.4621 34.6127 40.1815 38.3724C40.1648 38.8926 40.134 39.4066 40.0907 39.9228C40.0454 39.8873 40.011 39.8152 39.9717 39.7395L39.9783 39.7035ZM40.1615 36.1938C39.7977 34.0323 39.5028 31.8602 39.2769 29.6774C39.3215 29.9303 39.3639 30.1706 39.4047 30.4025C39.7996 32.3293 40.0513 34.2827 40.1578 36.2466L40.1615 36.1938ZM35.6608 20.1347L39.497 38.793L39.3898 38.6033C37.8748 31.807 35.9691 25.1039 33.6824 18.5275C33.9802 18.6674 34.2639 18.8357 34.5296 19.0301C34.9507 19.3689 35.3293 19.7575 35.6571 20.1875L35.6608 20.1347ZM28.616 21.5594C28.6676 20.5938 29.0796 19.6832 29.7702 19.0086C30.288 21.6529 31.0271 24.249 31.9796 26.7694C30.9998 25.6381 29.9318 24.5224 28.788 23.42C28.6362 22.8301 28.5769 22.2202 28.6123 21.6122L28.616 21.5594ZM30.9629 27.6659C30.1386 26.5958 29.4741 25.4112 28.9903 24.1493C30.2041 25.3319 31.352 26.5807 32.4287 27.8899C32.5488 28.1774 32.6688 28.4648 32.793 28.7515C33.2524 29.7833 33.7746 30.778 34.3198 31.7555C33.1623 30.4773 31.9953 29.1443 30.9592 27.7187L30.9629 27.6659Z" fill="#D1C7BE"/>
<path d="M49.8911 19.4599C51.4873 15.0881 53.2237 -2.72285 43.6926 0.557375C40.0135 1.81901 40.7158 5.99857 42.0448 8.7418C44.4121 13.6362 50.0334 18.7176 48.765 24.7269C48.5872 25.5624 49.9038 25.678 50.088 24.8543C50.404 23.1458 50.2784 21.3842 49.7233 19.7372C49.8013 19.6601 49.859 19.5648 49.8911 19.4599ZM48.3699 3.80127C49.0457 7.6334 49.5683 11.4578 49.0516 15.3132C48.8383 14.8228 48.599 14.3441 48.3348 13.8791C48.1513 13.1334 47.9847 12.3847 47.8096 11.6375C47.8096 11.6375 47.833 11.5986 47.8278 11.569C47.2801 8.78701 47.2971 5.92337 47.8778 3.14911C48.054 3.36147 48.2183 3.58025 48.3699 3.80127ZM48.7997 15.6793C48.848 15.8055 48.892 15.9325 48.936 16.0595L48.923 16.1575L48.7997 15.6793ZM49.2105 17.2717C49.177 17.082 49.1149 16.9017 49.0646 16.7149C49.0933 16.7143 49.1217 16.7093 49.1488 16.7001C49.1725 16.835 49.225 16.9605 49.2609 17.115L49.2105 17.2717ZM49.4486 16.3603C49.4271 16.2381 49.3642 16.1275 49.3224 16.0131C49.9519 12.2073 49.5262 8.46585 48.9037 4.68954C49.0213 4.91565 49.126 5.14825 49.2173 5.38624C50.4667 8.80859 50.3295 12.7754 49.4494 16.3645L49.4486 16.3603ZM47.5702 2.78166C47.1684 4.58559 47.0005 6.43418 47.0704 8.28163C46.5956 6.03111 46.1635 3.7774 45.7804 1.50635C46.4711 1.78719 47.0853 2.22865 47.5724 2.79432L47.5702 2.78166ZM45.3806 1.40295C45.9955 5.11106 46.7476 8.78625 47.609 12.4422C47.5933 12.3537 47.5448 12.2753 47.5082 12.1905C46.1206 8.91853 43.8275 6.21489 42.9187 2.73249C43.0002 2.57782 43.0963 2.43133 43.2056 2.29501C43.455 1.9645 43.7892 1.70817 44.1727 1.55328C44.5561 1.3984 44.9744 1.35082 45.3829 1.41561L45.3806 1.40295ZM42.6762 3.27514C43.4207 5.75196 44.8104 7.8064 46.0421 10.0713C46.3237 10.5867 46.5717 11.1081 46.8128 11.6393C45.5714 10.0326 44.1297 8.54369 42.8033 7.06926C42.45 5.90141 42.2756 4.44553 42.6784 3.2878L42.6762 3.27514ZM45.306 11.453C44.5394 10.4035 43.8481 9.30082 43.2372 8.15332L43.1941 8.0566C44.7513 9.65174 46.1802 11.3678 47.4675 13.1887C47.953 14.4824 48.3612 15.8039 48.6899 17.1461C47.7077 15.1696 46.5772 13.2707 45.3082 11.4656L45.306 11.453Z" fill="#D1C7BE"/>
<path d="M72.3185 19.6435C70.9192 16.8953 67.2001 16.3078 64.4856 16.8691C58.8673 18.0249 55.4126 23.4112 51.6888 27.2714C50.3596 27.8577 49.0763 28.5431 47.8497 29.322C47.1402 29.7731 47.708 30.9771 48.4174 30.526C49.6354 29.7509 50.9113 29.0711 52.2336 28.4925C52.2739 28.4779 52.3128 28.4594 52.3496 28.4373C54.6517 27.45 57.0638 26.743 59.5343 26.3315C62.5615 25.7977 65.7753 25.8309 68.6975 24.8244C71.0714 24.0277 73.7587 22.4758 72.3185 19.6435ZM69.7167 23.2537C66.2051 23.3513 62.8653 24.4966 59.3961 24.9822C59.3709 24.9867 59.3583 24.9889 59.3373 24.9926L59.3163 24.9963C59.0346 25.046 58.7571 25.0949 58.4754 25.1446C62.4344 23.5771 66.4405 22.3013 70.7437 22.3902C70.4545 22.7362 70.1069 23.0285 69.7167 23.2537ZM56.2716 25.6766C55.6751 25.834 55.0907 26.0109 54.5043 26.2012C54.6839 26.1131 54.8599 26.0299 55.0345 25.9382C55.0616 25.9452 55.0899 25.9463 55.1175 25.9414C55.145 25.9366 55.1712 25.9259 55.1943 25.91L55.5093 25.6806C57.4866 24.6017 59.3229 23.3129 61.3539 22.3419C64.4682 20.8578 67.978 20.4219 71.3613 21.0989C71.3275 21.4394 71.2128 21.7667 71.0267 22.0534C65.8032 21.8833 61.0148 23.6884 56.2506 25.6803L56.2716 25.6766ZM56.8029 23.6008C60.9058 21.6689 64.2263 18.9882 68.6989 18.3908C69.0238 18.5156 69.3396 18.6633 69.6438 18.8328C64.2272 19.288 59.7044 22.2068 55.3123 25.3502L55.0944 25.4669C55.6512 24.8384 56.2088 24.2141 56.7819 23.6045L56.8029 23.6008ZM70.1876 19.1629C70.7483 19.5118 71.1553 20.0619 71.3258 20.7009C68.5337 20.1503 65.6477 20.3357 62.9499 21.2389C62.2359 21.4961 61.5393 21.799 60.8641 22.1457C63.7327 20.5402 66.7436 19.3485 70.1666 19.1666L70.1876 19.1629ZM67.316 18.0218L67.4995 18.0547C63.8978 18.9201 60.9323 21.0817 57.556 22.8072C58.5363 21.7969 59.6083 20.8803 60.7581 20.0692C62.6473 18.7363 64.9138 17.7238 67.2949 18.0255L67.316 18.0218ZM63.0061 24.6804C64.9304 24.1998 66.886 23.855 68.8587 23.6484C67.1854 24.3129 64.9835 24.536 62.9851 24.6841L63.0061 24.6804Z" fill="#D1C7BE"/>
</svg>
