<svg width="201" height="358" viewBox="0 0 201 358" fill="none" xmlns="http://www.w3.org/2000/svg">
<path d="M36.6862 187.532C50.9523 268.439 120.76 325.893 200.023 327.65L199.567 325.067C121.713 323.096 53.2382 266.592 39.2192 187.086C29.8199 133.78 46.9535 81.8244 81.1141 44.7865C103.22 17.8784 142.249 -3.10328e-05 142.249 -3.10328e-05C68.3676 28.7606 22.4184 106.616 36.6862 187.532Z" fill="#D1C7BE"/>
<path d="M192.402 323.457C177.27 323.889 160.041 313.179 151.653 300.895C146.446 293.264 144.003 284.064 141.843 275.192C139.756 266.521 138.172 257.736 137.1 248.881C136.932 247.51 134.825 247.887 134.992 249.253C136.227 259.492 138.153 269.635 140.759 279.614C142.966 288.005 145.702 296.49 150.914 303.541C159.842 315.538 176.934 326.027 192.183 325.588C193.544 325.55 193.768 323.417 192.383 323.46L192.402 323.457Z" fill="#D1C7BE"/>
<path d="M193.953 323.355C191.641 305.189 185.835 286.991 174.526 272.343C165.033 260.038 151.697 251.663 136.775 247.592C135.453 247.235 134.7 249.24 136.033 249.605C150.653 253.576 163.596 261.682 172.892 273.732C183.971 288.081 189.579 305.936 191.845 323.726C192.018 325.096 194.13 324.719 193.953 323.355Z" fill="#D1C7BE"/>
<path d="M191.84 322.863C166.366 313.626 147.75 291.23 139.67 265.797C139.382 264.89 137.895 265.128 138.191 266.058C146.435 292.002 165.306 314.835 191.321 324.271C191.508 324.34 191.715 324.331 191.896 324.248C192.076 324.164 192.217 324.013 192.286 323.826C192.354 323.639 192.346 323.433 192.263 323.252C192.179 323.071 192.027 322.931 191.84 322.863Z" fill="#D1C7BE"/>
<path d="M192.903 322.027L163.092 289.228C158.276 283.925 153.393 278.654 148.648 273.309C143.364 267.362 138.291 260.709 138.354 252.365C138.358 251.381 136.866 251.261 136.854 252.226C136.749 266.273 149.905 276.95 158.565 286.483L191.756 323C192.403 323.712 193.551 322.748 192.898 322.028L192.903 322.027Z" fill="#D1C7BE"/>
<path d="M191.926 321.088C191.493 302.705 179.894 285.297 166.961 272.984C162.127 268.382 156.717 264.339 151.574 260.087C146.742 256.084 141.962 251.542 136.591 248.253C135.77 247.754 134.904 248.978 135.731 249.486C140.528 252.419 144.826 256.432 149.13 260.002C153.805 263.865 158.647 267.586 163.206 271.577C177.067 283.712 189.98 301.91 190.431 320.949C190.451 321.904 191.948 322.052 191.93 321.088L191.926 321.088Z" fill="#D1C7BE"/>
<path d="M193.122 320.372C187.554 306.505 178.921 293.252 167.958 283.043C156.995 272.835 142.974 264.09 137.157 249.564C136.793 248.645 135.44 249.312 135.795 250.207C141.179 263.615 153.507 272.276 164.001 281.496C176.209 292.33 185.715 305.864 191.761 321.02C192.12 321.914 193.477 321.267 193.123 320.376L193.122 320.372Z" fill="#D1C7BE"/>
<path d="M180.786 327.313C166.124 336.837 150.418 344.65 133.975 350.598C125.267 353.74 116.21 356.266 106.949 354.149C98.7793 352.283 91.5586 347.763 84.5405 343.36C83.3743 342.632 82.1386 344.383 83.3104 345.115C90.3221 349.509 97.5441 354.009 105.659 356.042C114.057 358.144 122.313 356.708 130.398 354.078C148.667 348.145 166.058 339.354 182.147 328.925C183.299 328.177 181.905 326.546 180.757 327.289L180.786 327.313Z" fill="#D1C7BE"/>
<path d="M84.1613 344.64C100.751 338.305 116.895 330.417 134.023 325.599C148.592 321.501 166.834 320.073 179.444 330.05C180.53 330.91 181.745 329.153 180.674 328.296C168.567 318.716 151.134 319.127 136.884 322.637C118.358 327.196 101.019 335.919 83.2587 342.701C81.9731 343.193 82.8948 345.129 84.1804 344.637L84.1613 344.64Z" fill="#D1C7BE"/>
<path d="M177.688 328.213C151.189 339.351 123.717 343.67 95.2443 338.819C94.2912 338.658 94.1561 340.151 95.1052 340.317C123.822 345.214 151.613 340.81 178.332 329.573C179.22 329.2 178.578 327.844 177.688 328.213Z" fill="#D1C7BE"/>
<path d="M179.428 328.368C161.232 335.753 143.139 343.911 123.945 348.445C117.628 349.984 111.065 350.222 104.654 349.144C98.3288 348.166 91.2721 346.919 85.6378 343.697C84.806 343.22 83.9358 344.449 84.7771 344.925C89.8751 347.839 96.0019 349.112 101.726 350.167C108.258 351.368 114.62 351.996 121.149 350.609C141.587 346.268 160.791 337.546 180.065 329.725C180.984 329.356 180.313 328.006 179.417 328.365L179.428 328.368Z" fill="#D1C7BE"/>
<path d="M176.481 328.003C151.21 328.175 125.241 329.019 100.841 336.221C99.9055 336.494 100.166 337.971 101.102 337.698C125.375 330.534 151.202 329.665 176.341 329.497C177.323 329.486 177.444 328 176.48 327.999L176.481 328.003Z" fill="#D1C7BE"/>
<path d="M124.938 309.03C102.996 315.695 71.7448 319.161 53.3809 302.102C52.3857 301.171 50.7382 302.568 51.746 303.486C70.7397 321.132 102.481 318.076 125.312 311.151C126.615 310.754 126.261 308.64 124.94 309.04L124.938 309.03Z" fill="#D1C7BE"/>
<path d="M53.675 303.686C65.284 299.665 77.6181 298.17 89.851 299.299C102.084 300.428 113.933 304.157 124.604 310.234C125.797 310.913 127.032 309.162 125.835 308.479C114.844 302.203 102.634 298.355 90.0273 297.195C77.4205 296.034 64.7101 297.587 52.7534 301.75C51.4516 302.206 52.378 304.141 53.675 303.686Z" fill="#D1C7BE"/>
<path d="M121.518 308.041C99.1945 311.82 75.5728 314.231 55.3103 301.914C54.4847 301.415 53.6184 302.639 54.4496 303.141C75.0653 315.677 99.0439 313.365 121.778 309.519C121.974 309.484 122.149 309.373 122.263 309.21C122.377 309.047 122.422 308.845 122.387 308.65C122.353 308.454 122.242 308.28 122.079 308.166C121.916 308.051 121.714 308.007 121.518 308.041Z" fill="#D1C7BE"/>
<path d="M120.233 307.28C103.033 305.905 85.9941 302.974 69.3257 298.523C68.3964 298.274 67.8718 299.679 68.8058 299.927C85.5941 304.42 102.757 307.38 120.082 308.771C121.046 308.851 121.19 307.357 120.226 307.271L120.233 307.28Z" fill="#D1C7BE"/>
<path d="M120.092 307.349C110.464 308.811 100.558 308.646 90.86 308.013C81.0329 307.372 69.5983 306.848 61.5184 300.608C60.7501 300.016 59.895 301.248 60.6577 301.835C68.631 308.001 79.7114 308.72 89.4221 309.426C99.6555 310.166 110.163 310.372 120.333 308.825C121.291 308.681 121.035 307.227 120.073 307.352L120.092 307.349Z" fill="#D1C7BE"/>
<path d="M136.046 309.484C122.351 302.818 111.09 292.036 103.842 278.65C100.145 271.799 97.8547 264.528 96.3018 256.92C94.7197 249.175 93.3776 241.452 89.3979 234.503C88.6982 233.324 86.7666 234.225 87.4602 235.424C92.2918 243.83 93.0887 253.398 95.3813 262.635C97.1636 269.815 100.033 276.681 103.89 282.995C111.416 295.304 122.323 305.194 135.312 311.49C136.555 312.092 137.287 310.081 136.06 309.482L136.046 309.484Z" fill="#D1C7BE"/>
<path d="M136.199 309.015C134.264 293.185 132.146 276.489 123.335 262.781C115.252 250.218 103.269 240.479 89.7229 234.338C88.4658 233.763 87.7295 235.78 88.9802 236.346C102.458 242.46 114.652 252.421 122.324 265.195C130.297 278.471 132.244 294.308 134.091 309.386C134.259 310.757 136.366 310.381 136.199 309.015Z" fill="#D1C7BE"/>
<path d="M135.393 307.398C119.28 286.369 102.048 263.65 94.8829 237.771C94.6243 236.834 93.1455 237.095 93.4042 238.032C100.648 264.192 117.967 287.126 134.25 308.366C134.838 309.132 135.98 308.164 135.393 307.398Z" fill="#D1C7BE"/>
<path d="M134.887 309.163C125.635 303.497 118.95 292.81 113.053 283.915C106.85 274.567 101.275 264.819 95.9222 254.963C95.4637 254.12 94.1054 254.757 94.5608 255.61C99.9778 265.578 105.63 275.431 111.906 284.883C117.888 293.901 124.605 304.627 134.023 310.396C134.839 310.896 135.705 309.672 134.883 309.164L134.887 309.163Z" fill="#D1C7BE"/>
<path d="M134.839 305.039C126.709 281.61 109.261 262.604 99.5622 239.845C99.1845 238.958 97.8271 239.601 98.2 240.488C107.9 263.252 125.348 282.257 133.477 305.682C133.793 306.609 135.146 305.943 134.839 305.039Z" fill="#D1C7BE"/>
<path d="M132.156 289.435C124.312 276.215 117.724 262.287 110.883 248.536C110.455 247.673 109.097 248.311 109.521 249.179C116.372 262.933 122.949 276.858 130.794 290.078C131.284 290.901 132.638 290.244 132.156 289.435Z" fill="#D1C7BE"/>
<path d="M85.8052 280.405C73.7949 284.12 60.6689 285.078 48.1978 283.641C35.647 282.198 26.2221 273.016 17.947 264.245C17.0037 263.247 15.3632 264.627 16.3129 265.634C24.3163 274.119 33.478 283.175 45.4093 285.4C58.4957 287.844 73.5374 286.425 86.1774 282.516C87.4781 282.11 87.1202 279.996 85.8052 280.405Z" fill="#D1C7BE"/>
<path d="M86.8277 280.235C80.5989 275.928 75.7244 269.958 69.2652 265.962C64.8298 263.247 59.9634 261.306 54.875 260.225C42.0881 257.443 28.8739 259.714 16.6362 263.729C15.3294 264.156 16.2559 266.091 17.5531 265.666C29.6797 261.69 42.9733 259.478 55.5671 262.56C60.725 263.796 65.6104 265.971 69.9786 268.976C75.5815 272.857 80.0146 278.109 85.6167 281.986C86.7388 282.771 87.9841 281.018 86.8468 280.231L86.8277 280.235Z" fill="#D1C7BE"/>
<path d="M58.2679 242.144C44.652 238.064 30.0538 233.685 19.748 223.356C8.76218 212.351 5.25639 196.597 3.09519 181.746C2.89864 180.38 0.78542 180.753 0.981964 182.119C3.19496 197.319 6.89001 213.477 18.1083 224.741C28.7036 235.373 43.5147 239.955 57.5203 244.153C58.8396 244.549 59.5919 242.54 58.2679 242.144Z" fill="#D1C7BE"/>
<path d="M58.9082 242.233C47.3838 216.513 27.8773 194.117 2.7913 180.915C1.58301 180.283 0.341682 182.03 1.55643 182.671C26.3544 195.717 45.5818 217.73 56.9817 243.162C57.5427 244.419 59.5004 243.499 58.9194 242.241L58.9082 242.233Z" fill="#D1C7BE"/>
<path d="M75.9101 265.292C65.7721 252.093 59.9159 232.243 63.7873 215.788C65.1843 209.763 68.1501 204.268 70.3882 198.522C73.2143 191.095 74.7258 183.233 74.8549 175.289C74.8837 173.918 72.749 173.695 72.7189 175.086C72.5281 183.831 70.6782 192.46 67.2675 200.517C64.7111 206.633 61.8758 212.562 60.9902 219.2C58.8139 235.449 64.3548 253.763 74.2808 266.68C75.1222 267.77 76.757 266.386 75.9195 265.29L75.9101 265.292Z" fill="#D1C7BE"/>
<path d="M77.1956 267.311C80.1757 263.96 81.1962 258.562 82.1703 254.351C84.0596 245.92 85.1799 237.335 85.5173 228.702C86.3476 210.704 85.0877 190.476 75.3994 174.751C74.7023 173.587 72.7373 174.493 73.4617 175.673C82.955 191.073 84.1935 210.873 83.3813 228.499C83.0626 236.441 82.0957 244.345 80.4903 252.131C79.5531 256.552 78.5804 262.556 75.4482 266.076C74.5332 267.107 76.2971 268.324 77.2043 267.304L77.1956 267.311Z" fill="#D1C7BE"/>
<path d="M39.0615 191.044C10.135 173.636 5.54434 137.643 8.29615 106.944C8.41724 105.567 6.28206 105.368 6.16013 106.741C3.34438 138.193 8.26668 175.007 37.8314 192.799C39.0094 193.51 40.2451 191.76 39.0615 191.044Z" fill="#D1C7BE"/>
<path d="M39.2646 191.667C37.8845 173.435 34.5414 155.368 30.6 137.534C27.7095 124.433 21.3638 110.816 7.98444 105.623C6.69613 105.123 5.95336 107.131 7.24167 107.631C22.1211 113.409 26.7299 129.17 29.6071 143.256C32.908 159.41 35.9029 175.558 37.1523 192.044C37.2573 193.421 39.3689 193.039 39.2655 191.671L39.2646 191.667Z" fill="#D1C7BE"/>
<path d="M45.3146 208.014C68.6806 194.529 67.9837 164.969 65.0888 141.633C64.9209 140.263 62.8085 140.64 62.9804 142.005C65.7327 164.226 66.8098 193.124 44.3912 206.069C43.2111 206.768 44.1112 208.693 45.3121 208L45.3146 208.014Z" fill="#D1C7BE"/>
<path d="M45.4594 206.883C44.2007 191.627 44.6214 175.407 52.0835 161.63C55.8208 154.736 61.665 149.023 64.662 141.723C65.1838 140.442 63.175 139.706 62.6524 140.982C59.4597 148.817 52.9781 154.932 49.2336 162.511C42.4143 176.307 42.1197 192.21 43.3485 207.24C43.4623 208.611 45.569 208.229 45.4569 206.868L45.4594 206.883Z" fill="#D1C7BE"/>
<path d="M39.5332 124.903C35.488 117.583 31.3062 110.046 29.6587 101.762C28.5381 96.1322 29.1574 91.4436 30.4619 86.0101C32.7141 76.6064 35.7562 67.3877 37.6347 57.873C37.8882 56.5213 35.7642 56.3308 35.4986 57.6699C33.4586 67.9697 30.0102 77.9528 27.7707 88.2092C24.8014 101.803 31.1652 114.183 37.5954 125.825C38.2547 127.025 40.1998 126.117 39.5332 124.903Z" fill="#D1C7BE"/>
<path d="M40.2794 124.757C46.3413 102.691 45.5109 79.3041 37.8992 57.7279C37.4397 56.4331 35.5028 57.3593 35.9614 58.6493C43.363 79.6948 44.1683 102.496 38.2698 124.015C37.9077 125.337 39.9142 126.089 40.2794 124.757Z" fill="#D1C7BE"/>
<path d="M38.2735 142.112C52.907 135.031 76.4825 126.471 76.0002 106.469C75.9661 105.104 73.8323 104.886 73.8641 106.266C74.3279 125.382 51.3828 133.388 37.3518 140.176C36.1151 140.777 37.0272 142.715 38.2735 142.112Z" fill="#D1C7BE"/>
<path d="M38.5617 141.152C44.4932 125.306 58.3503 112.009 74.7698 107.497C76.0884 107.137 75.7305 105.023 74.3976 105.386C57.2331 110.108 42.7681 123.807 36.5521 140.411C36.0671 141.705 38.0767 142.446 38.5617 141.152Z" fill="#D1C7BE"/>
<path d="M50.2213 95.3356C65.0162 92.6895 78.6628 85.627 89.3624 75.079C90.3386 74.1157 88.9617 72.4717 87.9721 73.4422C77.5631 83.7421 64.2677 90.6394 49.8483 93.2198C48.4887 93.4595 48.8618 95.5753 50.2205 95.3309L50.2213 95.3356Z" fill="#D1C7BE"/>
<path d="M51.1307 93.4357C57.4286 78.7195 72.8881 71.0506 88.4658 74.5686C89.8128 74.8716 89.997 72.7361 88.6699 72.4345C80.7481 70.6035 72.4324 71.6311 65.194 75.3354C57.9555 79.0396 52.2609 85.1818 49.1177 92.6753C48.5752 93.9502 50.5888 94.686 51.1282 93.4215L51.1307 93.4357Z" fill="#D1C7BE"/>
<path d="M59.392 70.1332C54.5569 56.9379 55.9026 41.39 63.2343 29.3562C63.9521 28.183 62.1999 26.949 61.4781 28.1278C53.719 40.861 52.3222 57.0962 57.4543 71.0548C57.9281 72.347 59.865 71.4207 59.392 70.1332Z" fill="#D1C7BE"/>
<path d="M60.3325 70.4737C63.7596 64.1183 65.811 57.1144 66.3535 49.9166C66.896 42.7189 65.9174 35.4881 63.4815 28.6937C63.022 27.3989 61.0851 28.3251 61.5437 29.6151C63.8401 36.0619 64.7624 42.9174 64.2514 49.742C63.7404 56.5667 61.8075 63.2099 58.5764 69.2455C57.9329 70.4497 59.6859 71.6884 60.3325 70.4737Z" fill="#D1C7BE"/>
<path d="M75.3124 52.8606C87.2198 51.8814 99.274 47.4956 106.778 37.8047C107.623 36.7122 105.881 35.5062 105.022 36.5764C97.8666 45.8177 86.2515 49.8214 74.9402 50.7496C73.5683 50.8638 73.9453 52.974 75.3124 52.8606Z" fill="#D1C7BE"/>
<path d="M75.893 52.1638C82.5483 43.1285 93.7336 37.1615 105.087 38.2305C106.463 38.3614 106.662 36.2281 105.292 36.1012C93.1716 34.9512 81.2461 41.2944 74.136 50.9306C73.3167 52.0578 75.0694 53.2671 75.8921 52.159L75.893 52.1638Z" fill="#D1C7BE"/>
<path d="M84.1829 280.298C62.3707 276.092 40.7968 270.735 19.5517 264.252C18.6317 263.972 18.1071 265.376 19.0319 265.656C40.4011 272.167 62.1004 277.545 84.0388 281.768C84.9857 281.95 85.1209 280.457 84.1779 280.27L84.1829 280.298Z" fill="#D1C7BE"/>
<path d="M84.7871 280.713C74.0823 280.06 63.3295 279.637 52.6577 278.585C42.7215 277.605 29.3457 276.504 22.2855 268.571C21.6656 267.845 20.4944 268.818 21.1381 269.54C27.5908 276.789 38.8099 278.378 47.9395 279.554C60.0854 281.127 72.4293 281.452 84.6464 282.202C85.6113 282.262 85.756 280.768 84.7855 280.703L84.7871 280.713Z" fill="#D1C7BE"/>
<path d="M80.1181 280.622C64.7516 284.466 48.9509 280.688 33.6324 278.5C32.6739 278.364 32.534 279.858 33.4885 279.999C48.9539 282.211 64.8771 285.987 80.3795 282.104C81.3217 281.869 81.0613 280.392 80.1198 280.631L80.1181 280.622Z" fill="#D1C7BE"/>
<path d="M83.7146 279.093C64.6715 270.728 44.6243 264.859 24.0721 261.632C23.1207 261.48 22.9817 262.979 23.9331 263.13C44.3495 266.347 64.2628 272.189 83.1774 280.51C84.0626 280.899 84.5816 279.491 83.6964 279.101L83.7146 279.093Z" fill="#D1C7BE"/>
<path d="M79.9562 276.356C68.5752 268.41 55.7804 262.706 42.258 259.551C41.3299 259.336 40.8005 260.741 41.739 260.959C55.1397 264.076 67.8207 269.72 79.1011 277.588C79.1821 277.644 79.2734 277.684 79.3699 277.705C79.4663 277.726 79.566 277.728 79.6632 277.711C79.7603 277.694 79.8532 277.657 79.9363 277.604C80.0195 277.551 80.0913 277.482 80.1478 277.401C80.2042 277.32 80.2442 277.229 80.2654 277.132C80.2865 277.036 80.2885 276.936 80.2712 276.839C80.2538 276.742 80.2175 276.65 80.1643 276.566C80.111 276.483 80.0419 276.412 79.961 276.355L79.9562 276.356Z" fill="#D1C7BE"/>
<path d="M57.3404 239.925C47.6339 231.627 37.8855 223.372 28.2269 215.012C19.021 207.044 7.44364 198.29 3.55733 186.264C3.26048 185.334 1.90728 186 2.196 186.912C5.87991 198.32 16.2619 206.543 24.974 214.165C35.3706 223.28 45.969 232.171 56.4711 241.159C57.2063 241.786 58.0605 240.55 57.3357 239.926L57.3404 239.925Z" fill="#D1C7BE"/>
<path d="M52.8482 235.759C45.3759 229.558 37.2961 224.126 28.7314 219.547C19.8669 214.825 9.99055 209.973 6.47882 199.792C6.16289 198.865 4.80967 199.531 5.11747 200.44C8.24375 209.494 16.5268 214.795 24.5876 219.059C34.3504 224.216 43.4865 229.976 51.9828 236.988C52.7259 237.604 53.5856 236.371 52.8434 235.76L52.8482 235.759Z" fill="#D1C7BE"/>
<path d="M55.8869 239.046L31.9944 227.983C24.7743 224.637 17.2869 221.422 12.5513 214.705C11.9985 213.913 10.852 214.886 11.4087 215.673C15.6336 221.669 22.0468 224.985 28.5434 228.021C37.4682 232.191 46.4219 236.302 55.3616 240.446C56.2397 240.851 56.7538 239.443 55.8853 239.036L55.8869 239.046Z" fill="#D1C7BE"/>
<path d="M54.1383 235.6C38.9202 216.241 20.8646 199.451 2.81876 182.773C2.11918 182.125 0.967879 183.099 1.677 183.745C19.7181 200.425 37.7633 217.212 52.9918 236.574C53.5881 237.333 54.7346 236.36 54.1383 235.6Z" fill="#D1C7BE"/>
<path d="M77.1498 265.294C74.1272 252.978 74.4301 240.134 76.4183 227.672C78.2409 216.334 81.5278 205.323 82.1869 193.803C82.2433 192.84 80.7472 192.696 80.6869 193.664C79.9971 205.652 76.4587 217.106 74.6979 228.934C72.9068 241.091 72.7073 253.572 75.6472 265.559C75.8773 266.501 77.356 266.24 77.126 265.298L77.1498 265.294Z" fill="#D1C7BE"/>
<path d="M76.2178 265.252C71.9517 249.873 72.2029 233.584 73.7545 217.808C75.0766 204.274 77.6921 190.488 74.914 176.964C74.7174 176.016 73.2386 176.277 73.4353 177.225C76.3786 191.574 73.1661 206.159 71.9997 220.521C70.7756 235.531 70.6958 250.895 74.7485 265.511C75.0072 266.448 76.486 266.187 76.2273 265.25L76.2178 265.252Z" fill="#D1C7BE"/>
<path d="M74.5554 263.132C68.6379 242.851 68.9128 221.871 69.2445 200.934C69.2572 199.974 67.7603 199.825 67.7437 200.791C67.4091 221.851 67.1166 242.982 73.0718 263.394C73.34 264.329 74.8189 264.069 74.5506 263.133L74.5554 263.132Z" fill="#D1C7BE"/>
<path d="M70.4436 258.001C67.343 242.146 64.9616 226.213 65.4636 210.008C65.4962 209.049 63.9993 208.901 63.9636 209.87C63.4596 226.203 65.8359 242.274 68.96 258.262C69.128 259.215 70.6212 258.952 70.4388 258.001L70.4436 258.001Z" fill="#D1C7BE"/>
<path d="M77.8119 264.725C78.0317 248.398 79.2637 232.595 84.1009 216.903C84.3863 215.983 82.9806 215.459 82.6953 216.379C77.8241 232.185 76.5385 248.131 76.3159 264.581C76.3032 265.541 77.7953 265.691 77.8167 264.724L77.8119 264.725Z" fill="#D1C7BE"/>
<path d="M46.1873 205.403C54.3272 187.971 59.1497 169.179 60.4086 149.986C60.4698 149.022 58.9793 148.882 58.9086 149.848C57.6565 168.91 52.8646 187.573 44.7778 204.885C44.367 205.764 45.7804 206.276 46.1825 205.404L46.1873 205.403Z" fill="#D1C7BE"/>
<path d="M46.3241 205.566C49.5499 191.35 51.3657 176.851 51.7455 162.28C51.7772 161.316 50.2811 161.172 50.2446 162.136C49.874 176.58 48.0872 190.953 44.9099 205.049C44.6946 205.976 46.1011 206.504 46.3146 205.568L46.3241 205.566Z" fill="#D1C7BE"/>
<path d="M45.3262 204.258C48.2377 193.21 48.431 181.363 48.312 170.005C48.3008 169.048 46.8087 168.899 46.8112 169.861C46.9289 181.073 46.7896 192.836 43.931 203.737C43.6863 204.665 45.0919 205.189 45.3405 204.255L45.3262 204.258Z" fill="#D1C7BE"/>
<path d="M46.9748 206.439C55.9467 191.099 62.6213 174.307 65.7629 156.781C65.9349 155.832 64.4358 155.698 64.2629 156.643C61.1522 173.898 54.5513 190.465 45.7223 205.584C45.2386 206.411 46.4634 207.276 46.951 206.443L46.9748 206.439Z" fill="#D1C7BE"/>
<path d="M38.5256 188.815C31.8683 175.69 24.1903 163.025 18.6612 149.353C13.2769 136.028 10.7098 121.804 8.57338 107.652C8.40533 106.699 6.97424 106.951 7.09935 107.912C9.17167 121.673 11.6485 135.524 16.7217 148.535C22.2793 162.787 30.2717 175.868 37.1635 189.458C37.6006 190.319 38.9589 189.682 38.5256 188.815Z" fill="#D1C7BE"/>
<path d="M37.3499 187.307C32.0243 177.412 24.7388 168.786 19.0925 159.08C13.1627 148.93 9.33021 137.695 7.82149 126.038C7.70114 125.077 6.22237 125.337 6.34272 126.299C7.80689 137.578 11.4175 148.473 16.9799 158.396C22.7203 168.636 30.4104 177.603 35.9622 187.945C36.4159 188.789 37.7798 188.155 37.3244 187.302L37.3499 187.307Z" fill="#D1C7BE"/>
<path d="M38.5944 189.707C32.7574 183.696 27.3254 177.305 22.3344 170.576C16.976 163.423 12.0179 155.974 9.84889 147.187C9.61405 146.246 8.13525 146.507 8.37009 147.448C10.3743 155.551 14.6348 162.558 19.4993 169.253C24.9533 176.822 30.9537 183.984 37.4527 190.679C38.1239 191.362 39.2769 190.397 38.5992 189.706L38.5944 189.707Z" fill="#D1C7BE"/>
<path d="M24.7928 162.899C18.5227 145.069 13.9632 126.682 11.1757 107.989C11.0077 107.036 9.57659 107.288 9.69694 108.249C12.5224 127.074 17.1292 145.589 23.4554 163.543C23.7761 164.469 25.1293 163.803 24.8167 162.895L24.7928 162.899Z" fill="#D1C7BE"/>
<path d="M31.7347 175.797C29.472 163.328 26.7006 150.957 23.652 138.661C21.1293 128.482 18.9906 117.804 12.9546 109.012C12.4113 108.218 11.2696 109.191 11.8129 109.984C18.2461 119.355 20.2884 131.161 22.9343 142.01C25.6805 153.289 28.1821 164.631 30.2559 176.058C30.2905 176.254 30.4015 176.428 30.5646 176.542C30.7277 176.656 30.9295 176.701 31.1256 176.666C31.3217 176.632 31.496 176.521 31.6102 176.358C31.7245 176.195 31.7693 175.993 31.7347 175.797Z" fill="#D1C7BE"/>
<path d="M36.2958 183.282C31.777 159.83 29.1667 135.57 18.9035 113.712C18.8613 113.622 18.8018 113.542 18.7286 113.476C18.6553 113.409 18.5697 113.358 18.4766 113.325C18.3835 113.291 18.2847 113.277 18.1859 113.281C18.0871 113.286 17.9902 113.31 17.9008 113.353C17.8113 113.395 17.7311 113.454 17.6647 113.528C17.5982 113.601 17.5468 113.686 17.5134 113.779C17.48 113.872 17.4653 113.971 17.4701 114.07C17.4749 114.168 17.4991 114.265 17.5413 114.355C27.7675 136.087 30.317 160.225 34.8114 183.539C34.9795 184.492 36.4726 184.229 36.2902 183.278L36.2958 183.282Z" fill="#D1C7BE"/>
<path d="M39.5938 122.848C36.5724 104.095 35.005 85.3317 35.5281 66.3173C35.5509 65.3306 34.059 65.2103 34.0273 66.1741C33.5013 85.3118 35.0701 104.223 38.1102 123.11C38.2783 124.063 39.7427 123.805 39.589 122.849L39.5938 122.848Z" fill="#D1C7BE"/>
<path d="M38.7234 121.12C32.9512 107.353 32.4527 93.0047 32.3361 78.2845C32.3207 77.3045 30.8327 77.1787 30.8361 78.1461C30.9543 93.1264 31.4873 107.753 37.366 121.762C37.7397 122.654 39.0915 122.008 38.7282 121.119L38.7234 121.12Z" fill="#D1C7BE"/>
<path d="M39.532 121.41C41.4105 100.933 40.8973 80.2538 36.8901 60.0384C36.7221 59.0853 35.2242 59.3495 35.4113 60.2992C39.3967 80.3907 39.9004 100.904 38.0343 121.256C38.0158 121.455 38.0771 121.653 38.2047 121.806C38.3323 121.96 38.5158 122.056 38.7147 122.075C38.9136 122.093 39.1117 122.032 39.2654 121.904C39.4191 121.777 39.5158 121.593 39.5342 121.395L39.532 121.41Z" fill="#D1C7BE"/>
<path d="M37.4216 117.168C33.3571 108.706 30.2887 99.3662 29.7201 89.9489C29.657 88.9773 28.1782 89.238 28.2413 90.2096C28.8181 99.7287 31.9591 109.257 36.0611 117.821C36.1036 117.91 36.1633 117.99 36.2369 118.056C36.3104 118.122 36.3963 118.174 36.4895 118.207C36.678 118.273 36.8852 118.263 37.0657 118.177C37.2462 118.091 37.3853 117.937 37.4522 117.749C37.5191 117.56 37.5084 117.353 37.4224 117.173L37.4216 117.168Z" fill="#D1C7BE"/>
<path d="M40.072 139.564C43.3973 133.317 50.0216 127.928 55.0177 122.984C59.8456 118.202 65.5699 110.972 72.0764 108.596C73.001 108.261 72.3347 106.909 71.4331 107.235C64.6592 109.712 59.0474 116.883 54.0475 121.833C48.9173 126.909 42.2862 132.26 38.8226 138.698C38.3717 139.544 39.6155 140.406 40.0521 139.562L40.072 139.564Z" fill="#D1C7BE"/>
<path d="M40.2607 139.658C52.4328 130.249 70.1487 123.578 74.4278 107.036C74.6677 106.109 73.2621 105.586 73.023 106.517C68.8066 122.773 51.2816 129.243 39.2858 138.508C38.5243 139.099 39.4937 140.245 40.2599 139.653L40.2607 139.658Z" fill="#D1C7BE"/>
<path d="M41.046 137.417C46.9566 133.028 52.7494 128.474 58.2207 123.52C63.4201 118.78 67.5528 113.487 71.6871 107.839C72.262 107.055 71.0293 106.201 70.4584 106.98C66.0925 112.904 61.7092 118.394 56.2056 123.305C51.0494 127.899 45.6036 132.161 40.0576 136.274C39.2841 136.853 40.2574 137.993 41.0317 137.419L41.046 137.417Z" fill="#D1C7BE"/>
<path d="M59.2546 69.1308C62.0922 57.3292 64.2093 45.6251 64.2695 33.4142C64.2726 32.4554 62.7766 32.3114 62.7695 33.2757C62.7343 45.3496 60.6796 56.9051 57.8689 68.6085C57.6442 69.5375 59.0506 70.0659 59.2737 69.1274L59.2546 69.1308Z" fill="#D1C7BE"/>
<path d="M59.4624 67.045C59.5852 54.7868 60.6413 42.5555 62.6218 30.4568C62.7786 29.5054 61.2795 29.3717 61.1218 30.3183C59.1437 42.4173 58.0875 54.6486 57.9624 66.9067C57.9498 67.867 59.4458 68.011 59.4624 67.045Z" fill="#D1C7BE"/>
<path d="M51.9047 92.9996C62.5297 85.7297 73.7472 79.3648 85.439 73.9723C86.3129 73.5725 85.6705 72.2166 84.791 72.6125C72.9873 78.0645 61.6634 84.499 50.9393 91.8481C50.1448 92.3911 51.1181 93.5313 51.9126 92.9883L51.9047 92.9996Z" fill="#D1C7BE"/>
<path d="M53.1755 91.0015C59.965 83.6476 68.1414 79.0269 76.9316 74.4846C77.7876 74.0388 77.1499 72.6821 76.2884 73.1239C67.3586 77.74 59.1059 82.3742 52.1862 89.8542C51.5381 90.5581 52.5131 91.7079 53.1556 91.0001L53.1755 91.0015Z" fill="#D1C7BE"/>
<path d="M52.6212 92.7946C64.2898 87.8676 77.7946 83.1721 87.8441 75.1992C88.5949 74.5755 87.6297 73.4534 86.87 74.0542C82.8681 77.2166 78.0878 79.563 73.4776 81.7861C66.3987 85.211 59.1973 88.3872 51.9549 91.443C51.0387 91.8257 51.7088 93.1717 52.5981 92.8036L52.6212 92.7946Z" fill="#D1C7BE"/>
<path d="M78.1145 51.8753C86.7161 46.7373 95.7765 42.4716 104.761 38.0523C105.625 37.6248 104.982 36.269 104.113 36.6926C95.1332 41.111 86.0681 45.3775 77.4712 50.5147C76.6484 51.0086 77.3059 52.3668 78.1145 51.8753Z" fill="#D1C7BE"/>
<path d="M77.1494 51.1169C83.8191 46.4031 91.2185 42.8431 97.8873 38.1245C98.6746 37.568 97.7012 36.4277 96.914 36.9841C90.2443 41.6979 82.845 45.258 76.1762 49.9766C75.3889 50.533 76.3631 51.6781 77.1503 51.1217L77.1494 51.1169Z" fill="#D1C7BE"/>
<path d="M86.793 49.9911C91.4626 46.3473 96.4473 43.3752 102.296 42.2063C103.246 42.0142 102.985 40.5369 102.036 40.729C95.9326 41.9623 90.683 45.0501 85.8245 48.8499C85.0639 49.4459 86.0324 50.587 86.793 49.9911Z" fill="#D1C7BE"/>
</svg>
