<svg width="189" height="180" viewBox="0 0 189 180" fill="none" xmlns="http://www.w3.org/2000/svg">
<path d="M38.2239 175.801C40.3978 173.468 42.4448 171.021 44.356 168.469L44.356 179.897L47.0668 177.187L47.0668 164.672C48.8792 161.983 50.5413 159.195 52.0454 156.322C52.1336 156.296 52.2156 156.252 52.2862 156.193C52.3568 156.133 52.4146 156.06 52.4561 155.978C52.4976 155.896 52.5218 155.806 52.5273 155.714C52.5328 155.622 52.5195 155.53 52.4882 155.444C54.0979 152.288 55.5171 149.04 56.7382 145.715C58.2574 145.34 59.7406 144.832 61.1704 144.197C68.0883 147.043 74.3063 141.947 75.967 135.236C75.9908 135.145 75.9883 135.048 75.9598 134.958C76.6884 134.808 76.392 133.697 75.6562 133.833C72.1384 134.558 69.0848 133.568 65.8562 135.647C63.1097 137.408 61.5026 140.201 60.4918 143.218C59.4091 143.693 58.2945 144.092 57.1561 144.411C58.533 140.467 59.6274 136.429 60.4311 132.329C60.5837 132.31 60.7281 132.249 60.849 132.154L67.5812 126.615C68.1782 127.199 68.9686 127.544 69.8028 127.585C70.637 127.625 71.4573 127.359 72.1083 126.836C72.7593 126.312 73.1959 125.568 73.3355 124.745C73.475 123.921 73.308 123.075 72.8658 122.367C72.4236 121.658 71.737 121.136 70.9359 120.9C70.1349 120.663 69.2749 120.729 68.5188 121.083C67.7627 121.438 67.1628 122.058 66.8327 122.825C66.5026 123.592 66.4652 124.454 66.7276 125.247L60.8454 130.079C61.3646 127.024 61.7222 123.943 61.9169 120.85C62.6773 120.765 63.3862 120.425 63.9273 119.884C64.4685 119.343 64.8098 118.634 64.8952 117.874C64.9806 117.114 64.805 116.347 64.3973 115.699C63.9896 115.052 63.374 114.562 62.6514 114.311C61.9288 114.059 61.1422 114.061 60.4206 114.315C59.6991 114.57 59.0853 115.062 58.6802 115.711C58.2751 116.36 58.1026 117.127 58.191 117.887C58.2794 118.647 58.6235 119.355 59.1669 119.893C59.4964 120.22 59.8889 120.476 60.3204 120.647C60.1918 122.79 59.9883 124.929 59.7026 127.043C58.1906 125.617 56.6323 124.242 55.0275 122.918C55.4125 122.189 55.5168 121.343 55.3209 120.542C55.1249 119.741 54.6422 119.039 53.964 118.57C53.2858 118.1 52.4591 117.895 51.6401 117.994C50.8212 118.093 50.0667 118.488 49.5194 119.105C48.972 119.722 48.6697 120.518 48.6696 121.343C48.6695 122.168 48.9716 122.965 49.5187 123.582C50.0659 124.199 50.8202 124.595 51.6392 124.693C52.4581 124.792 53.2849 124.588 53.9632 124.118C55.8382 125.665 57.6597 127.272 59.4062 128.961C58.068 137.425 55.4803 145.643 51.7275 153.347C50.3711 149.477 48.8081 145.682 47.0453 141.979L47.0418 116.09C50.8716 109.328 54.0961 102.241 56.6776 94.9109C56.7522 94.8849 56.8213 94.8449 56.8811 94.7931L60.749 91.3681C60.7804 91.3884 60.8139 91.4052 60.849 91.4181C67.2848 92.9324 71.8562 87.4252 71.8705 81.368C71.8705 81.368 71.8705 81.368 71.8455 81.343C71.9024 81.2486 71.9293 81.1392 71.9227 81.0292C71.9162 80.9192 71.8765 80.8137 71.8088 80.7267C71.7411 80.6397 71.6487 80.5753 71.5437 80.5418C71.4387 80.5084 71.326 80.5076 71.2205 80.5394C68.2633 81.6109 64.5776 82.418 62.1312 84.5002C60.199 86.1395 59.8633 88.3395 59.7026 90.7216L59.7276 90.7466L57.4168 92.7931C58.3573 89.924 59.1764 87.0311 59.874 84.1145C59.91 84.0284 59.9295 83.9363 59.9312 83.843C60.2455 82.5287 60.5288 81.2097 60.7812 79.8858C60.8393 79.8421 60.891 79.7905 60.9347 79.7323C62.6118 77.5369 64.498 75.5095 66.5669 73.6787C66.6383 73.7501 66.7062 73.818 66.7812 73.893C67.3802 74.4225 68.1497 74.7191 68.9492 74.7286C69.7487 74.7382 70.525 74.46 71.1365 73.9449C71.7481 73.4298 72.1541 72.7121 72.2805 71.9226C72.407 71.1331 72.2455 70.3245 71.8254 69.6441C71.4054 68.9638 70.7548 68.4571 69.9924 68.2164C69.2299 67.9757 68.4063 68.0172 67.6718 68.3331C66.9373 68.649 66.3408 69.2184 65.9911 69.9374C65.6415 70.6565 65.5619 71.4773 65.7669 72.2501C64.195 73.6303 62.7201 75.1171 61.3526 76.7001C61.7716 74.0429 62.074 71.381 62.2597 68.7143C62.2581 68.6637 62.2509 68.6134 62.2383 68.5643C63.0335 68.4497 63.7589 68.0471 64.2768 67.4329C64.7947 66.8187 65.069 66.0356 65.0476 65.2325C65.0262 64.4294 64.7105 63.6621 64.1607 63.0763C63.6108 62.4906 62.865 62.1272 62.0648 62.0551C61.2646 61.983 60.4658 62.2074 59.8201 62.6855C59.1744 63.1636 58.7269 63.8621 58.5623 64.6485C58.3978 65.4349 58.5277 66.2543 58.9275 66.9512C59.3274 67.6481 59.9692 68.1738 60.7312 68.4286C60.6879 68.5183 60.6613 68.6151 60.6526 68.7143C60.3747 72.7034 59.8306 76.6694 59.024 80.5859C58.3632 78.644 57.5276 76.766 56.5275 74.9751L56.5811 74.9215C57.1314 74.314 57.4413 73.5268 57.4528 72.7072C57.4643 71.8877 57.1767 71.092 56.6437 70.4693C56.1108 69.8466 55.3691 69.4396 54.5576 69.3244C53.7461 69.2093 52.9204 69.3939 52.2353 69.8438C51.5501 70.2936 51.0525 70.9778 50.8355 71.7682C50.6186 72.5586 50.6972 73.401 51.0567 74.1376C51.4162 74.8742 52.0319 75.4544 52.7885 75.7697C53.5451 76.0849 54.3906 76.1135 55.1668 75.8501C56.5455 78.3495 57.5981 81.0153 58.299 83.7823C57.3287 87.8352 56.1255 91.8288 54.6954 95.7431C53.0502 92.5955 51.1686 89.5773 49.0668 86.7145C49.0456 86.6238 49.0065 86.5383 48.952 86.4629C48.8974 86.3875 48.8284 86.3237 48.7489 86.2752C48.1846 85.4966 47.6156 84.7228 47.0418 83.9537L47.0418 38.6177L80.9027 38.6213C85.3213 40.3491 89.8655 41.7365 94.4957 42.7713C91.9385 44.0856 89.3599 45.3642 86.7599 46.607L78.9063 44.6249C79.0344 43.8374 78.8737 43.0302 78.4537 42.3518C78.0337 41.6735 77.3827 41.1698 76.6206 40.9336C75.8586 40.6973 75.0368 40.7444 74.3068 41.0662C73.5767 41.3879 72.9875 41.9626 72.6477 42.6845C72.308 43.4064 72.2405 44.2267 72.4577 44.9943C72.675 45.762 73.1624 46.4253 73.83 46.8621C74.4977 47.2988 75.3007 47.4795 76.0911 47.371C76.8815 47.2624 77.6061 46.8719 78.1313 46.2713C78.1777 46.2249 78.2027 46.1642 78.2456 46.1142L84.442 47.682C83.6349 48.0535 82.8313 48.4356 82.0063 48.8178C81.3035 48.4075 80.4753 48.2671 79.6766 48.423C78.8779 48.5789 78.1632 49.0203 77.6662 49.6647C77.1692 50.3092 76.9239 51.1125 76.9762 51.9247C77.0284 52.7368 77.3746 53.5021 77.9501 54.0776C78.5255 54.653 79.2909 54.9992 80.103 55.0515C80.9151 55.1037 81.7185 54.8584 82.3629 54.3614C83.0074 53.8645 83.4488 53.1498 83.6047 52.351C83.7605 51.5523 83.6202 50.7242 83.2099 50.0213C84.4623 49.4452 85.7123 48.8642 86.9599 48.2785C87.0879 48.2911 87.2171 48.2693 87.3338 48.2153C87.4506 48.1613 87.5509 48.077 87.6242 47.9713C88.2064 47.6963 88.7777 47.4106 89.3563 47.1249C88.9553 48.7093 88.3929 50.2483 87.6778 51.7178C86.8885 51.874 86.1829 52.3116 85.6921 52.9492C85.2014 53.5868 84.9591 54.3809 85.0102 55.1839C85.0613 55.9868 85.4024 56.7438 85.97 57.314C86.5376 57.8843 87.293 58.2289 88.0957 58.2837C88.8984 58.3386 89.6937 58.0999 90.3335 57.6122C90.9734 57.1244 91.4143 56.4208 91.5741 55.6323C91.734 54.8438 91.6019 54.024 91.2025 53.3256C90.803 52.6272 90.1635 52.0977 89.4028 51.8356C90.1946 50.0959 90.7923 48.2742 91.1849 46.4035C91.1921 46.349 91.1921 46.2937 91.1849 46.2392C95.6731 44.0273 100.099 41.6986 104.464 39.2534C104.375 40.2192 104.219 41.1776 103.996 42.1213C101.696 42.3856 99.2457 43.0856 98.1564 45.3463C97.7253 46.4266 97.5387 47.589 97.61 48.7499C97.5707 51.5678 97.5386 53.7642 96.3064 56.3393C96.2692 56.4131 96.2486 56.4943 96.2462 56.5769C96.2437 56.6596 96.2594 56.7418 96.2921 56.8178C96.3023 56.8946 96.3292 56.9682 96.3709 57.0334C96.4126 57.0987 96.4681 57.154 96.5334 57.1955C96.5988 57.2371 96.6724 57.2638 96.7492 57.2738C96.826 57.2838 96.904 57.2769 96.9778 57.2535C101.789 55.8642 112.785 46.9106 105.142 42.2963C105.431 41.0966 105.616 39.8742 105.696 38.6427L131.06 38.6427C133.685 40.8654 136.542 42.7981 139.582 44.407C135.44 46.794 131.152 48.9161 126.742 50.7607C123.505 49.7741 120.209 48.9904 116.874 48.4142C117.001 47.6254 116.838 46.8175 116.416 46.1392C115.994 45.4608 115.341 44.9578 114.578 44.7227C113.814 44.4876 112.992 44.5363 112.261 44.8598C111.531 45.1833 110.942 45.7598 110.603 46.4832C110.264 47.2065 110.197 48.0281 110.416 48.7964C110.635 49.5648 111.124 50.2283 111.793 50.6646C112.462 51.101 113.266 51.2809 114.058 51.1713C114.849 51.0616 115.574 50.6697 116.099 50.0678C116.135 50.0219 116.169 49.9742 116.199 49.9249C118.941 50.3877 121.657 50.9933 124.335 51.7393C122.196 52.5785 120.035 53.3606 117.835 54.0749C117.835 54.0749 117.81 54.1 117.799 54.1107C117.611 53.6355 117.314 53.211 116.932 52.8714C116.37 52.3703 115.656 52.0733 114.905 52.0283C114.154 51.9833 113.41 52.193 112.792 52.6235C112.175 53.054 111.721 53.6799 111.504 54.4003C111.287 55.1208 111.319 55.8934 111.595 56.5934C111.871 57.2933 112.375 57.8796 113.026 58.2575C113.677 58.6353 114.436 58.7827 115.181 58.6756C115.926 58.5686 116.613 58.2134 117.131 57.6676C117.649 57.1218 117.967 56.4172 118.035 55.6678C118.109 55.6677 118.182 55.6594 118.253 55.6428C119.243 55.319 120.226 54.9845 121.199 54.6393C120.512 56.1797 119.707 57.665 118.792 59.0822C118.163 58.9558 117.509 59.0589 116.949 59.373C116.389 59.6871 115.96 60.1914 115.739 60.7945C115.519 61.3976 115.522 62.0597 115.748 62.6608C115.973 63.2619 116.407 63.7625 116.969 64.0716C117.532 64.3808 118.187 64.4782 118.815 64.3463C119.444 64.2143 120.004 63.8617 120.395 63.3522C120.786 62.8428 120.981 62.2102 120.946 61.5691C120.911 60.928 120.647 60.3207 120.203 59.8571C121.4 57.9918 122.417 56.0175 123.242 53.9606C123.242 53.9606 123.246 53.9214 123.253 53.9C124.484 53.4405 125.708 52.9594 126.924 52.4571C127.018 52.4569 127.11 52.4371 127.195 52.3989C127.28 52.3608 127.355 52.3051 127.417 52.2356C130.384 50.988 133.29 49.6225 136.135 48.1392C135.495 49.2201 134.919 50.3375 134.41 51.4857C134.314 51.4807 134.218 51.4966 134.128 51.5321C130.76 53.0285 127.585 55.325 126.721 59.125C125.685 63.6893 129.75 66.8464 130.139 71.1572C130.192 71.8179 131.153 71.8787 131.267 71.3215C137.26 66.4072 142.871 57.3821 135.946 50.9285C136.6 49.5907 137.343 48.2985 138.171 47.0606C139.264 46.4606 140.342 45.8463 141.414 45.2106C141.584 45.2177 141.753 45.1753 141.899 45.0884C142.045 45.0015 142.164 44.874 142.239 44.7213C145.358 42.8451 148.387 40.8213 151.325 38.6498L153.135 38.6462C153.075 39.1713 153.039 39.6927 153.003 40.207L152.996 40.257L152.975 40.2784C150.378 42.0606 148.071 44.732 148.557 48.1035C149.078 51.7535 152.721 53.8535 153.96 57.1857C153.999 57.2792 154.059 57.3622 154.136 57.4274C154.213 57.4927 154.305 57.5384 154.403 57.5605C154.502 57.5826 154.604 57.5805 154.702 57.5545C154.8 57.5284 154.89 57.479 154.964 57.4106C155.074 57.4321 155.188 57.4194 155.291 57.374C155.394 57.3287 155.48 57.253 155.539 57.1571C157.428 54.2321 159.114 51.0249 158.668 47.4285C158.471 45.9502 157.966 44.5296 157.187 43.2581C156.408 41.9866 155.371 40.8925 154.143 40.0463C154.164 39.5748 154.21 39.0999 154.275 38.6356L166.85 38.632C168.724 40.182 170.708 41.5952 172.785 42.8606C173.678 43.3963 174.468 41.9927 173.582 41.457C172.149 40.5923 170.765 39.6492 169.435 38.632L185.654 38.6355L188.357 35.932L166.107 35.9391C163.532 33.6641 161.143 31.1962 158.785 28.6676C158.824 28.5947 158.846 28.5142 158.85 28.4319C158.885 27.6819 158.968 26.9426 159.064 26.2033C165.546 24.4997 168.189 15.0925 164.464 9.86035C164.417 9.78485 164.354 9.72127 164.278 9.67464C164.243 9.56979 164.179 9.47712 164.093 9.4076C164.007 9.33809 163.903 9.29463 163.793 9.28225C163.683 9.26987 163.572 9.28906 163.472 9.3377C163.373 9.38634 163.289 9.46239 163.232 9.5568C161.464 12.689 157.435 14.1104 156.228 17.4818C155.289 20.114 156.382 22.8211 157.732 25.0712C157.764 25.13 157.808 25.1819 157.861 25.2236C157.914 25.2653 157.974 25.296 158.039 25.314C157.921 26.0533 157.828 26.8033 157.771 27.5604C156.4 26.0747 155.032 24.5854 153.646 23.114C151.017 20.3173 148.191 17.713 145.189 15.3211C145.168 15.2079 145.12 15.1013 145.05 15.0103C142.745 11.7532 140.338 8.5746 137.828 5.47458C137.891 5.41867 137.951 5.35904 138.007 5.296C138.467 4.78143 138.73 4.12009 138.748 3.42988C138.766 2.73967 138.539 2.06547 138.106 1.52729C137.674 0.98911 137.064 0.621903 136.386 0.491238C135.708 0.360573 135.006 0.474838 134.404 0.813712C133.803 1.15259 133.341 1.6941 133.102 2.34164C132.862 2.98919 132.86 3.70076 133.096 4.34958C133.332 4.9984 133.791 5.54233 134.391 5.88441C134.991 6.22649 135.692 6.34452 136.371 6.21747C137.99 8.22225 139.567 10.2544 141.103 12.3139C137.719 10.0123 134.124 8.0368 130.367 6.41387C130.543 5.63003 130.427 4.80894 130.041 4.10466C129.654 3.40036 129.024 2.86136 128.268 2.58878C127.513 2.3162 126.684 2.32876 125.936 2.62419C125.189 2.91961 124.576 3.47752 124.211 4.19323C123.846 4.90895 123.755 5.73329 123.955 6.51142C124.154 7.28954 124.631 7.96796 125.296 8.4194C125.96 8.87085 126.767 9.06428 127.564 8.96331C128.361 8.86234 129.094 8.47394 129.624 7.87105L129.65 7.84603C132.87 9.23848 135.967 10.9016 138.907 12.8175C137.048 13.2774 135.148 13.5478 133.235 13.6247C132.749 12.9632 132.039 12.5015 131.238 12.326C130.436 12.1505 129.598 12.2732 128.88 12.6711C128.162 13.069 127.614 13.7148 127.338 14.4878C127.063 15.2606 127.078 16.1076 127.381 16.87C127.685 17.6325 128.256 18.2582 128.988 18.6299C129.719 19.0016 130.561 19.0939 131.356 18.8895C132.151 18.6852 132.844 18.1981 133.306 17.5196C133.767 16.841 133.966 16.0176 133.864 15.2033C136.136 15.0769 138.386 14.6911 140.571 14.0533C140.6 14.0399 140.627 14.0243 140.653 14.0068C144.77 16.921 148.603 20.2179 152.1 23.8533C151.235 23.9247 150.367 23.9855 149.5 24.0248C149.464 23.9751 149.421 23.9317 149.371 23.8962C149.361 23.8069 149.328 23.7219 149.275 23.6498C147.66 21.4783 144.793 19.0461 141.878 19.3247C140.664 19.514 139.526 20.0343 138.589 20.8283C136.625 22.2641 135.035 23.4818 132.571 23.9461C131.875 24.0783 132.132 25.0997 132.782 25.0569C135.371 27.6104 138.592 29.739 142.367 29.6426C143.827 29.6341 145.254 29.2087 146.48 28.4166C147.707 27.6244 148.681 26.4984 149.289 25.1712C150.575 25.114 151.86 25.0354 153.146 24.9212C153.543 25.3176 153.921 25.7391 154.3 26.1533C155.707 27.6819 157.1 29.2105 158.514 30.7034C156.475 32.5212 154.389 34.257 152.242 35.9177L130.239 35.9141C125.596 31.9855 121.164 27.6534 116.153 24.2855C116.172 24.1943 116.169 24.0998 116.142 24.0104C115.464 21.8256 114.59 19.7064 113.532 17.6783C113.58 17.6443 113.623 17.6019 113.657 17.5532C115.421 14.6532 115.864 12.1961 113.764 9.31749C111.178 5.77461 106.831 3.2353 102.91 1.49958C102.796 1.44808 102.668 1.43354 102.546 1.45798C102.423 1.48242 102.311 1.5446 102.225 1.63587C102.139 1.72713 102.084 1.84293 102.067 1.96704C102.051 2.09115 102.073 2.21741 102.131 2.32816C102.531 6.17103 101.792 9.99611 103.896 13.4711C104.823 14.9876 106.083 16.2726 107.582 17.2287C109.08 18.1849 110.776 18.7869 112.542 18.989C112.66 19.0016 112.78 18.9792 112.885 18.9247C113.588 20.3589 114.198 21.837 114.71 23.3498C109.569 20.1605 104.116 17.505 98.435 15.4247C98.4123 15.3177 98.3672 15.2167 98.3028 15.1283C95.883 11.8173 93.0962 8.79092 89.9956 6.10676C89.9416 6.0655 89.8828 6.03079 89.8206 6.00323C90.2534 5.30744 90.4152 4.47678 90.2752 3.6694C90.1352 2.86203 89.7033 2.13429 89.0615 1.62484C88.4197 1.11539 87.6129 0.859752 86.7949 0.906617C85.9768 0.953492 85.2044 1.29965 84.625 1.87907C84.0456 2.45848 83.6995 3.23074 83.6527 4.04882C83.6058 4.8669 83.8614 5.67363 84.3709 6.31543C84.8803 6.95722 85.6081 7.38921 86.4154 7.52921C87.2228 7.6692 88.0534 7.50748 88.7492 7.07466C88.7806 7.12941 88.8191 7.17976 88.8635 7.2246C91.3939 9.42346 93.7091 11.8583 95.7779 14.4961C92.9755 13.5556 90.1314 12.7496 87.2456 12.0782C87.3509 11.2883 87.1689 10.4869 86.7327 9.82003C86.2965 9.15312 85.6353 8.66513 84.8694 8.445C84.1035 8.22487 83.2841 8.28726 82.5603 8.62078C81.8366 8.95431 81.2569 9.53671 80.9267 10.262C80.5965 10.9872 80.5378 11.807 80.7615 12.5718C80.9851 13.3367 81.4761 13.9957 82.145 14.4288C82.8139 14.8619 83.6162 15.0402 84.4056 14.9313C85.195 14.8224 85.919 14.4335 86.4456 13.8354C86.5114 13.7567 86.5711 13.6731 86.6242 13.5854C88.4849 14.0175 90.3314 14.4997 92.1528 15.0425C89.1843 16.2151 86.1269 17.149 83.0099 17.8354C82.7964 17.1321 82.3555 16.5195 81.7563 16.0939C81.1571 15.6682 80.4335 15.4536 79.6991 15.4836C78.9647 15.5135 78.261 15.7865 77.6985 16.2596C77.136 16.7327 76.7465 17.3792 76.5911 18.0976C76.4357 18.816 76.5233 19.5656 76.8399 20.2289C77.1566 20.8922 77.6846 21.4315 78.341 21.7624C78.9973 22.0932 79.7449 22.1968 80.4664 22.0568C81.188 21.9168 81.8427 21.5413 82.3277 20.989C82.705 20.5571 82.9625 20.0337 83.0742 19.4711C86.9885 18.6254 90.8121 17.4043 94.4921 15.8247C94.5078 15.8119 94.5221 15.7975 94.535 15.7818C99.2832 17.3277 103.893 19.269 108.317 21.5854C107.069 22.6173 105.728 23.5308 104.31 24.314C104.27 24.1904 104.185 24.0868 104.071 24.0247C101.589 22.5711 98.8207 21.0319 95.8314 21.6069C92.1814 22.314 90.167 25.9426 87.3277 27.9677C87.215 27.995 87.1127 28.0543 87.033 28.1385C86.9533 28.2227 86.8996 28.3281 86.8785 28.4421C86.8573 28.5561 86.8697 28.6738 86.9139 28.781C86.9581 28.8882 87.0324 28.9802 87.1278 29.0462C90.535 31.3533 93.7636 33.1248 97.9457 32.1712C101.564 31.3605 104.703 29.4784 104.449 25.5462C106.216 24.606 107.875 23.4781 109.399 22.1819C111.499 23.3176 113.567 24.5283 115.578 25.8391C116.846 26.6712 118.067 27.5712 119.271 28.5104C115.266 31.0867 111.215 33.5641 107.117 35.9427L78.5456 35.9427C75.267 34.5451 72.0646 32.9855 68.9384 31.2641C68.6169 30.3998 68.2919 29.5391 67.9491 28.6819C68.0644 28.7088 68.185 28.7007 68.2957 28.6587C68.4064 28.6168 68.502 28.5428 68.5705 28.4462C73.7455 21.3783 65.4955 16.5211 59.8705 14.1318C59.2669 13.8782 58.749 14.6389 59.1312 15.0139C58.8669 17.6997 58.649 20.5819 59.9633 23.0462C61.2776 25.5105 63.9919 27.2319 66.4669 28.4783C66.5264 28.5028 66.5889 28.5196 66.6526 28.5283C66.8991 29.139 67.1562 29.7462 67.374 30.3784C62.6287 27.6592 58.0633 24.6375 53.7061 21.3319C53.7505 21.1939 53.7518 21.0456 53.7097 20.9069C53.0977 18.8288 52.3227 16.8022 51.3918 14.8461C52.0891 14.6213 52.6924 14.1721 53.1076 13.5685C53.5228 12.9649 53.7266 12.2409 53.6872 11.5093C53.6478 10.7778 53.3674 10.0798 52.8897 9.52429C52.4121 8.96879 51.764 8.58698 51.0466 8.4384C50.3293 8.2898 49.5828 8.38281 48.9238 8.70287C48.2648 9.02294 47.7303 9.55206 47.4036 10.2078C47.0768 10.8635 46.9762 11.6089 47.1175 12.3278C47.2588 13.0466 47.634 13.6985 48.1846 14.1818C48.6194 14.5659 49.1501 14.8251 49.7204 14.9318C49.7281 15.0242 49.751 15.1147 49.7882 15.1997C50.509 16.6763 51.1353 18.1972 51.6632 19.7533C49.8442 18.3295 48.0656 16.8628 46.3275 15.3532C46.6536 14.6206 46.7007 13.7941 46.4599 13.0292C46.2192 12.2642 45.7073 11.6136 45.0204 11.1998C44.3335 10.7859 43.5191 10.6374 42.7303 10.7821C41.9415 10.9268 41.2328 11.3547 40.7375 11.9854C40.2423 12.6161 39.9945 13.406 40.041 14.2066C40.0874 15.0072 40.4248 15.7632 40.9897 16.3324C41.5546 16.9016 42.308 17.2447 43.1082 17.2972C43.9084 17.3497 44.7002 17.108 45.3346 16.6175C48.4846 19.3318 51.7561 21.9319 55.1418 24.3819C51.2311 27.0569 46.6025 26.5998 42.1703 25.7819C42.2852 24.9928 42.1122 24.1887 41.6828 23.5168C41.2534 22.8448 40.5964 22.35 39.832 22.1228C39.0677 21.8956 38.247 21.9513 37.5203 22.2796C36.7936 22.6079 36.2095 23.1869 35.8747 23.9107C35.54 24.6345 35.4771 25.4546 35.6975 26.2209C35.9179 26.9873 36.4069 27.6486 37.075 28.0839C37.7431 28.5193 38.5456 28.6994 39.3357 28.5915C40.1258 28.4836 40.8506 28.0948 41.3774 27.4962C41.4302 27.4313 41.4791 27.3633 41.5239 27.2926C46.4703 28.2176 51.7061 28.7605 56.0561 25.7033C56.1978 25.5992 56.3008 25.4509 56.349 25.2819C62.1077 29.3764 68.2158 32.9558 74.6027 35.9784L44.3596 35.9784L44.3596 80.393C42.406 77.7751 40.5096 75.1144 38.7917 72.3394C36.2965 68.1778 34.5 63.6354 33.4738 58.8929C33.9263 56.1959 34.7659 53.5783 35.9667 51.1214C36.7568 51.2307 37.56 51.0522 38.2294 50.6184C38.8988 50.1846 39.3899 49.5246 39.613 48.7587C39.8361 47.9929 39.7762 47.1724 39.4444 46.447C39.1127 45.7216 38.5311 45.1397 37.8058 44.8076C37.0806 44.4755 36.26 44.4153 35.4941 44.6381C34.7281 44.8608 34.0679 45.3516 33.6338 46.0208C33.1998 46.6901 33.0209 47.4931 33.1299 48.2833C33.2389 49.0735 33.6284 49.7981 34.2274 50.3249C34.2988 50.3964 34.3952 50.4428 34.4774 50.5035C33.7695 51.966 33.183 53.4842 32.7238 55.0428C32.0717 50.8386 31.6413 46.6029 31.4345 42.3534C32.119 41.9345 32.6273 41.2803 32.8641 40.5135C33.1009 39.7467 33.0499 38.9199 32.7208 38.1879C32.3918 37.4559 31.8071 36.8691 31.0763 36.5373C30.3456 36.2055 29.519 36.1515 28.7513 36.3854C27.9836 36.6194 27.3276 37.1252 26.9061 37.8082C26.4846 38.4911 26.3265 39.3043 26.4616 40.0954C26.5966 40.8865 27.0155 41.6012 27.6396 42.1056C28.2638 42.61 29.0505 42.8696 29.8524 42.8356C30.0274 45.7249 30.2309 48.6213 30.5559 51.4892C28.5038 49.2859 26.2684 47.2608 23.8737 45.4356C24.2965 44.7329 24.4476 43.8998 24.2985 43.0934C24.1494 42.287 23.7105 41.5629 23.0644 41.0579C22.4183 40.5528 21.6097 40.3015 20.7911 40.3515C19.9726 40.4014 19.2006 40.7491 18.6207 41.329C18.0408 41.9089 17.6931 42.6809 17.6432 43.4994C17.5932 44.318 17.8445 45.1266 18.3496 45.7727C18.8546 46.4188 19.5787 46.8577 20.3851 47.0068C21.1915 47.1559 22.0246 47.0048 22.7273 46.582C25.6972 48.817 28.4113 51.373 30.8202 54.2035C30.8524 54.2357 30.8774 54.2607 30.9095 54.2928C31.7202 59.8678 33.1202 65.3179 35.8238 70.4072C36.0453 70.8215 36.281 71.2358 36.5131 71.6465C35.3036 71.1037 34.1321 70.506 32.9988 69.8537C32.9623 69.8283 32.9227 69.8079 32.8809 69.7929C32.8274 69.7394 32.7488 69.7108 32.6845 69.6751C32.7215 68.2504 32.4246 66.8369 31.8174 65.5476C31.2103 64.2583 30.3098 63.129 29.1881 62.25C25.6773 59.4536 21.513 59.925 17.3915 59.1464C17.2691 59.1225 17.1422 59.1379 17.0291 59.1905C16.9159 59.243 16.8223 59.33 16.7617 59.4391C16.701 59.5481 16.6764 59.6735 16.6914 59.7974C16.7064 59.9212 16.7602 60.0372 16.8451 60.1286C16.8497 60.2205 16.8794 60.3094 16.9308 60.3857C19.7594 64.7 26.1273 76.9037 32.7702 71.0251C34.296 71.8735 35.8702 72.6319 37.4846 73.2965C39.5632 76.6965 41.9417 79.8965 44.3418 83.0751L44.3418 85.4252C43.4989 83.3466 41.8739 81.993 39.5738 81.2502C35.9524 80.0787 33.0524 81.8716 29.4702 81.3894C29.3505 81.3719 29.2283 81.3912 29.1199 81.4448C29.0114 81.4984 28.9218 81.5837 28.863 81.6895C28.7716 81.7213 28.6896 81.7755 28.6244 81.8471C28.5592 81.9187 28.513 82.0056 28.4899 82.0996C28.4669 82.1937 28.4677 82.292 28.4923 82.3856C28.5169 82.4793 28.5646 82.5653 28.6309 82.6359C30.7845 84.918 32.8488 87.3752 35.1524 89.5074C36.506 90.7538 38.0381 91.6788 39.9417 91.5038C41.6346 91.2618 43.1918 90.4416 44.3489 89.1823L44.3453 117.629C42.4548 120.848 40.4643 123.955 38.3738 126.95C36.6953 124.486 34.9238 122.091 33.0595 119.765C33.3167 118.079 33.6774 116.375 33.9452 114.686C36.606 112.811 38.8989 109.768 38.6024 106.4C38.4774 104.932 37.7238 103.865 36.756 102.804C34.8774 100.732 32.706 98.8681 30.6917 96.9252C30.6011 96.8403 30.4857 96.7866 30.3624 96.7721C30.2391 96.7575 30.1144 96.7828 30.0065 96.8444C29.8987 96.9059 29.8133 97.0003 29.7631 97.1139C29.7129 97.2274 29.7003 97.3541 29.7273 97.4753C30.0809 99.7789 28.5166 101.265 27.7774 103.211C27.2791 104.489 27.124 105.876 27.3273 107.232C27.7702 110.301 29.3764 113.081 31.8131 114.997C31.8875 115.058 31.9761 115.1 32.0709 115.119C32.1657 115.138 32.2637 115.133 32.3559 115.104C32.3964 115.161 32.4478 115.21 32.5073 115.248C32.5668 115.285 32.6331 115.31 32.7024 115.322C32.5059 116.404 32.2881 117.486 32.0988 118.554C27.3978 112.846 22.1568 107.605 16.4487 102.904C16.5321 102.739 16.5488 102.548 16.4951 102.372C15.7483 100.053 15.1906 97.6771 14.8273 95.2681C15.4048 95.1216 15.9326 94.8231 16.3558 94.4038C16.894 93.8723 17.2398 93.1767 17.3387 92.4269C17.4376 91.677 17.2839 90.9156 16.9019 90.2627C16.52 89.6099 15.9315 89.1028 15.2294 88.8216C14.5273 88.5404 13.7515 88.501 13.0245 88.7097C12.2975 88.9183 11.6607 89.3632 11.2146 89.9739C10.7685 90.5847 10.5385 91.3267 10.5609 92.0827C10.5833 92.8388 10.8569 93.5658 11.3384 94.1491C11.8199 94.7323 12.482 95.1386 13.2201 95.3038C13.491 97.3465 13.927 99.3638 14.5237 101.336C12.1701 99.4824 9.75221 97.7074 7.24147 96.0324C7.46549 95.2451 7.39433 94.4031 7.04133 93.6646C6.68833 92.9261 6.0778 92.342 5.32446 92.0219C4.57111 91.7018 3.72684 91.6677 2.9502 91.9262C2.17357 92.1848 1.51804 92.718 1.10682 93.4257C0.695595 94.1334 0.556963 94.967 0.716967 95.7697C0.876971 96.5725 1.32461 97.2891 1.97576 97.7851C2.62691 98.2811 3.43675 98.5222 4.25315 98.4632C5.06955 98.4041 5.83631 98.049 6.40935 97.4645L6.44506 97.4288C10.2965 100.008 13.9867 102.821 17.4951 105.85C14.7808 105.55 12.0558 105.29 9.32719 105.104C9.15948 104.715 8.91957 104.361 8.62008 104.061C8.07277 103.503 7.3509 103.149 6.57445 103.057C5.79801 102.966 5.01372 103.143 4.3519 103.559C3.69007 103.976 3.19057 104.606 2.93638 105.345C2.6822 106.084 2.6886 106.888 2.95459 107.623C3.22059 108.359 3.73013 108.981 4.39853 109.386C5.06693 109.792 5.85395 109.956 6.62884 109.853C7.40373 109.749 8.11984 109.383 8.65814 108.816C9.19644 108.249 9.52454 107.515 9.58793 106.736C12.9118 106.965 16.2249 107.28 19.5273 107.682C24.9203 112.572 29.8288 117.971 34.1845 123.804C33.3631 123.754 32.5488 123.683 31.7309 123.615C31.7141 123.549 31.6889 123.485 31.656 123.425C30.0631 120.99 27.7237 118.922 24.7702 118.404C21.1273 117.761 17.6523 120.129 14.1665 120.793C13.5094 120.922 13.6737 121.915 14.313 121.925C19.0701 122.011 20.1416 126.811 24.2738 127.829C27.1309 128.543 29.6166 126.879 31.5809 125.008C31.6447 124.946 31.6936 124.87 31.7238 124.786C32.7952 124.877 33.8702 124.952 34.9488 125.011C34.984 125.011 35.019 125.005 35.0524 124.993C38.5467 129.8 41.6564 134.876 44.3525 140.172L44.3524 142.365C43.8953 142.108 43.4239 141.865 42.9239 141.651C43.0037 141.588 43.0628 141.502 43.0934 141.406C43.1239 141.309 43.1246 141.205 43.0953 141.108C40.8167 131.393 31.4666 136.622 24.6844 135.997C24.5771 135.987 24.4695 136.012 24.3773 136.068C24.2845 136.047 24.1952 136.022 24.0987 136.004C23.3773 135.876 23.0773 136.983 23.7952 137.129C28.3023 137.958 29.6345 143.347 33.9452 144.793C35.4319 145.29 37.0155 145.426 38.565 145.189C40.1145 144.953 41.5853 144.351 42.856 143.433C42.9246 143.387 42.9828 143.328 43.0265 143.258C43.0703 143.189 43.0986 143.111 43.1096 143.029C43.5275 143.24 43.931 143.472 44.331 143.715L44.331 165.858C42.1036 168.971 39.6745 171.934 37.0596 174.729C36.3774 175.419 37.5131 176.562 38.2239 175.801ZM69.124 135.429C70.9991 134.918 72.8991 135.226 74.8062 135.097C73.3598 140.651 68.4062 145.268 62.5883 143.493C64.7098 142.372 66.6674 140.965 68.4062 139.311C68.4977 139.201 68.5446 139.06 68.5379 138.917C68.5312 138.774 68.4713 138.638 68.3699 138.537C68.2685 138.435 68.133 138.376 67.9897 138.369C67.8465 138.362 67.7059 138.409 67.5955 138.501C65.9297 140.085 64.0523 141.431 62.0169 142.501C63.3347 139.254 65.599 136.397 69.124 135.429ZM65.3097 83.943C67.049 83.1537 68.9169 82.5502 70.7205 81.9252C70.4705 86.768 66.9991 91.2109 61.8419 90.4252L65.6276 87.068C66.1848 86.5752 65.3669 85.7645 64.8133 86.2537L61.0276 89.6109C61.1635 88.3677 61.6333 87.1844 62.3872 86.1865C63.1411 85.1887 64.1509 84.4134 65.3097 83.943ZM131.064 69.9679C130.425 67.3072 128.617 65.2286 127.91 62.5286C126.707 58.0178 130.139 54.8 133.767 52.9571C132.87 55.2819 132.232 57.6991 131.867 60.1643C131.76 60.8857 132.882 61.1786 132.992 60.4678C133.42 57.5573 134.24 54.7183 135.432 52.0285C141.132 57.7642 136.217 65.4714 131.064 69.9679ZM157.553 48.3071C157.653 51.2214 156.264 53.8035 154.735 56.2035C153.935 54.4821 152.707 53.1321 151.521 51.6178C148.703 48.0071 149.485 44.3677 152.9 41.7249C152.795 43.6985 152.794 45.6762 152.896 47.6499C152.928 48.3964 154.085 48.3892 154.046 47.6499C153.946 45.7999 153.921 43.9535 154.007 42.0963L154.028 41.4606C155.067 42.2876 155.918 43.3254 156.525 44.5056C157.133 45.6857 157.483 46.9815 157.553 48.3071ZM159.471 15.1532C161.096 13.7139 162.575 12.621 163.757 10.8675C166.489 15.3925 164.528 23.0676 159.285 24.8962C159.668 22.6829 160.318 20.5243 161.221 18.4676C161.514 17.7962 160.518 17.2211 160.218 17.8997C159.388 19.7823 158.754 21.745 158.325 23.7569C156.689 20.714 156.532 17.7639 159.471 15.1532ZM140.796 28.3927C138.164 28.0034 135.978 26.5319 134.075 24.7569C135.708 24.2142 137.229 23.3765 138.56 22.2854C140.171 21.039 141.535 20.089 143.664 20.7532C145.443 21.3996 146.993 22.5547 148.121 24.0748C145.439 24.164 142.75 24.1533 140.064 24.0033C139.314 23.9676 139.325 25.1141 140.064 25.1534C142.703 25.2998 145.342 25.3105 147.989 25.2212C146.585 27.7534 143.692 28.8391 140.796 28.3927ZM104.217 11.5639C103.096 8.82106 103.503 5.84961 103.303 2.98531C108.66 5.48532 116.267 10.2354 112.885 16.5676C111.383 13.9254 109.567 11.4752 107.474 9.27104C107.366 9.16306 107.22 9.10244 107.067 9.10244C106.914 9.10243 106.768 9.16312 106.66 9.2711C106.552 9.37908 106.491 9.52547 106.491 9.67817C106.491 9.83088 106.552 9.97737 106.66 10.0854C108.864 12.4072 110.748 15.0123 112.264 17.8318C108.681 17.1854 105.642 15.0318 104.217 11.5639ZM100.806 29.8533C99.219 30.7639 97.432 31.2705 95.6028 31.3284C92.8921 31.3534 90.6135 30.0033 88.435 28.5533C90.2136 27.1319 91.5957 25.2854 93.4635 23.9819C96.8243 21.6283 100.089 23.0712 103.242 24.8819C101.352 25.8154 99.3566 26.5203 97.2993 26.9819C96.5778 27.1462 96.8707 28.2605 97.6029 28.1069C99.5753 27.6564 101.493 26.9917 103.321 26.1247C103.292 27.8461 102.528 28.8962 100.814 29.8462L100.806 29.8533ZM60.8205 22.1461C59.849 20.0747 59.9955 17.7497 60.2098 15.5211C65.1812 17.7282 72.0312 21.6712 67.5776 27.8176C66.624 25.4783 65.6062 23.1676 64.5026 20.8925C64.1776 20.2247 63.174 20.7926 63.5026 21.464C64.3776 23.2605 65.1955 25.0783 65.974 26.9212C63.8919 25.7676 61.8454 24.314 60.8276 22.139L60.8205 22.1461ZM103.471 52.1464C101.851 53.7275 99.9261 54.9621 97.8135 55.775C98.3819 54.3992 98.7199 52.9391 98.8136 51.4535C98.8815 50.1999 98.6315 48.907 98.7886 47.657C99.1529 44.7856 101.149 43.6963 103.696 43.3356C103.386 44.3658 102.995 45.3701 102.528 46.3392C102.203 46.9999 103.196 47.5713 103.524 46.907C104.059 45.805 104.5 44.6606 104.846 43.4856C107.853 45.7785 105.753 49.9714 103.471 52.1464ZM163.7 35.9463L155.053 35.9427C155.055 35.885 155.044 35.8277 155.021 35.7748C156.578 34.5224 158.107 33.2319 159.607 31.9033C160.921 33.2676 162.293 34.6391 163.703 35.9427L163.7 35.9463ZM148.553 38.657C146.17 40.3451 143.723 41.9463 141.214 43.4606C138.502 42.1337 135.937 40.5261 133.56 38.6642L148.553 38.657ZM120.467 29.6498C120.499 29.6218 120.529 29.592 120.557 29.5605C123.049 31.6034 125.449 33.8034 127.885 35.9462L110.289 35.9426C113.729 33.9117 117.126 31.8105 120.478 29.6391L120.467 29.6498ZM102.324 38.6499C100.481 39.6642 98.6254 40.6654 96.7564 41.6535C92.9825 40.8928 89.2617 39.8895 85.617 38.6498L102.324 38.6499ZM18.3701 60.4607C24.0809 61.3786 31.2417 61.7536 31.5595 68.9643C29.1992 67.4805 26.9919 65.7662 24.9702 63.8465C24.8597 63.755 24.7192 63.708 24.5759 63.7148C24.4327 63.7215 24.2971 63.7814 24.1958 63.8828C24.0944 63.9842 24.0345 64.1197 24.0278 64.2629C24.021 64.4062 24.068 64.5468 24.1595 64.6572C26.4665 66.8499 29.0108 68.7784 31.7452 70.4072C26.3595 74.6072 20.9952 64.6786 18.3594 60.4429L18.3701 60.4607ZM32.6452 114.165C29.6131 111.668 27.3952 107.486 28.9417 103.582C29.6417 101.797 30.6881 100.407 30.8881 98.636C32.8131 100.375 35.0274 102.154 36.4559 104.204C38.6238 107.307 36.7845 110.818 34.1917 113.054C34.4595 110.536 34.3595 108.043 33.1845 105.618C32.8595 104.95 31.8595 105.515 32.1845 106.182C33.4024 108.693 33.3452 111.336 32.9524 113.986L32.6452 114.165ZM24.5452 126.55C22.4344 126.04 21.3773 124.325 19.8558 122.947C19.0055 122.149 17.9933 121.543 16.888 121.172C18.9809 120.408 21.0594 119.458 23.1487 119.404C26.1202 119.325 28.6309 121.165 30.3023 123.479C28.4559 123.297 26.613 123.075 24.7773 122.79C24.0559 122.675 23.7666 123.8 24.4737 123.915C26.3928 124.21 28.3166 124.453 30.2452 124.643C28.6131 126.09 26.8095 127.093 24.5487 126.547L24.5452 126.55ZM30.4273 140.84C29.2059 139.454 28.1881 138.079 26.813 137.111C32.6881 136.701 40.0238 133.536 41.9489 141.183C39.8498 140.346 37.6671 139.736 35.4381 139.365C34.7131 139.24 34.4131 140.347 35.1346 140.49C37.534 140.879 39.8774 141.557 42.1131 142.511C38.2238 145.093 33.5345 144.361 30.4309 140.836L30.4273 140.84ZM38.4774 90.2395C37.0881 89.7788 35.9524 88.6645 34.9631 87.6466C33.3345 85.968 31.7488 84.2466 30.1523 82.543C31.602 82.4894 33.0431 82.2968 34.456 81.968C37.9631 81.368 41.9524 82.6002 43.3203 85.9609C41.1972 85.4747 39.1147 84.8251 37.0917 84.018C36.4024 83.7645 36.1131 84.8752 36.7881 85.143C39.0364 86.0425 41.3646 86.7277 43.7417 87.1895C43.8148 87.2773 43.9156 87.3377 44.0275 87.3609C43.9667 89.3859 39.6703 90.6324 38.481 90.2359L38.4774 90.2395ZM47.0632 87.4538C47.2382 87.4502 47.4096 87.4288 47.5846 87.418C49.8726 90.4922 51.8954 93.7552 53.6311 97.1717C53.6707 97.2589 53.7279 97.337 53.7992 97.4009C53.8706 97.4648 53.9544 97.5132 54.0454 97.5431C52.0447 102.759 49.7125 107.842 47.0632 112.761L47.0632 87.4538ZM39.3417 128.354C41.0727 125.885 42.7441 123.335 44.356 120.704L44.3596 136.708C42.8048 133.848 41.1334 131.062 39.3453 128.35L39.3417 128.354ZM47.0703 145.847C48.4346 148.94 49.6644 152.098 50.7596 155.322C49.6192 157.515 48.3894 159.652 47.0703 161.733L47.0703 145.847Z" fill="white"/>
<path d="M32.4912 103.897C32.5992 103.789 32.6599 103.643 32.6599 103.49C32.6599 103.337 32.5992 103.191 32.4913 103.083C32.3833 102.975 32.2368 102.914 32.0841 102.914C31.9314 102.914 31.7849 102.975 31.677 103.083C31.569 103.191 31.5083 103.337 31.5083 103.49C31.5083 103.643 31.569 103.789 31.677 103.897C31.785 104.005 31.9314 104.066 32.0841 104.066C32.2368 104.066 32.3833 104.005 32.4912 103.897Z" fill="white"/>
<path d="M22.1769 122.433C22.0855 122.543 22.0385 122.684 22.0452 122.827C22.0519 122.97 22.1118 123.106 22.2132 123.207C22.3146 123.309 22.4502 123.369 22.5934 123.375C22.7366 123.382 22.8772 123.335 22.9877 123.244C23.0791 123.133 23.126 122.993 23.1193 122.849C23.1126 122.706 23.0527 122.571 22.9513 122.469C22.85 122.368 22.7144 122.308 22.5711 122.301C22.4279 122.294 22.2874 122.341 22.1769 122.433Z" fill="white"/>
<path d="M32.5272 138.754C31.8307 138.508 31.545 139.622 32.2236 139.879L33.1522 140.208C33.8486 140.454 34.1379 139.344 33.4594 139.086L32.5272 138.754Z" fill="white"/>
<path d="M69.9348 138.247L70.8027 137.593C70.9311 137.515 71.025 137.39 71.0654 137.245C71.1058 137.1 71.0898 136.945 71.0206 136.811C70.983 136.745 70.933 136.688 70.8732 136.642C70.8134 136.595 70.7451 136.561 70.6721 136.541C70.5991 136.521 70.5229 136.516 70.4479 136.526C70.3729 136.535 70.3005 136.559 70.2348 136.597L69.367 137.243C69.2392 137.323 69.1461 137.449 69.1064 137.594C69.0667 137.74 69.0832 137.895 69.1527 138.029C69.2287 138.16 69.3532 138.257 69.4993 138.297C69.6455 138.338 69.8018 138.32 69.9348 138.247Z" fill="white"/>
<path d="M22.6774 62.775L22.4667 62.5643C22.3562 62.4729 22.2156 62.4259 22.0724 62.4326C21.9292 62.4393 21.7936 62.4993 21.6922 62.6006C21.5909 62.702 21.5309 62.8376 21.5242 62.9808C21.5175 63.124 21.5645 63.2646 21.6559 63.3751L21.8666 63.5858C21.9771 63.6772 22.1177 63.7242 22.2609 63.7175C22.4041 63.7108 22.5397 63.6509 22.6411 63.5495C22.7424 63.4481 22.8024 63.3125 22.8091 63.1693C22.8158 63.0261 22.7688 62.8855 22.6774 62.775Z" fill="white"/>
<path d="M35.3199 83.7184C35.0847 83.7154 34.854 83.6541 34.6484 83.5398C34.5828 83.5023 34.5104 83.4781 34.4354 83.4685C34.3603 83.459 34.2842 83.4643 34.2112 83.4842C34.1382 83.5041 34.0699 83.5382 34.0101 83.5845C33.9503 83.6308 33.9002 83.6885 33.8627 83.7541C33.8252 83.8198 33.801 83.8922 33.7914 83.9672C33.7819 84.0422 33.7872 84.1184 33.8071 84.1914C33.827 84.2643 33.8611 84.3326 33.9074 84.3924C33.9537 84.4522 34.0114 84.5023 34.077 84.5398C34.4584 84.7516 34.8872 84.8633 35.3235 84.8648C36.0806 84.8577 36.0628 83.7255 35.3199 83.7184Z" fill="white"/>
<path d="M66.8062 86.2467L67.4133 85.8395C68.0276 85.4323 67.449 84.4466 66.8455 84.8431L66.2348 85.2466C65.624 85.6573 66.1883 86.6574 66.8062 86.2467Z" fill="white"/>
<path d="M63.5772 19.4609C63.4343 19.218 63.2879 18.9788 63.145 18.7359C63.1075 18.6703 63.0574 18.6127 62.9976 18.5664C62.9378 18.5201 62.8695 18.486 62.7965 18.4661C62.7235 18.4462 62.6474 18.4408 62.5724 18.4503C62.4974 18.4599 62.4249 18.4841 62.3593 18.5216C62.2936 18.5592 62.236 18.6092 62.1897 18.669C62.1434 18.7288 62.1094 18.7971 62.0895 18.8701C62.0696 18.943 62.0642 19.0192 62.0737 19.0943C62.0833 19.1693 62.1075 19.2417 62.145 19.3073C62.2914 19.5466 62.4343 19.7894 62.5808 20.0287C62.6629 20.1467 62.7862 20.2296 62.9263 20.2613C63.0665 20.293 63.2134 20.2711 63.3383 20.2C63.4632 20.1288 63.5569 20.0136 63.6011 19.8768C63.6453 19.7401 63.6368 19.5917 63.5772 19.4609Z" fill="white"/>
<path d="M106.613 7.73231C106.47 7.48945 106.324 7.25018 106.177 7.00375C106.095 6.88582 105.972 6.80286 105.832 6.77118C105.692 6.7395 105.545 6.76135 105.42 6.8325C105.295 6.90366 105.201 7.01892 105.157 7.15568C105.113 7.29244 105.121 7.44082 105.181 7.57159C105.324 7.81445 105.467 8.05728 105.613 8.29657C105.694 8.41714 105.817 8.50283 105.958 8.53641C106.1 8.56999 106.248 8.54897 106.375 8.47764C106.501 8.40633 106.596 8.29 106.64 8.15181C106.684 8.0136 106.675 7.86375 106.613 7.73231Z" fill="white"/>
<path d="M95.9774 27.2395L94.4346 27.6109C93.7131 27.7823 94.0059 28.8966 94.7381 28.7359L96.281 28.3644C96.9882 28.1787 96.6953 27.0645 95.9774 27.2395Z" fill="white"/>
<path d="M101.735 48.168L100.878 49.3323C100.438 49.9288 101.446 50.493 101.878 49.9037L102.738 48.7359C103.156 48.1252 102.153 47.5573 101.735 48.168Z" fill="white"/>
<path d="M137.764 24.2106C137.616 24.2183 137.478 24.2823 137.376 24.3893C137.275 24.4963 137.218 24.6382 137.218 24.7857C137.218 24.9332 137.275 25.0751 137.376 25.182C137.478 25.289 137.616 25.353 137.764 25.3607L138.121 25.3607C138.263 25.3467 138.396 25.28 138.492 25.1737C138.588 25.0674 138.641 24.9291 138.641 24.7858C138.64 24.6425 138.586 24.5045 138.49 24.3988C138.393 24.2931 138.26 24.2273 138.117 24.2142L137.764 24.2106Z" fill="white"/>
<path d="M162.643 16.5462L163.25 15.7248C163.685 15.1319 162.685 14.5677 162.25 15.1534L161.646 15.9784C161.196 16.5641 162.2 17.1319 162.643 16.5462Z" fill="white"/>
<path d="M131.417 63.0503L131.331 64.4646C131.299 65.211 132.439 65.2003 132.481 64.4645L132.564 63.0466C132.589 62.3145 131.446 62.3217 131.417 63.0503Z" fill="white"/>
<path d="M153.492 49.4535L153.585 50.9749C153.621 51.7249 154.782 51.7142 154.735 50.9749L154.643 49.4534C154.593 48.7177 153.446 48.7142 153.492 49.4535Z" fill="white"/>
</svg>
